<svg width="33" height="32" viewBox="0 0 33 32" fill="none" xmlns="http://www.w3.org/2000/svg">
<path d="M16.8334 0.0786133C7.9606 0.0786133 0.767578 7.20678 0.767578 15.9998C0.767578 24.7929 7.9606 31.921 16.8334 31.921C25.7061 31.921 32.8992 24.7929 32.8992 15.9998C32.8992 7.20678 25.7061 0.0786133 16.8334 0.0786133ZM22.3861 16.8438L14.3532 21.8192C14.1907 21.9197 14.0059 21.9703 13.821 21.9703C13.6536 21.9703 13.4859 21.929 13.3342 21.8454C13.015 21.67 12.8169 21.3372 12.8169 20.9752V11.0244C12.8169 10.6625 13.015 10.3296 13.3342 10.1543C13.6533 9.97788 14.0436 9.98857 14.3532 10.1805L22.3861 15.1559C22.6796 15.3381 22.858 15.6568 22.858 15.9998C22.858 16.3428 22.6796 16.6616 22.3861 16.8438Z" fill="#FB333D"/>
</svg>
