<svg width="392" height="65" viewBox="0 0 392 65" fill="none" xmlns="http://www.w3.org/2000/svg">
<mask id="mask0_2343_19985" style="mask-type:luminance" maskUnits="userSpaceOnUse" x="0" y="0" width="392" height="65">
<path d="M391.92 0H0V65H391.92V0Z" fill="white"/>
</mask>
<g mask="url(#mask0_2343_19985)">
<path d="M4.23047 22.2503C4.23047 44.9503 4.22047 44.5503 5.08047 47.5103C7.33047 55.2403 13.7305 61.0503 21.7705 62.6503C23.8405 63.0503 28.0205 63.0203 30.1005 62.5703C33.1105 61.9203 35.3105 60.9803 37.8705 59.2903C45.7705 54.0003 49.2405 43.9803 46.3205 34.8203C45.2705 31.5703 43.5605 28.7803 41.0105 26.2203C37.8505 23.0403 34.1505 21.0703 29.7205 20.1903C27.6705 19.7903 23.6105 19.8203 21.5505 20.2703C18.0505 21.0303 14.9005 22.5103 12.1405 24.7303L11.6305 25.1303V6.26031L7.93047 3.79031L4.23047 1.32031V22.2503ZM29.2405 27.6803C33.1105 28.6803 36.4105 31.2903 38.2905 34.8203C42.0405 41.8203 39.2205 50.5403 32.0305 54.1303C29.3005 55.4903 25.9405 55.9303 23.0405 55.3303C17.7805 54.2403 13.7405 50.5303 12.1405 45.3203C11.7705 44.1003 11.7205 43.7203 11.7205 41.5003C11.7005 39.3703 11.7505 38.8603 12.0605 37.8003C13.4005 33.1403 16.8305 29.5003 21.3105 28.0103C22.0805 27.7503 23.1305 27.4703 23.6205 27.3903C24.9805 27.1703 27.8805 27.3303 29.2305 27.6803" fill="#333333"/>
<path d="M97.5823 22.5602C97.6323 46.2302 97.5723 44.7702 98.7123 48.1902C100.952 54.9102 106.422 60.2002 113.142 62.1502C114.612 62.5702 117.292 63.0102 118.412 63.0102H119.122V55.6502L117.892 55.5402C114.572 55.2602 111.202 53.6002 108.852 51.0802C107.152 49.2702 106.062 47.2402 105.352 44.6302C105.032 43.3702 105.012 43.1202 105.012 35.3202V27.3002L111.302 27.2502L117.582 27.2202V19.8202H104.932V6.1702L101.432 3.8602C99.5223 2.6002 97.8523 1.5002 97.7323 1.4402C97.5523 1.3302 97.5323 4.5202 97.5823 22.5702" fill="#333333"/>
<path d="M173.609 22.7101C173.659 43.7801 173.659 44.1301 173.979 45.5801C174.969 50.0801 176.799 53.4601 179.949 56.6201C181.649 58.3001 183.639 59.7801 185.429 60.6901C187.839 61.8901 191.009 62.7601 193.759 62.9601L195.159 63.0501V55.6001H194.429C193.319 55.6001 191.049 55.0801 189.739 54.5401C186.449 53.1701 183.509 50.2701 182.149 47.0801C181.899 46.4601 181.549 45.4801 181.359 44.8901C181.049 43.8301 181.049 43.4601 180.989 25.0001L180.939 6.19008L179.909 5.51008C179.339 5.12008 177.669 4.03008 176.209 3.07008L173.539 1.33008L173.599 22.7201L173.609 22.7101Z" fill="#FF2727"/>
<path d="M285.211 31.9405V62.5505H292.611V49.5805L295.691 45.7405C297.391 43.6105 298.801 41.8805 298.841 41.8805C298.881 41.8805 301.351 46.5205 304.351 52.2105L309.811 62.5405H314.081C316.441 62.5405 318.371 62.5105 318.371 62.4905C318.371 62.4605 315.151 56.4105 311.201 49.0705C307.251 41.7105 304.011 35.6505 304.001 35.5805C303.971 35.5205 306.781 31.9405 310.251 27.6405C313.701 23.3405 316.531 19.7905 316.531 19.7405C316.531 19.6905 314.421 19.6605 311.861 19.6605H307.171L300.011 28.5905C296.081 33.5105 292.811 37.5305 292.751 37.5305C292.671 37.5505 292.631 30.4805 292.631 21.8505V6.18055L291.121 5.19055C290.301 4.63055 288.641 3.54055 287.431 2.75055L285.231 1.31055V31.9405H285.211Z" fill="#FF2727"/>
<path d="M125.602 22.4796C125.602 45.6396 125.572 44.7596 126.562 47.8896C128.642 54.4696 133.922 59.8096 140.412 61.8896C143.052 62.7396 144.252 62.9196 147.122 62.9196C149.992 62.9196 151.272 62.7196 153.832 61.8996C159.262 60.1396 163.872 56.1596 166.482 50.9796C167.202 49.5496 168.132 46.6196 168.412 44.9496C168.722 43.0496 168.702 39.7096 168.392 37.8396C166.912 29.0296 160.252 22.1696 151.322 20.2396C149.252 19.8096 145.352 19.7596 143.292 20.1796C140.112 20.7996 136.742 22.2596 134.382 24.0496C133.662 24.6096 133.012 25.0496 132.962 25.0496C132.912 25.0496 132.872 20.7896 132.872 15.5796V6.1396L129.372 3.8596C127.462 2.5996 125.822 1.5296 125.752 1.5196C125.692 1.4896 125.632 10.9296 125.632 22.4896M150.692 27.6896C151.372 27.8796 152.562 28.3196 153.312 28.6896C162.292 33.1196 164.092 44.9096 156.842 51.7796C155.642 52.9096 154.732 53.5096 153.032 54.3096C150.832 55.3396 149.852 55.5396 147.062 55.5296C144.932 55.5096 144.532 55.4796 143.312 55.1096C138.112 53.5196 134.322 49.4496 133.222 44.2796C132.932 42.8796 132.932 39.9596 133.232 38.5396C134.452 32.8996 138.912 28.5496 144.632 27.4496C146.162 27.1596 149.092 27.2796 150.672 27.6796" fill="#FF2727"/>
<path d="M365.821 19.7799C365.761 19.8299 365.711 29.4799 365.711 41.2199V62.5499H373.101L373.151 50.8599C373.211 39.3399 373.211 39.1699 373.551 37.9499C373.981 36.4099 374.921 34.3999 375.801 33.1799C376.571 32.0999 378.271 30.4399 379.291 29.7399C381.221 28.4299 383.891 27.4699 386.071 27.2899L387.301 27.1799V19.7799L385.961 19.8899C383.111 20.1199 380.161 20.9199 377.661 22.1699C376.411 22.7999 373.911 24.4399 373.571 24.8499C373.461 24.9699 373.321 25.0699 373.251 25.0699C373.181 25.0699 373.111 23.8499 373.111 22.3699V19.6699H369.521C367.531 19.6699 365.871 19.7199 365.821 19.7799Z" fill="#FF2727"/>
<path d="M69.7123 19.9796C64.7023 20.6096 60.5523 22.6596 56.9723 26.2896C53.8123 29.4796 52.0323 32.7496 51.0823 37.1496C50.5923 39.4596 50.5923 43.4696 51.0823 45.7196C51.5623 47.8496 52.2123 49.6696 53.1323 51.4296C56.1523 57.2096 61.6123 61.2796 68.1523 62.6396C70.0923 63.0396 74.3823 63.0396 76.3223 62.6396C86.0523 60.6196 93.0423 52.7096 93.7623 42.8396L93.8723 41.4196H86.4723L86.3623 42.6496C86.1823 44.8696 85.2623 47.4296 83.9623 49.3896C83.1023 50.6896 80.8423 52.8096 79.4923 53.5996C75.5323 55.9096 70.9023 56.2096 66.6323 54.4296C65.4123 53.9196 63.4123 52.5796 62.5623 51.6996L61.9023 51.0196L77.3223 42.7996C85.8223 38.2796 92.7623 34.4996 92.7623 34.3996C92.7623 33.9796 90.6923 30.1096 89.8023 28.8596C86.6923 24.4596 81.8923 21.3696 76.5223 20.2696C74.7523 19.9196 71.3823 19.7596 69.7223 19.9796M75.7223 27.6696C77.9323 28.2596 80.6223 29.7396 81.9423 31.1196L82.4623 31.6596L79.5523 33.1996C77.9623 34.0496 72.5623 36.9296 67.5523 39.5996L58.4523 44.4596L58.3123 44.0396C58.2323 43.8196 58.1723 42.5896 58.1723 41.3196C58.1723 39.2396 58.2023 38.8696 58.5923 37.6396C60.2223 32.2596 64.3923 28.4796 69.8323 27.4296C71.3423 27.1396 74.1323 27.2596 75.7223 27.6596" fill="#333333"/>
<path d="M215.909 19.9797C207.689 21.0097 200.809 26.5197 198.099 34.2097C197.219 36.7197 196.939 38.3997 196.939 41.4097C196.919 44.4497 197.109 45.6197 198.019 48.3497C200.439 55.6497 206.609 61.0097 214.429 62.6497C216.269 63.0297 220.609 63.0297 222.449 62.6497C231.289 60.7797 237.719 54.4097 239.599 45.6897C240.079 43.4397 240.079 39.3997 239.599 37.1497C238.659 32.7897 236.789 29.3597 233.649 26.2197C230.469 23.0297 226.769 21.0497 222.439 20.2197C220.899 19.9297 217.399 19.7997 215.919 19.9897M221.919 27.6797C223.279 28.0297 225.299 28.9397 226.439 29.7197C227.489 30.4397 229.179 32.1097 229.959 33.1897C232.179 36.2897 233.109 40.4797 232.359 44.0497C231.729 47.1497 230.369 49.5697 228.039 51.7797C225.199 54.4597 221.589 55.7897 217.679 55.5697C214.149 55.3697 211.279 54.1197 208.689 51.6197C206.609 49.6197 205.369 47.5197 204.629 44.7397C204.199 43.0897 204.229 39.5997 204.689 37.9897C206.289 32.3897 210.459 28.5197 216.019 27.4597C217.529 27.1697 220.319 27.2897 221.909 27.6897" fill="#333333"/>
<path d="M212.471 32.3214C211.341 33.0614 209.571 34.9114 209.031 35.9314L208.641 36.6414L215.931 43.9314L223.211 51.2114L223.941 50.8214C224.901 50.3314 227.351 47.8714 227.841 46.9214L228.231 46.1914L220.981 38.9414C216.991 34.9514 213.671 31.6914 213.581 31.6914C213.491 31.6914 212.991 31.9714 212.471 32.3114" fill="#FF2727"/>
<path d="M262.539 20.0015C258.899 20.4515 254.979 22.0415 252.129 24.2215C250.559 25.4215 248.259 27.8615 247.229 29.4015C245.499 31.9915 244.409 34.8014 243.849 37.9415C243.459 40.2514 243.529 43.7715 244.019 45.9015C245.979 54.4715 252.209 60.6414 260.859 62.5714C262.939 63.0314 266.949 63.0615 269.059 62.6515C270.739 62.3115 272.819 61.6314 274.359 60.9214C275.609 60.3514 278.089 58.7514 279.059 57.8815L279.649 57.3714L277.149 54.6315L274.669 51.9015L274.269 52.2715C273.509 52.9515 271.959 53.9215 270.689 54.4715C267.039 56.0415 262.409 55.9414 258.939 54.1914C255.949 52.6814 253.799 50.5015 252.339 47.5015C251.259 45.2815 250.909 43.5515 251.009 40.8715C251.099 38.4515 251.379 37.3414 252.349 35.3215C253.639 32.6515 255.289 30.8315 257.749 29.3215C262.589 26.3315 268.749 26.5914 273.459 29.9714C274.079 30.4214 274.649 30.7415 274.719 30.6615C274.779 30.6014 275.879 29.3615 277.159 27.9315L279.489 25.3115L278.979 24.8815C276.539 22.7515 272.599 20.9015 268.999 20.2115C267.409 19.9015 264.099 19.7915 262.519 19.9915" fill="#FF2727"/>
<path d="M337.589 19.9804C327.949 21.2004 320.379 28.3804 318.779 37.8504C318.459 39.7304 318.459 43.0804 318.779 44.9704C319.059 46.6704 319.999 49.5804 320.709 50.9804C323.749 57.0304 329.269 61.2104 336.119 62.6404C337.939 63.0204 342.169 63.0204 343.979 62.6404C350.829 61.2104 356.349 57.0404 359.389 50.9804C360.559 48.6704 361.559 44.7404 361.559 42.4504V41.4004H354.339L354.249 41.9704C354.199 42.2904 354.129 42.9704 354.079 43.4804C353.959 44.5804 353.349 46.5704 352.819 47.6404C351.799 49.6404 349.869 51.8704 348.069 53.1204C347.039 53.8304 344.709 54.8904 343.439 55.2204C342.609 55.4404 341.819 55.5004 339.969 55.5004C337.829 55.4804 337.439 55.4504 336.189 55.0704C333.969 54.3904 331.389 52.8804 330.069 51.4804L329.639 51.0304L345.059 42.8104C354.729 37.6604 360.479 34.5104 360.479 34.3704C360.479 33.9804 359.029 31.0204 358.239 29.8204C355.029 24.8504 350.069 21.4504 344.249 20.2704C342.479 19.9004 339.219 19.7604 337.589 19.9604M343.589 27.6504C345.789 28.2204 348.539 29.7604 349.879 31.1804L350.309 31.6304L338.359 38.0004C331.789 41.5004 326.359 44.3704 326.299 44.3804C325.869 44.4404 325.759 40.2504 326.149 38.5004C327.379 32.8204 331.819 28.5104 337.549 27.4104C339.089 27.1204 342.009 27.2404 343.599 27.6404" fill="#FF2727"/>
</g>
</svg>
