<svg width="214" height="65" viewBox="0 0 214 65" fill="none" xmlns="http://www.w3.org/2000/svg">
<path fill-rule="evenodd" clip-rule="evenodd" d="M8.81342 37.4802L9.66258 38.7867L8.02491 39.1821C6.74797 39.4922 5.46465 39.8022 4.18452 40.1059C2.89801 40.4159 1.6083 40.7164 0.318597 41.0074C-0.0804451 41.096 -0.0804453 41.2352 0.184519 41.5041C0.407983 41.735 0.625062 41.9786 0.842142 42.2222L2.55324 44.1297C8.74319 51.0228 14.9331 57.9191 21.1199 64.8185C21.2699 64.9862 21.3817 65.0368 21.6083 64.9672C22.9395 64.556 24.2739 64.1605 25.6083 63.7619L28.0664 63.0249L31.6259 61.9461L35.2652 60.8421L41.171 59.0706L45.602 57.7419C48.0249 57.027 50.4415 56.2963 52.8549 55.5465H52.8581L54.1893 55.1353L54.0712 55.0087C54.0074 54.936 53.9403 54.8632 53.8701 54.7968L53.6307 54.5785L53.6243 54.5754C51.7855 52.9019 49.9435 51.2316 48.1016 49.5645L46.2915 47.9417C45.088 46.8661 43.8845 45.7905 42.7097 44.6897C41.5062 43.5698 40.2835 42.4658 39.0481 41.3807L38.9938 41.3333L37.0784 39.625C37.1231 39.4321 37.2093 39.2517 37.3338 39.0967L37.3913 39.0145L41.0529 33.5955C45.2221 27.4205 49.3849 21.2424 53.5381 15.0579L57.0497 9.86039L59.3673 6.42491L62.3617 1.9803L63.6993 0L63.1886 0.502984C61.4998 2.2397 59.8047 3.97326 58.1095 5.70365L55.412 8.45899L48.2484 15.7981L42.0106 22.1882C38.5596 25.7249 35.1087 29.2617 31.6482 32.7857C31.5525 32.8869 31.4567 32.9913 31.3641 33.0989C31.0991 33.3994 30.831 33.6999 30.4543 33.8739L30.3394 33.8834C30.2564 33.8897 30.1734 33.8961 30.0936 33.915L29.669 34.0163C27.2396 34.5952 24.8102 35.1741 22.3841 35.7593L18.2819 36.759L16.4559 37.2082C16.1845 37.2398 15.9579 37.1228 15.7216 36.9931L15.1598 36.6894L12.2675 35.1203C10.2947 34.0511 8.31541 32.985 6.33616 31.9253C6.19889 31.8493 6.06162 31.7734 5.92754 31.6912C5.54446 31.4634 5.13903 31.2261 4.62826 31.0964L5.34015 32.172L6.83736 34.4433L8.81661 37.4802H8.81342ZM20.9475 39.7958C20.6698 39.6472 20.3888 39.4985 20.1111 39.3498C20.6762 39.122 21.2667 38.9955 21.8573 38.869C22.1638 38.8057 22.4703 38.7361 22.7735 38.657C23.661 38.4229 24.5548 38.2205 25.4487 38.0148L26.4256 37.7934C26.5054 37.7744 26.5852 37.7681 26.6682 37.7618L26.7831 37.7523L26.0074 38.5495L23.7504 40.8777C23.5684 41.0675 23.4248 41.1593 23.1375 40.9948C22.4128 40.5835 21.6849 40.1849 20.9475 39.7958ZM35.0385 42.5164C35.1598 42.3234 35.2779 42.1273 35.4663 41.9881L36.5357 42.9877C37.3146 43.7217 38.0968 44.4556 38.8917 45.1768C41.0114 47.1002 43.1375 49.0141 45.2636 50.9311L47.4471 52.8956L48.1175 53.4935L48.4814 53.813L47.2077 54.2084C46.2915 54.4931 45.404 54.7683 44.5166 55.0341L41.9212 55.8059L39.2652 56.5968C37.6626 57.0776 36.06 57.5648 34.4543 58.052L29.9754 59.4059L27.3513 60.1968C25.7743 60.6649 24.1973 61.1363 22.6267 61.6203C22.3234 61.7152 22.1606 61.6614 21.9563 61.4305L14.3011 52.9082L14.2947 52.9019L10.0712 48.2011L8.43034 46.3663C7.49179 45.3097 6.55324 44.2563 5.60192 43.2155C5.2763 42.8549 5.41677 42.7916 5.76473 42.7094C7.26513 42.3614 8.75915 42.0071 10.2564 41.6496H10.2595L10.8469 41.5104L11.1885 41.4187L11.3481 41.3744C11.8429 41.9533 12.2516 42.5986 12.6602 43.2408L13.139 43.9842C14.1319 45.4774 15.1119 46.9768 16.0888 48.4763L17.9531 51.3234C19.0321 52.9683 20.1175 54.607 21.1997 56.2456L21.2061 56.252L23.1151 59.1433C23.479 59.6938 23.5046 59.6843 23.8685 59.1433L26.3936 55.4073L29.2827 51.1304C31.1694 48.3213 33.0497 45.509 34.9268 42.6904L35.0385 42.5164Z" fill="white"/>
<path d="M155.237 47.9301C154.688 48.5628 154.078 49.1417 153.42 49.6605C151.131 51.3687 148.574 51.9856 145.778 51.6661C143.639 51.4225 141.621 50.8309 139.808 49.6035C137.57 48.1167 135.965 45.8675 135.291 43.283C133.969 38.386 134.57 33.6188 136.728 29.1109C138.605 25.1819 141.701 22.5563 145.829 21.3605C149.382 20.2849 153.21 20.4969 156.619 21.9552C158.79 22.8695 160.434 24.4037 161.408 26.6276C161.96 27.8803 162.161 29.209 162.238 30.5692C162.253 30.7907 162.183 30.8887 161.947 30.8856C160.45 30.8761 158.949 30.8792 157.452 30.8919C157.152 30.8919 157.139 30.7369 157.123 30.5218L157.12 30.4901C156.989 29.0033 156.475 27.6747 155.377 26.6624C154.308 25.6786 152.983 25.2136 151.582 25.0491C149.181 24.7643 146.898 25.106 144.868 26.5865C143.208 27.7981 142.04 29.4114 141.219 31.2873C139.885 34.2831 139.428 37.592 139.904 40.8345C140.274 43.3874 141.439 45.4848 143.802 46.6647C145.535 47.5283 147.38 47.658 149.261 47.3512C152.329 46.8514 154.273 44.9217 155.521 42.1315C155.824 41.4546 156.041 40.7491 156.258 40.0437L156.313 39.8728C156.434 39.4774 156.376 39.3604 155.939 39.3635C154.889 39.373 153.838 39.373 152.788 39.373C151.556 39.373 150.324 39.373 149.095 39.3888C148.558 39.3952 148.501 39.2212 148.606 38.7562C148.83 37.7692 149.031 36.7727 149.206 35.7762C149.27 35.4188 149.484 35.4219 149.72 35.4251H159.301C159.958 35.4282 160.622 35.4314 161.28 35.4251C161.596 35.4188 161.749 35.4377 161.657 35.8585C161.21 37.9621 160.779 40.0658 160.348 42.1695L159.818 44.735L159.428 46.6014C159.151 47.9301 158.873 49.2556 158.611 50.5874C158.538 50.9543 158.413 51.0872 158.036 51.0745C157.254 51.0461 156.469 51.0461 155.687 51.0777C155.304 51.0935 155.221 50.9448 155.23 50.5905C155.246 49.9958 155.243 49.4011 155.24 48.7652V48.7589L155.237 47.9301Z" fill="white"/>
<path fill-rule="evenodd" clip-rule="evenodd" d="M213.885 51.0978L212.617 51.0883C211.49 51.0756 210.367 51.0725 209.24 51.0788C208.825 51.0819 208.684 50.9681 208.624 50.5378C208.442 49.2503 208.247 47.9691 208.052 46.6848L207.612 43.7302C207.557 43.3505 207.458 43.1892 207.037 43.1924C203.519 43.2114 199.998 43.2082 196.48 43.1924C196.129 43.1924 195.956 43.3221 195.794 43.6131L193.952 46.8651L191.749 50.7656C191.615 51.0092 191.462 51.0725 191.209 51.0725H191.082C187.886 51.0598 184.687 51.063 181.492 51.0788C181.093 51.0819 180.981 50.8985 180.904 50.579C180.633 49.4148 180.703 48.238 180.799 47.0676C180.841 46.5298 180.901 45.992 180.959 45.4542C181.061 44.5368 181.163 43.6258 181.182 42.7084C181.205 41.8479 181.195 40.9875 180.691 40.2409C180.071 39.3172 179.117 39.023 178.114 38.9439C176.336 38.8015 174.555 38.8174 172.77 38.8332C171.87 38.8395 170.973 38.849 170.073 38.8332C169.75 38.8332 169.719 39.0293 169.687 39.2286L169.671 39.3298C169.217 41.56 168.764 43.7903 168.317 46.0205L168.036 47.3807C167.816 48.4595 167.596 49.5382 167.391 50.6201C167.324 50.9807 167.177 51.0788 166.839 51.0725C165.412 51.0535 163.982 51.0566 162.555 51.0756C162.172 51.0819 162.134 50.9554 162.204 50.6106C163.915 42.3256 165.594 34.0311 167.241 25.7334L167.675 23.6045L168.055 21.7634V21.7602C168.1 21.5387 168.129 21.3869 168.432 21.3901L173.307 21.4027C176.02 21.4027 178.731 21.409 181.441 21.4407C183.063 21.4628 184.655 21.7444 186.143 22.4941C188.023 23.4431 189.176 24.9521 189.575 27.0399C189.968 29.1025 189.821 31.1176 188.936 33.0378C188.094 34.8536 186.651 35.9513 184.837 36.5903C184.489 36.7074 184.135 36.8149 183.778 36.9067L183.213 37.0648C184.078 37.4413 184.79 37.9 185.304 38.6149C186.038 39.6304 186.229 40.823 186.277 42.044C186.316 43.1038 186.197 44.1477 186.076 45.1948C186.012 45.7737 185.945 46.3558 185.907 46.941C185.843 47.9185 185.792 48.896 185.952 49.8704L185.958 49.9115C186.006 50.1899 186.054 50.4809 186.268 50.7688L186.667 50.1076C186.951 49.6394 187.229 49.1807 187.5 48.7157L191.015 42.702C192.751 39.7284 194.491 36.758 196.231 33.7875V33.7812C198.45 30.0009 200.668 26.2206 202.855 22.4182C203.292 21.659 203.73 21.3015 204.63 21.3743C205.607 21.447 206.593 21.428 207.58 21.4059L208.442 21.3901C208.745 21.3869 208.857 21.4786 208.905 21.7918C209.3 24.2308 209.706 26.6698 210.118 29.1057L210.766 32.8575L210.769 32.8765L211.369 36.3562C211.928 39.6335 212.48 42.914 213.029 46.1945L213.138 46.8208C213.326 47.9565 213.517 49.0922 213.712 50.2278C213.728 50.3892 213.744 50.5537 213.885 50.6707V51.1009V51.0978ZM175.078 34.8916H177.897C179.015 34.8852 180.116 34.784 181.189 34.4234C183.711 33.5756 185.064 31.3232 184.617 28.6501C184.458 27.7011 184.001 26.9292 183.155 26.4294C182.076 25.7904 180.882 25.6797 179.682 25.6607C178.236 25.6417 176.793 25.6449 175.347 25.6512H173.521C172.445 25.6512 172.445 25.6512 172.231 26.7584L172.215 26.8217V26.828L172.199 26.9134L171.832 28.7292C171.446 30.6462 171.056 32.5633 170.657 34.4771C170.584 34.8409 170.689 34.8979 171.008 34.8947C172.017 34.8852 173.026 34.8884 174.038 34.8884H175.078V34.8916ZM205.205 26.6413L205.039 26.8944C204.965 27.0083 204.895 27.1253 204.828 27.2424L203.008 30.5418C201.486 33.294 199.966 36.0462 198.437 38.7984C198.239 39.1495 198.277 39.2413 198.679 39.2381C201.31 39.2254 203.937 39.2286 206.565 39.2381C206.871 39.2381 206.98 39.2065 206.922 38.8268C206.721 37.4602 206.536 36.0873 206.347 34.7144V34.6891C206.067 32.6107 205.776 30.5324 205.47 28.4571L205.466 28.4382C205.377 27.8498 205.291 27.2519 205.205 26.6413ZM134.089 33.7179C134.047 37.3559 133.498 40.5731 131.998 43.5688C130.529 46.5076 128.39 48.7695 125.454 50.1994C121.782 51.9867 117.967 52.2398 114.118 51.0471C110.75 50.0095 108.327 47.7793 106.967 44.4008C105.996 41.9998 105.83 39.5101 105.999 36.9573C106.242 33.3004 107.177 29.8744 109.342 26.8976C112.004 23.2438 115.589 21.2382 120.02 20.808C122.542 20.5613 124.994 20.8554 127.305 21.9626C130.762 23.6203 132.825 26.4452 133.722 30.2034C134.019 31.4592 134.092 32.7341 134.089 33.7179ZM121.16 24.9742C120.058 24.9236 118.829 25.1957 117.648 25.7334C115.452 26.7299 113.92 28.4318 112.86 30.5798C111.174 33.9868 110.603 37.5994 111.283 41.3608C111.605 43.1481 112.406 44.7425 113.865 45.8623C116.272 47.7161 118.979 47.8964 121.754 47.0106C124.09 46.2672 125.725 44.5653 126.89 42.4173C128.783 38.9218 129.402 35.1731 128.774 31.2283C128.518 29.596 127.877 28.1187 126.692 26.9577C125.205 25.5025 123.375 24.9489 121.16 24.9742Z" fill="white"/>
<path d="M103.107 31.2941H102.497C102.005 31.2878 101.51 31.2878 101.019 31.3005C100.68 31.3131 100.582 31.2056 100.572 30.8513C100.534 29.4688 100.195 28.1687 99.3269 27.0773C98.2735 25.7582 96.8369 25.1856 95.228 25.0211C90.3501 24.5149 87.0556 27.3177 85.2966 31.3131C83.9845 34.2804 83.528 37.5482 83.9813 40.7559C84.3165 43.255 85.4243 45.3271 87.6749 46.5545C90.0596 47.8515 93.8744 47.9812 96.1984 45.9155C97.5935 44.6723 98.465 43.0937 99.0077 41.3159C99.1577 40.835 99.3493 40.6515 99.8664 40.6674C101.172 40.7117 102.478 40.699 103.783 40.6737C104.192 40.6642 104.301 40.7591 104.192 41.1767C103.515 43.815 102.427 46.2255 100.499 48.171C97.8042 50.8915 94.4905 51.8849 90.7906 51.7235C88.208 51.6096 85.7723 50.9643 83.6334 49.4142C81.0252 47.5288 79.5568 44.8937 78.9885 41.7271C78.5097 39.0825 78.6821 36.4379 79.2024 33.8186C79.793 30.8386 80.9774 28.1434 82.963 25.8436C84.639 23.8822 86.8161 22.4018 89.2647 21.5571C92.0005 20.6018 94.7906 20.4942 97.6031 21.0573C99.9654 21.5318 102.047 22.5758 103.614 24.5149C105.127 26.3845 105.67 28.5863 105.692 30.9683C105.696 31.2847 105.539 31.3005 105.303 31.2973C104.773 31.2941 104.246 31.291 103.716 31.2941H103.107Z" fill="white"/>
<path fill-rule="evenodd" clip-rule="evenodd" d="M67.682 40.8201H65.6772C63.7331 40.8264 61.7889 40.8264 59.848 40.8106C59.3883 40.8043 59.2478 40.9593 59.2223 41.399C59.1138 43.2939 59.2159 45.1413 60.2534 46.8021C61.0962 48.1466 62.2965 48.9406 63.8289 49.2316C66.0507 49.6555 68.0842 49.2443 69.8688 47.7923C70.9669 46.897 71.7299 45.736 72.2119 44.3947C72.3333 44.0531 72.4897 43.9266 72.8472 43.9455C73.374 43.974 73.9007 43.9614 74.4306 43.9487H74.5711C74.8712 43.9392 75.018 43.9677 74.8967 44.3568C73.7155 48.0896 71.4554 50.6836 67.583 51.4523C65.2016 51.9205 62.836 51.8003 60.6206 50.5982C58.8169 49.6176 57.5814 48.1118 57.0834 46.1283C55.7746 40.896 56.777 36.1224 60.2566 32.0258C62.3827 29.5203 65.1824 28.4131 68.429 28.4922C70.2359 28.5365 71.9087 28.9889 73.3452 30.1372C75.018 31.4722 75.8512 33.2848 76.1353 35.3885C76.3269 36.812 76.2407 38.2356 76.1545 39.6591L76.113 40.3456C76.0938 40.741 75.9438 40.8327 75.5703 40.8296C73.5878 40.8169 71.6054 40.8201 69.6198 40.8201H67.682ZM66.5647 38.5298L68.2758 38.5266C69.8464 38.5234 71.4171 38.5203 72.9845 38.5424C73.4793 38.5487 73.623 38.3843 73.591 37.9097C73.5751 37.6662 73.5847 37.4194 73.591 37.1695C73.6038 36.9196 73.607 36.6665 73.5942 36.4166C73.4889 34.7653 72.9781 33.2911 71.7363 32.1555C69.7123 30.3049 66.0858 30.3397 63.7139 32.0448C61.6708 33.5126 60.4801 35.5625 59.7714 37.9603C59.6373 38.419 59.7331 38.5424 60.1992 38.5361C61.757 38.5234 63.3181 38.5266 64.8791 38.5266L66.5647 38.5298Z" fill="#8A8A8A"/>
<path fill-rule="evenodd" clip-rule="evenodd" d="M35.4918 42.0487L9.66258 38.7873L8.02491 39.1827C6.74797 39.4927 5.46465 39.8027 4.18452 40.1064C2.89801 40.4164 1.6083 40.7169 0.318598 41.008C-0.0804451 41.0965 -0.0804453 41.2357 0.184519 41.5046C0.407983 41.7356 0.625062 41.9791 0.842142 42.2227L2.55324 44.1303C8.74319 51.0234 14.9331 57.9196 21.1199 64.819C21.2699 64.9867 21.3817 65.0373 21.6083 64.9677C22.9395 64.5565 24.2739 64.1611 25.6083 63.7625L28.0664 63.0254L31.6259 61.9467L35.2652 60.8426L41.171 59.0711L45.602 57.7425C48.0249 57.0275 50.4415 56.2968 52.855 55.5471H52.8582L54.1894 55.1358L54.0712 55.0093C54.0074 54.9365 53.9404 54.8638 53.8701 54.7973L53.6307 54.579L53.6243 54.5759C51.7855 52.9024 49.9435 51.2322 48.1016 49.565L46.2915 47.9422C45.088 46.8666 43.8845 45.7911 42.7097 44.6902C41.5062 43.5703 40.2835 42.4663 39.0481 41.3813L38.9938 41.3338L37.072 39.654L35.4918 42.0487ZM5.76473 42.7099C6.13504 42.6245 7.7376 42.2385 9.99778 41.6944C10.5309 41.5647 10.8884 41.4951 11.3322 41.3749C11.3928 41.3591 9.60193 38.7651 9.66258 38.7873C9.66577 38.7873 35.4918 42.0487 35.4918 42.0487C35.6514 42.0867 38.8374 45.1299 38.8917 45.1774C41.0114 47.1007 43.1375 49.0146 45.2636 50.9316L47.4471 52.8961L48.1175 53.494L48.4815 53.8135L47.2077 54.2089C46.2915 54.4936 45.404 54.7689 44.5166 55.0346L41.9212 55.8065L39.2652 56.5973C37.6626 57.0782 36.0601 57.5653 34.4543 58.0525L29.9755 59.4064L27.3513 60.1973C25.7743 60.6655 24.1973 61.1368 22.6267 61.6208C22.3234 61.7157 22.1606 61.662 21.9563 61.431L14.3011 52.9088L14.2947 52.9024L10.0712 48.2016L8.43034 46.3668C7.49179 45.3102 6.55324 44.2568 5.60192 43.216C5.2763 42.8554 5.41677 42.7921 5.76473 42.7099Z" fill="#8A8A8A"/>
<path fill-rule="evenodd" clip-rule="evenodd" d="M30.406 33.8633L16.3086 37.2228L20.1107 39.4151L26.7827 37.7511L30.406 33.8633Z" fill="#8A8A8A"/>
</svg>
