<svg width="230" height="65" viewBox="0 0 230 65" fill="none" xmlns="http://www.w3.org/2000/svg">
<g clip-path="url(#clip0_2318_19939)">
<mask id="mask0_2318_19939" style="mask-type:luminance" maskUnits="userSpaceOnUse" x="0" y="0" width="230" height="65">
<path d="M230 0H0V65H230V0Z" fill="white"/>
</mask>
<g mask="url(#mask0_2318_19939)">
<path d="M117.051 31.7898C117.021 38.2098 112.931 41.9998 106.871 41.9998C99.8414 41.9998 95.4414 36.9598 95.4414 31.3798C95.4414 25.7998 99.9014 20.7598 106.561 20.7598C110.281 20.7598 113.121 22.1098 115.821 24.6798L114.261 26.1298C111.961 23.8998 109.221 22.7198 106.591 22.7198C101.721 22.7198 97.5314 26.4398 97.5314 31.3098C97.5314 36.1798 101.451 40.0998 106.901 40.0998C110.751 40.0998 114.171 37.7998 114.741 33.7098H108.281V31.7498H117.041V31.7798L117.051 31.7898ZM121.881 34.0198C121.851 37.3298 124.451 40.0398 127.761 40.1098C131.111 40.2098 133.911 37.5698 133.981 34.2298C134.081 30.8798 131.441 28.0798 128.101 28.0098C124.751 27.9098 121.951 30.5498 121.881 33.8898V34.0298M133.611 26.5598H135.501V41.5398H133.611V38.9698C132.161 40.8298 129.921 41.9098 127.561 41.9098C123.231 41.7698 119.781 38.1598 119.921 33.8298C120.061 29.6398 123.441 26.2898 127.631 26.1898C130.031 26.1598 132.261 27.3398 133.611 29.3298V26.5598ZM151.931 41.4998H150.041V33.8298C150.041 32.6798 149.941 31.7298 149.901 31.0198C149.801 29.2598 148.281 27.9098 146.521 27.9798C145.131 27.9798 143.851 28.6198 143.001 29.7398C141.921 31.1298 141.751 32.8798 141.751 35.1498V41.5098H139.821V26.5298H141.751V29.0998C143.071 27.1698 144.731 26.1598 146.891 26.1598C149.191 26.1598 150.811 27.3398 151.621 29.7798C152.941 27.3798 154.931 26.1598 157.131 26.1598C160.241 26.1598 162.241 28.3898 162.241 32.6498V41.5098H160.311V33.3298C160.311 32.2098 160.171 31.3698 160.141 30.8298C160.041 29.5098 158.791 28.0198 156.761 28.0198C154.831 28.0498 153.141 29.2698 152.501 31.0598C152.061 32.3098 151.891 33.6598 151.961 34.9798L151.931 41.5098V41.4998ZM180.091 33.9898C180.121 30.6798 177.491 27.9698 174.171 27.8998C170.921 27.8298 168.251 30.4398 168.221 33.6798V33.9498C168.221 37.2298 170.861 39.8998 174.141 39.8998C177.421 39.8998 180.061 37.2598 180.091 33.9798M168.361 41.5198H166.431V20.7698H168.361V29.1198C169.781 27.2598 172.011 26.1398 174.381 26.1798C178.741 26.3198 182.161 29.9298 182.021 34.2898C181.881 38.4798 178.501 41.8598 174.311 41.9298C171.911 41.9298 169.681 40.7498 168.361 38.7898V41.5298V41.5198ZM186.821 34.0098C186.791 37.3198 189.391 40.0298 192.701 40.0998C196.051 40.1998 198.851 37.5598 198.921 34.2198C199.021 30.8698 196.381 28.0698 193.041 27.9998C189.691 27.8998 186.891 30.5398 186.821 33.8798V34.0198M198.551 26.5498H200.441V41.5298H198.551V38.9598C197.101 40.8198 194.861 41.8998 192.501 41.8998C188.171 41.7598 184.721 38.1498 184.861 33.7898C185.001 29.5998 188.381 26.2498 192.571 26.1498C194.971 26.1198 197.201 27.2998 198.551 29.2898V26.5498ZM206.701 29.2198C208.261 27.1898 210.111 26.1398 212.311 26.1398C215.591 26.1398 217.851 28.4098 217.851 33.0998V41.5198H215.921V33.3698C215.921 29.8498 214.801 27.8898 211.901 27.8898C210.341 27.8898 208.861 28.6298 207.941 29.9198C206.821 31.3698 206.661 32.8598 206.661 35.2298V41.5198H204.731V26.5398H206.661L206.691 29.2098L206.701 29.2198Z" fill="#132F3F"/>
<path d="M63.2217 50.0095C62.8117 50.4195 62.4417 50.7495 62.0717 51.0895L61.7017 51.3895C61.4017 51.6295 61.0917 51.8995 60.7917 52.1295L60.4517 52.3995C60.0417 52.6995 59.6417 52.9695 59.2317 53.2495L58.8917 53.4495C58.5517 53.6495 58.2517 53.8595 57.8817 54.0595L57.4717 54.2995C57.0617 54.4995 56.6617 54.7395 56.2517 54.9095L56.1517 54.9795C55.6817 55.1795 55.2417 55.3895 54.7617 55.5895L54.4217 55.7295C54.0517 55.8695 53.6417 55.9995 53.2417 56.1395L52.9417 56.2395C52.4717 56.3795 51.9617 56.5095 51.4517 56.6495C51.4217 56.6495 51.3817 56.6795 51.3117 56.6795C50.8717 56.7795 50.4017 56.8795 49.9617 56.9495L49.6217 57.0195L48.2017 57.2195H48.1017L46.5817 57.3195H44.6517C44.1417 57.3195 43.7017 57.2895 43.2017 57.2195L42.8617 57.1895C42.2917 57.1195 41.7417 57.0495 41.1717 56.9495L40.3917 56.7795C39.9517 56.6795 39.4817 56.5795 39.0417 56.4395L38.5317 56.2995L38.2617 56.1995L44.9217 49.5695C54.3217 49.9395 62.2617 42.6095 62.6017 33.2095C62.7417 29.7995 61.8617 26.4495 60.0317 23.5395L55.8417 27.7295V37.9695H48.8117V23.8395L60.1417 12.4495C61.1917 13.2295 62.1717 14.0395 63.1217 14.9495C72.8917 24.6195 72.8917 40.3095 63.2217 50.0095ZM27.9617 50.0795C18.2917 40.3795 18.2917 24.6895 27.9617 15.0195L27.9917 14.9895C28.3617 14.6195 28.7317 14.2795 29.1117 13.9395L29.4817 13.6395C29.7817 13.3995 30.0917 13.1295 30.3617 12.8995L30.7017 12.6295C31.1117 12.3295 31.5117 12.0595 31.9217 11.7795L32.2617 11.5795C32.6017 11.3795 32.9017 11.1695 33.2717 10.9695L33.6817 10.7295C34.0917 10.5295 34.4917 10.2895 34.9017 10.1195L35.0017 10.0495C35.4717 9.84945 35.9117 9.63945 36.3917 9.43945L36.7317 9.29945C37.1017 9.15945 37.5117 9.02945 37.9117 8.88945L38.2117 8.78945C38.6817 8.64945 39.1917 8.51945 39.7017 8.37945H39.8417C40.2817 8.27945 40.7517 8.17945 41.1917 8.10945L41.5317 8.03945L42.9517 7.83945H43.0517L44.5717 7.73945H46.5017C47.0117 7.73945 47.4517 7.76945 47.9517 7.83945L48.2917 7.86945C48.6617 7.89945 49.0017 7.96945 49.3717 8.00945L49.9817 8.10945C50.2517 8.13945 50.4917 8.20945 50.7617 8.27945C51.2017 8.37945 51.6717 8.47945 52.1117 8.61945L52.6217 8.75945L52.8917 8.85945L46.2317 15.4895C36.8317 15.1195 28.8917 22.4195 28.5117 31.8495C28.3417 35.2995 29.2217 38.6795 31.0517 41.5495L35.2417 37.3595V27.1195H42.2717V41.2495L30.9417 52.6395C29.8917 51.8595 28.8817 51.0195 27.9617 50.0695M45.5717 1.93945C28.6717 1.93945 15.0117 15.6295 15.0117 32.4995C15.0117 49.3695 28.7017 63.0595 45.5717 63.0595C62.4417 63.0595 76.1317 49.3695 76.1317 32.4995C76.1617 15.6295 62.4717 1.93945 45.5717 1.93945Z" fill="#DD6048"/>
</g>
</g>
<defs>
<clipPath id="clip0_2318_19939">
<rect width="230" height="65" fill="white"/>
</clipPath>
</defs>
</svg>
