<svg width="230" height="65" viewBox="0 0 230 65" fill="none" xmlns="http://www.w3.org/2000/svg">
<g clip-path="url(#clip0_2318_19970)">
<mask id="mask0_2318_19970" style="mask-type:luminance" maskUnits="userSpaceOnUse" x="0" y="0" width="230" height="65">
<path d="M230 0H0V65H230V0Z" fill="white"/>
</mask>
<g mask="url(#mask0_2318_19970)">
<path d="M2.05859 31.3893C2.05859 21.1793 6.50859 16.0293 13.5386 16.0293C18.3986 16.0293 22.0786 18.3993 23.0986 23.7493L23.2586 24.6093L19.0886 25.5093L18.9286 24.7393C18.1486 21.1493 16.1486 19.7593 13.4586 19.7593C9.65859 19.7593 6.63859 23.0693 6.63859 31.1093C6.63859 38.7093 9.37859 41.8893 13.2186 41.8893C15.9586 41.8893 19.1386 40.4593 19.1386 35.4393V34.5793H13.1386V31.0293H23.3086V45.1193H19.6686L19.4186 41.6493C18.0686 44.4693 15.4186 45.6093 12.3086 45.6093C6.09859 45.6093 2.05859 40.6593 2.05859 31.3893Z" fill="black"/>
<path d="M38.9778 43.1495C37.7078 44.4995 36.0378 45.5595 33.3378 45.5995C29.4978 45.5995 27.0078 43.0295 27.0078 39.7195C27.0078 36.1295 29.9878 34.3695 32.6078 33.6295L38.9378 31.8295V31.0895C38.9378 28.7995 37.5078 27.6595 35.2578 27.6595C33.1778 27.6595 31.4978 28.9695 30.7678 30.4395L30.6478 30.6895L27.4178 28.9695L27.6278 28.5595C28.5278 26.7195 31.0178 24.1895 35.6278 24.1895C40.2378 24.1895 43.1878 26.5195 43.1878 30.7195V41.4595C43.1878 42.4795 43.2278 43.8295 43.4378 44.7295L43.5178 45.0995H39.2678L39.2278 44.8895C39.1078 44.3195 39.0178 43.7495 38.9778 43.1395V43.1495ZM34.4478 42.3695C36.3278 42.3695 37.9978 41.2695 38.9378 40.0795V34.9295L34.5278 36.2795C32.8578 36.8095 31.3778 37.6695 31.3778 39.4295C31.3778 41.1895 32.5678 42.3695 34.4378 42.3695H34.4478Z" fill="black"/>
<path d="M67.8497 27.8792C66.1797 27.8792 64.4197 29.0192 63.4397 29.9992V45.1092H59.1897V31.0192C59.1897 28.9392 58.1297 27.8692 56.0897 27.8692C54.4197 27.8692 52.6597 29.0092 51.6797 29.9892V45.0992H47.4297V24.6892H51.4697V26.9392C53.0197 25.3092 55.2297 24.1992 57.5097 24.1992C60.3697 24.1992 62.0797 25.5092 62.8997 27.2992C64.4497 25.4592 66.8197 24.1992 69.2697 24.1992C73.4797 24.1992 75.1897 27.0192 75.1897 30.0792V45.1092H70.9397V31.0192C70.9397 28.9392 69.8797 27.8692 67.8397 27.8692L67.8497 27.8792Z" fill="black"/>
<path d="M83.8984 43.2295L83.4884 45.1095H79.8984V16.5195H84.1484V26.3595C85.3784 24.9695 87.2484 24.1895 89.2084 24.1895C93.8684 24.1895 97.0084 27.6595 97.0084 34.6095C97.0084 41.5595 93.6984 45.5995 89.0484 45.5995C86.9684 45.5995 85.0484 44.7395 83.8984 43.2295ZM88.2284 42.1695C90.6384 42.1695 92.6784 39.9595 92.6784 34.7395C92.6784 29.5195 90.5584 27.6695 88.1484 27.6695C86.5184 27.6695 85.1684 28.4895 84.1484 29.5495V40.2095C85.2084 41.3095 86.5984 42.1695 88.2284 42.1695Z" fill="black"/>
<path d="M100.52 16.5195H104.77V45.1095H100.52V16.5195Z" fill="black"/>
<path d="M108.527 35.1892C108.527 28.7392 111.757 24.1992 117.387 24.1992C121.347 24.1992 125.517 26.5692 125.517 33.9192V35.8392H112.697V36.0892C112.697 40.0492 114.777 42.2592 117.557 42.2592C119.357 42.2592 120.867 41.5192 121.887 39.6892L122.137 39.2392L125.487 40.6692L125.287 41.0792C123.777 44.0992 121.077 45.6092 117.447 45.6092C112.297 45.6092 108.547 41.9692 108.547 35.1892H108.527ZM121.517 33.0292V32.7392C121.517 29.0192 119.557 27.6292 117.397 27.6292C115.237 27.6292 113.107 29.2592 112.737 33.0192H121.517V33.0292Z" fill="black"/>
<path d="M136.788 16.5195H142.958L151.048 45.1095H146.518L144.518 37.5995H135.048L133.048 45.1095H128.758L136.808 16.5195H136.788ZM143.528 34.0795L139.768 20.0295L136.008 34.0795H143.518H143.528Z" fill="#EF681C"/>
<path d="M149.979 24.6895H154.229L157.579 39.2695L161.299 24.6895H165.299L168.939 39.2695L172.409 24.6895H176.289L171.019 45.1095H166.809L163.129 30.5695L159.409 45.1095H155.239L149.969 24.6895H149.979Z" fill="#EF681C"/>
<path d="M188.81 43.1495C187.54 44.4995 185.87 45.5595 183.17 45.5995C179.33 45.5995 176.84 43.0295 176.84 39.7195C176.84 36.1295 179.82 34.3695 182.44 33.6295L188.77 31.8295V31.0895C188.77 28.7995 187.34 27.6595 185.09 27.6595C183.01 27.6595 181.33 28.9695 180.6 30.4395L180.48 30.6895L177.25 28.9695L177.46 28.5595C178.36 26.7195 180.85 24.1895 185.46 24.1895C190.07 24.1895 193.02 26.5195 193.02 30.7195V41.4595C193.02 42.4795 193.06 43.8295 193.27 44.7295L193.35 45.0995H189.1L189.06 44.8895C188.94 44.3195 188.86 43.7495 188.81 43.1395V43.1495ZM184.28 42.3695C186.16 42.3695 187.83 41.2695 188.77 40.0795V34.9295L184.36 36.2795C182.68 36.8095 181.21 37.6695 181.21 39.4295C181.21 41.1895 182.4 42.3695 184.27 42.3695H184.28Z" fill="#EF681C"/>
<path d="M197.148 24.6884H201.108V28.5284C203.808 25.3784 206.218 24.4484 208.258 24.3984V28.3584C205.398 28.3584 203.148 29.9484 201.398 31.5484V45.1084H197.148V24.6884Z" fill="#EF681C"/>
<path d="M208.699 35.1892C208.699 28.7392 211.929 24.1992 217.559 24.1992C221.519 24.1992 225.689 26.5692 225.689 33.9192V35.8392H212.869V36.0892C212.869 40.0492 214.949 42.2592 217.729 42.2592C219.529 42.2592 221.039 41.5192 222.059 39.6892L222.309 39.2392L225.659 40.6692L225.459 41.0792C223.949 44.0992 221.249 45.6092 217.619 45.6092C212.469 45.6092 208.719 41.9692 208.719 35.1892H208.699ZM221.689 33.0292V32.7392C221.689 29.0192 219.729 27.6292 217.559 27.6292C215.389 27.6292 213.269 29.2592 212.899 33.0192H221.679L221.689 33.0292Z" fill="#EF681C"/>
</g>
</g>
<defs>
<clipPath id="clip0_2318_19970">
<rect width="230" height="65" fill="white"/>
</clipPath>
</defs>
</svg>
