<svg width="230" height="65" viewBox="0 0 230 65" fill="none" xmlns="http://www.w3.org/2000/svg">
<g clip-path="url(#clip0_2318_19994)">
<mask id="mask0_2318_19994" style="mask-type:luminance" maskUnits="userSpaceOnUse" x="5" y="1" width="220" height="63">
<path d="M224.57 1.18945H5.42969V63.7995H224.57V1.18945Z" fill="white"/>
</mask>
<g mask="url(#mask0_2318_19994)">
<path d="M89.3895 17.2103C89.2995 17.4003 89.1395 17.5403 88.9395 17.5903L84.7895 18.8203C84.2795 18.9703 84.0195 18.8203 83.8095 18.3103C83.3195 16.2303 81.3595 14.8303 79.2295 15.0403C75.3295 15.0403 73.9895 17.3503 73.9895 20.4703V27.6303C73.9895 30.7403 75.3095 33.0603 79.2295 33.0603C82.4595 33.0603 84.1095 31.5603 84.1095 28.2903V27.3103H79.8895C79.5895 27.3303 79.3295 27.1203 79.3095 26.8203C79.3095 26.7803 79.3095 26.7403 79.3095 26.6903V22.8103C79.2695 22.5103 79.4795 22.2403 79.7795 22.2003C79.8095 22.2003 79.8495 22.2003 79.8795 22.2003H89.2695C89.5595 22.1603 89.8395 22.3603 89.8795 22.6503C89.8795 22.6903 89.8795 22.7303 89.8795 22.7803V28.7003C89.8795 34.3603 85.7195 38.6303 79.2595 38.6303C71.5995 38.6303 68.0195 34.0903 68.0195 27.8903V20.3203C68.0195 14.0803 71.5995 9.58031 79.2595 9.58031C85.4595 9.58031 88.2595 13.1103 89.3795 16.6603M110.46 23.7003V37.5903C110.48 37.8903 110.25 38.1503 109.94 38.1703C109.92 38.1703 109.9 38.1703 109.88 38.1703H105.64C105.33 38.2003 105.06 37.9803 105.03 37.6803C105.03 37.6503 105.03 37.6303 105.03 37.6003V35.3303C103.81 37.3903 101.57 38.6403 99.1695 38.6003C95.1695 38.6003 92.5795 36.0203 92.5795 32.0603C92.5795 28.1003 95.0095 25.9003 100.93 25.4803C102.21 25.3803 103.5 25.3803 104.78 25.4803V23.9003C104.78 21.8203 103.7 20.9703 101.85 20.9703C100.52 20.7803 99.2595 21.6203 98.9195 22.9303C98.7195 23.3903 98.5795 23.4703 98.1495 23.3503L93.9095 22.2703C93.4895 22.1503 93.4495 21.9203 93.5295 21.6203C94.1095 18.5703 96.9995 16.3403 102.07 16.3403C107.42 16.3403 110.42 18.8803 110.42 23.6603M104.76 30.9303V28.9903C103.63 28.9503 102.5 28.9903 101.37 29.1103C99.2195 29.3703 98.0595 30.0303 98.0595 31.6903C98.0595 33.1803 99.0395 33.9903 100.72 33.9903C102.59 34.0303 104.25 32.8003 104.76 30.9903M125.73 16.4003C128.17 16.3603 130.33 17.9603 131 20.3003C132.58 17.9903 134.5 16.4003 137.2 16.4003C140.93 16.4003 143.06 19.3303 143.06 23.7903V37.6203C143.04 37.9603 142.74 38.2203 142.39 38.2003H137.95C137.61 38.2403 137.3 37.9903 137.26 37.6503V24.8103C137.26 22.8503 136.41 21.7303 134.91 21.7303C133.41 21.7303 132.18 23.0503 131.6 25.0503V37.6303C131.62 37.9303 131.4 38.1803 131.1 38.2003C131.09 38.2003 131.07 38.2003 131.06 38.2003H126.27C125.93 38.2003 125.77 37.9703 125.77 37.6203V24.8003C125.77 22.8403 124.92 21.7203 123.42 21.7203C121.92 21.7203 120.65 23.1103 120.11 25.0803V37.6203C120.14 37.9103 119.93 38.1703 119.64 38.2003C119.61 38.2003 119.57 38.2003 119.54 38.2003H114.84C114.55 38.2303 114.29 38.0203 114.26 37.7303C114.26 37.7003 114.26 37.6603 114.26 37.6303V17.3903C114.26 17.0903 114.5 16.8503 114.8 16.8503C114.81 16.8503 114.83 16.8503 114.84 16.8503H119.34C119.63 16.8203 119.89 17.0403 119.91 17.3303C119.91 17.3503 119.91 17.3703 119.91 17.3903V19.8103C121.17 17.7603 123.37 16.4803 125.77 16.3903M167.26 16.8603C167.38 17.3603 167.26 17.7403 166.76 17.8403L162.68 19.0303C162.36 19.1803 161.97 19.0503 161.82 18.7303C161.79 18.6703 161.77 18.6003 161.76 18.5303C161.17 16.5703 160.18 15.0603 157.33 15.0603C153.83 15.0603 152.71 17.3703 152.71 20.4903V27.6503C152.71 30.7603 153.98 33.0803 157.33 33.0803C160.34 33.0803 161.49 31.3803 161.95 29.2603C161.98 28.9103 162.29 28.6603 162.64 28.6903C162.72 28.6903 162.8 28.7203 162.87 28.7603L166.96 30.0903C167.36 30.2103 167.59 30.6203 167.47 31.0203C167.47 31.0403 167.47 31.0503 167.45 31.0703C166.47 35.2303 163.49 38.6003 157.25 38.6003C150.25 38.6003 146.71 34.0603 146.71 27.8603V20.3103C146.71 14.0703 150.32 9.57031 157.25 9.57031C163.33 9.57031 166.18 12.8003 167.25 16.8803M187.72 23.7003V37.5903C187.74 37.8903 187.51 38.1503 187.2 38.1703C187.18 38.1703 187.16 38.1703 187.14 38.1703H182.9C182.59 38.2003 182.32 37.9803 182.29 37.6803C182.29 37.6503 182.29 37.6303 182.29 37.6003V35.3203C181.07 37.3803 178.83 38.6303 176.43 38.5903C172.43 38.5903 169.85 36.0103 169.85 32.0503C169.85 28.0903 172.27 25.8903 178.19 25.4703C179.47 25.3703 180.76 25.3703 182.05 25.4703V23.8903C182.05 21.8103 180.97 20.9603 179.12 20.9603C177.79 20.7803 176.54 21.6203 176.19 22.9203C176 23.3803 175.85 23.4603 175.42 23.3403L171.19 22.2603C170.76 22.1403 170.72 21.9103 170.8 21.6103C171.38 18.5603 174.27 16.3303 179.35 16.3303C184.7 16.3303 187.69 18.8703 187.69 23.6503M182.04 30.9203V28.9803C180.91 28.9403 179.78 28.9803 178.65 29.1003C176.5 29.3603 175.34 30.0203 175.34 31.6803C175.34 33.1703 176.32 33.9803 178 33.9803C179.87 34.0203 181.53 32.7803 182.04 30.9803M204.19 17.2403V21.3603C204.19 21.8603 203.99 22.0503 203.5 22.0503H202.88C199.81 22.0503 198 23.4403 197.38 25.7503V37.6003C197.4 37.9003 197.18 38.1503 196.88 38.1803H191.99C191.69 38.1703 191.47 37.9103 191.48 37.6203V17.3903C191.47 17.1003 191.69 16.8603 191.97 16.8503C192 16.8503 192.02 16.8503 192.05 16.8503H196.44C196.9 16.8503 197.02 17.1503 197.02 17.4703V20.3203C198.17 17.9403 200.62 16.4703 203.26 16.5503C204.03 16.5503 204.24 16.6703 204.24 17.2003M211.75 29.2303V30.0403C211.75 32.2803 212.91 33.8503 215.65 33.8503C218.39 33.8503 219.04 32.8703 219.73 31.5903C220.07 31.0103 220.23 30.9403 220.84 31.2003L223.87 32.7403C224.5 33.0503 224.53 33.3603 224.26 33.9303C222.95 36.8603 219.68 38.5903 215.6 38.5903C209.44 38.5903 206.21 34.9403 206.21 29.9303V25.0503C206.21 20.1703 209.24 16.3803 215.56 16.3803C221.88 16.3803 224.49 20.2003 224.49 24.9303V28.3203C224.49 28.9003 224.29 29.3003 223.51 29.3003L211.74 29.2403L211.75 29.2303ZM211.75 24.7303V25.4603H219.18V24.7303C219.35 22.8603 217.98 21.2103 216.11 21.0303C215.9 21.0103 215.69 21.0103 215.49 21.0303C213.6 20.8603 211.93 22.2503 211.76 24.1403C211.74 24.3403 211.74 24.5303 211.76 24.7303" fill="black"/>
<path d="M32.0497 1.18945H6.21969C5.78969 1.18945 5.42969 1.52945 5.42969 1.95945V39.5295C5.42969 52.9295 16.2997 63.7895 29.6997 63.7895H32.0397C45.4397 63.7895 56.2997 52.9295 56.2997 39.5295V25.4495C56.2997 12.0495 45.4397 1.18945 32.0397 1.18945M48.5097 39.9395C48.5097 49.0795 41.7997 55.9795 31.3597 55.9795C18.9897 55.9795 13.2197 48.6395 13.2197 38.6295V26.3995C13.2197 16.3195 18.9997 8.99945 31.3497 8.99945C41.3497 8.99945 45.8897 14.7195 47.6997 20.4395C47.9697 21.0195 47.7097 21.7095 47.1297 21.9795C47.0797 21.9995 47.0197 22.0195 46.9697 22.0395L40.2497 23.9995C39.4497 24.2395 39.0097 23.9995 38.7697 23.1895C37.7097 19.7695 35.4697 17.9095 31.3697 17.9095C25.0297 17.9095 22.9197 21.6395 22.9197 26.6895V38.2695C22.9197 43.3095 25.0297 47.0495 31.3697 47.0495C36.5897 47.0495 39.3197 44.6195 39.3197 39.3395V37.8295H32.3197C31.8397 37.8895 31.4097 37.5595 31.3397 37.0895C31.3297 37.0095 31.3297 36.9295 31.3397 36.8495V30.4395C31.2997 29.9395 31.6697 29.4995 32.1697 29.4595C32.2197 29.4595 32.2697 29.4595 32.3197 29.4595H47.5197C47.9997 29.3995 48.4297 29.7295 48.4897 30.2095C48.4897 30.2695 48.4897 30.3295 48.4897 30.3895L48.5097 39.9495V39.9395Z" fill="#2E008B"/>
<path d="M73.7697 46.469C73.8097 46.539 73.7897 46.629 73.7197 46.669C73.7097 46.669 73.6997 46.679 73.6897 46.679L73.0097 46.889C72.8997 46.889 72.8397 46.889 72.7997 46.799C72.5997 46.019 71.8597 45.489 71.0497 45.559C70.0997 45.429 69.2197 46.099 69.0897 47.049C69.0697 47.209 69.0697 47.359 69.0897 47.519V50.109C68.9597 51.059 69.6297 51.939 70.5797 52.069C70.7397 52.089 70.8897 52.089 71.0497 52.069C72.1497 52.069 72.8797 51.559 72.8797 50.419V49.439H71.2797C71.1897 49.439 71.1397 49.439 71.1397 49.289V48.749C71.1397 48.649 71.1397 48.599 71.2797 48.599H73.7597C73.8297 48.589 73.8997 48.639 73.9197 48.719C73.9197 48.729 73.9197 48.739 73.9197 48.749V50.549C73.9297 51.979 72.7897 53.149 71.3597 53.159C71.2597 53.159 71.1597 53.159 71.0597 53.149C69.5797 53.319 68.2397 52.269 68.0697 50.789C68.0497 50.599 68.0497 50.409 68.0697 50.219V47.479C67.9297 45.999 69.0197 44.679 70.4997 44.549C70.6897 44.529 70.8797 44.529 71.0697 44.549C72.3197 44.449 73.4597 45.239 73.7997 46.439M79.0697 51.109V50.129C78.6097 50.099 78.1497 50.099 77.6797 50.129C76.8197 50.229 76.2997 50.529 76.2997 51.239C76.2597 51.779 76.6597 52.249 77.1997 52.289C77.2797 52.289 77.3697 52.289 77.4497 52.279C78.1797 52.279 78.8197 51.809 79.0597 51.109M80.0397 48.609V52.879C80.0397 52.969 80.0397 53.009 79.8897 53.009H79.2097C79.1097 53.009 79.0597 53.009 79.0597 52.879V52.069C78.6797 52.719 77.9797 53.109 77.2297 53.109C76.2497 53.209 75.3797 52.499 75.2797 51.519C75.2797 51.439 75.2697 51.359 75.2797 51.279C75.2797 50.139 76.0497 49.509 77.5497 49.399C78.0397 49.369 78.5297 49.369 79.0197 49.399V48.679C79.0197 47.859 78.5397 47.519 77.7697 47.519C77.1997 47.429 76.6497 47.779 76.5097 48.339C76.5097 48.449 76.4297 48.459 76.3097 48.439L75.6497 48.249C75.5397 48.249 75.5097 48.169 75.5397 48.079C75.7397 47.219 76.5197 46.659 77.7897 46.659C79.0597 46.659 80.0197 47.289 80.0197 48.619M84.5097 46.649C85.2097 46.639 85.8197 47.099 85.9997 47.769C86.3697 47.099 87.0597 46.679 87.8197 46.649C88.7497 46.649 89.4997 47.419 89.4897 48.349C89.4897 48.419 89.4897 48.479 89.4797 48.549V52.849C89.4797 52.949 89.4197 52.989 89.3197 52.989H88.6497C88.5397 52.989 88.4897 52.989 88.4897 52.849V48.739C88.4897 47.979 88.1497 47.569 87.5097 47.569C86.8597 47.639 86.3197 48.109 86.1497 48.739V52.869C86.1497 52.969 86.1497 53.009 86.0097 53.009H85.2597C85.1497 53.009 85.1197 53.009 85.1197 52.869V48.739C85.1197 47.979 84.7897 47.569 84.1397 47.569C83.4997 47.659 82.9697 48.119 82.7797 48.739V52.819C82.7797 52.919 82.7797 52.959 82.6397 52.959H81.8997C81.7897 52.959 81.7597 52.959 81.7597 52.819V46.889C81.7597 46.809 81.7597 46.759 81.8997 46.759H82.6197C82.7297 46.759 82.7597 46.809 82.7597 46.889V47.709C83.1197 47.079 83.7697 46.679 84.4997 46.649M92.2497 49.179V50.619C92.1897 51.429 92.8097 52.129 93.6197 52.189C93.6797 52.189 93.7397 52.189 93.7997 52.189C94.6997 52.189 95.2397 51.659 95.2397 50.619V49.169C95.2397 48.129 94.6997 47.579 93.7997 47.579C92.9797 47.559 92.2897 48.209 92.2697 49.039C92.2697 49.089 92.2697 49.129 92.2697 49.179M92.2697 44.509V47.619C92.6597 46.989 93.3597 46.609 94.1097 46.639C95.2897 46.619 96.2497 47.559 96.2697 48.729C96.2697 48.819 96.2697 48.919 96.2597 49.009V50.739C96.3897 51.909 95.5497 52.959 94.3797 53.089C94.2797 53.099 94.1797 53.109 94.0697 53.099C93.3297 53.119 92.6397 52.749 92.2497 52.119V52.839C92.2497 52.929 92.1797 52.959 92.1097 52.959H91.3897C91.2997 52.959 91.2497 52.959 91.2497 52.839V44.499C91.2497 44.439 91.2897 44.379 91.3597 44.369C91.3597 44.369 91.3697 44.369 91.3797 44.369H92.1497C92.2397 44.369 92.2697 44.369 92.2697 44.499M98.8697 44.499V52.839C98.8697 52.939 98.8697 52.979 98.7297 52.979H97.9897C97.8697 52.979 97.8397 52.979 97.8397 52.839V44.499C97.8397 44.409 97.8397 44.359 97.9897 44.359H98.7297C98.7897 44.349 98.8597 44.389 98.8697 44.449C98.8697 44.459 98.8697 44.479 98.8697 44.489M101.61 46.879V52.849C101.61 52.939 101.61 52.979 101.48 52.979H100.74C100.62 52.979 100.59 52.979 100.59 52.849V46.879C100.59 46.789 100.59 46.749 100.74 46.749H101.48C101.58 46.749 101.61 46.749 101.61 46.879ZM101.61 44.529V45.619C101.61 45.729 101.61 45.789 101.44 45.789H100.76C100.68 45.799 100.61 45.749 100.59 45.669C100.59 45.659 100.59 45.639 100.59 45.629V44.539C100.58 44.459 100.63 44.389 100.71 44.369C100.72 44.369 100.74 44.369 100.75 44.369H101.43C101.56 44.369 101.6 44.429 101.6 44.539M104.38 48.789V52.859C104.38 52.949 104.38 52.989 104.25 52.989H103.55C103.43 52.989 103.4 52.989 103.4 52.859V46.889C103.4 46.809 103.4 46.759 103.54 46.759H104.26C104.37 46.759 104.4 46.809 104.4 46.889V47.709C104.83 47.049 105.57 46.649 106.36 46.649C107.35 46.619 108.18 47.409 108.2 48.399C108.2 48.499 108.2 48.609 108.18 48.709V52.869C108.18 52.959 108.18 52.999 108.03 52.999H107.29C107.19 52.999 107.14 52.999 107.14 52.869V48.869C107.14 48.069 106.78 47.599 106 47.599C105.28 47.639 104.66 48.119 104.43 48.799M110.58 48.899C110.52 49.589 111.03 50.189 111.72 50.249C111.81 50.249 111.89 50.249 111.98 50.249C112.63 50.339 113.23 49.879 113.32 49.219C113.33 49.119 113.33 49.029 113.32 48.929C113.37 48.179 112.81 47.519 112.05 47.469C111.29 47.419 110.64 47.979 110.59 48.739C110.59 48.799 110.59 48.869 110.59 48.929M113.86 53.619C113.86 53.169 113.61 52.749 112.69 52.749H111.55C110.69 52.749 110.43 53.189 110.43 53.639C110.43 54.259 110.92 54.679 112.12 54.679C113.32 54.679 113.87 54.249 113.87 53.629M114.85 53.559C114.85 54.539 114.09 55.419 112.07 55.419C110.21 55.419 109.47 54.719 109.47 53.739C109.47 53.129 109.87 52.589 110.45 52.389C110.19 52.209 110.03 51.919 110.01 51.599C110.02 51.209 110.27 50.859 110.64 50.719C110.01 50.359 109.63 49.669 109.66 48.939C109.6 47.809 110.48 46.839 111.61 46.789C111.73 46.789 111.86 46.789 111.98 46.809H114.7C114.78 46.809 114.82 46.859 114.82 46.949V47.509C114.82 47.619 114.76 47.659 114.68 47.659H113.6C114.03 48.009 114.26 48.539 114.23 49.099C114.23 50.249 113.46 51.059 111.98 51.059H111.47C111.04 51.059 110.85 51.259 110.85 51.489C110.85 51.719 111.05 51.919 111.47 51.919H112.81C114.28 51.919 114.85 52.649 114.85 53.559ZM124.16 46.339C124.19 46.399 124.16 46.479 124.11 46.509C124.09 46.509 124.08 46.519 124.06 46.519L123.43 46.759C123.35 46.789 123.26 46.759 123.23 46.669C123.01 45.969 122.34 45.519 121.62 45.569C120.64 45.569 120.09 46.029 120.09 46.779C120.09 47.529 120.5 47.759 122.05 48.379C123.6 48.999 124.26 49.669 124.26 50.829C124.23 52.159 123.12 53.199 121.8 53.169C121.73 53.169 121.65 53.169 121.58 53.149C120.33 53.279 119.17 52.469 118.85 51.259C118.85 51.139 118.85 51.089 118.95 51.059L119.61 50.849C119.74 50.849 119.79 50.849 119.82 50.969C120.02 51.769 120.77 52.289 121.59 52.199C122.57 52.199 123.2 51.709 123.2 50.919C123.2 50.129 122.83 49.839 121.41 49.299C119.71 48.629 119.07 47.959 119.07 46.809C119.12 45.539 120.19 44.549 121.46 44.599C121.53 44.599 121.59 44.599 121.66 44.619C122.81 44.539 123.87 45.249 124.23 46.349M125.78 51.119V46.949C125.78 46.859 125.83 46.809 125.93 46.809H126.67C126.77 46.809 126.82 46.859 126.82 46.949V50.939C126.82 51.749 127.18 52.219 127.95 52.219C128.67 52.179 129.3 51.699 129.52 51.009V46.949C129.52 46.859 129.52 46.809 129.67 46.809H130.4C130.52 46.809 130.55 46.859 130.55 46.949V52.909C130.55 52.999 130.55 53.049 130.41 53.049H129.69C129.63 53.059 129.56 53.019 129.55 52.959C129.55 52.949 129.55 52.929 129.55 52.919V52.109C129.12 52.779 128.39 53.179 127.59 53.189C126.59 53.209 125.77 52.419 125.75 51.419C125.75 51.319 125.75 51.229 125.77 51.129M136.27 50.679V49.189C136.39 48.449 135.88 47.749 135.14 47.639C135.04 47.619 134.94 47.619 134.83 47.629C134.02 47.609 133.34 48.249 133.31 49.059C133.31 49.109 133.31 49.149 133.31 49.199V50.669C133.25 51.489 133.86 52.199 134.68 52.259C134.73 52.259 134.78 52.259 134.83 52.259C135.73 52.259 136.27 51.709 136.27 50.679ZM132.42 55.339C132.36 55.339 132.3 55.299 132.29 55.229C132.29 55.229 132.29 55.219 132.29 55.209V46.959C132.29 46.869 132.34 46.829 132.43 46.829H133.15C133.21 46.819 133.27 46.859 133.29 46.929C133.29 46.939 133.29 46.949 133.29 46.959V47.659C133.68 47.039 134.37 46.669 135.11 46.679C136.28 46.639 137.27 47.559 137.31 48.739C137.31 48.839 137.31 48.929 137.3 49.029V50.779C137.43 51.949 136.58 53.009 135.41 53.139C135.32 53.139 135.24 53.149 135.15 53.149C134.41 53.189 133.71 52.809 133.32 52.169V55.159C133.32 55.219 133.28 55.279 133.21 55.289C133.21 55.289 133.2 55.289 133.19 55.289L132.42 55.339ZM142.87 50.689V49.199C142.99 48.459 142.48 47.759 141.74 47.649C141.64 47.629 141.54 47.629 141.43 47.639C140.62 47.619 139.94 48.259 139.91 49.069C139.91 49.119 139.91 49.159 139.91 49.209V50.679C139.85 51.499 140.46 52.209 141.28 52.269C141.33 52.269 141.37 52.269 141.42 52.269C142.32 52.269 142.86 51.719 142.86 50.689M139.01 55.349C138.95 55.349 138.89 55.309 138.88 55.239C138.88 55.239 138.88 55.229 138.88 55.219V46.969C138.88 46.879 138.93 46.839 139.02 46.839H139.74C139.8 46.829 139.86 46.869 139.88 46.939C139.88 46.949 139.88 46.959 139.88 46.969V47.669C140.27 47.049 140.96 46.679 141.7 46.689C142.87 46.649 143.86 47.559 143.91 48.739C143.91 48.839 143.91 48.939 143.9 49.039V50.789C144.03 51.959 143.18 53.019 142.01 53.149C141.92 53.149 141.84 53.159 141.75 53.159C141.01 53.189 140.31 52.819 139.92 52.179V55.169C139.92 55.229 139.88 55.289 139.81 55.299C139.81 55.299 139.8 55.299 139.79 55.299L139.01 55.349ZM146.37 49.199V50.779C146.37 51.599 147.04 52.269 147.86 52.269C148.68 52.269 149.35 51.599 149.35 50.779V49.199C149.35 48.379 148.68 47.709 147.86 47.709C147.04 47.709 146.37 48.379 146.37 49.199ZM150.38 49.149V50.779C150.38 52.169 149.25 53.299 147.86 53.289C146.47 53.289 145.35 52.159 145.35 50.779V49.179C145.35 47.789 146.48 46.659 147.87 46.669C149.26 46.669 150.38 47.799 150.38 49.179M155.06 46.879V47.569C155.06 47.679 155.06 47.719 154.9 47.719H154.77C153.97 47.689 153.24 48.199 152.99 48.959V52.929C152.99 53.019 152.93 53.049 152.86 53.049H152.09C152.03 53.049 151.98 53.009 151.97 52.949C151.97 52.949 151.97 52.939 151.97 52.929V46.989C151.97 46.889 151.97 46.859 152.11 46.859H152.81C152.91 46.859 152.96 46.909 152.96 46.999V47.979C153.33 47.239 154.09 46.789 154.92 46.819C155.07 46.819 155.11 46.819 155.11 46.969M158.04 45.399V46.889H159.37C159.47 46.889 159.51 46.939 159.51 47.049V47.609C159.51 47.719 159.51 47.759 159.37 47.759H158.04V51.359C158.04 51.919 158.34 52.169 158.91 52.169H159.36C159.46 52.169 159.51 52.169 159.51 52.309V52.939C159.51 53.049 159.51 53.089 159.36 53.089H158.76C157.93 53.209 157.17 52.639 157.05 51.809C157.04 51.709 157.03 51.609 157.04 51.509V47.769H156.19C156.11 47.769 156.06 47.769 156.06 47.619V47.059C156.06 46.949 156.11 46.899 156.19 46.899H157.05V45.399C157.05 45.319 157.05 45.269 157.2 45.269H157.9C158.02 45.269 158.05 45.269 158.05 45.399M169.23 46.459C169.23 46.579 169.23 46.669 169.06 46.709L167.97 47.109C167.87 47.159 167.75 47.119 167.69 47.019C167.69 47.009 167.68 46.989 167.67 46.979C167.48 46.469 166.97 46.149 166.43 46.209C165.76 46.209 165.32 46.529 165.32 47.019C165.32 47.509 165.66 47.709 167.18 48.239C168.7 48.769 169.31 49.489 169.31 50.689C169.31 52.129 168.08 53.219 166.3 53.219C164.94 53.379 163.67 52.529 163.31 51.209C163.27 51.109 163.33 50.999 163.43 50.959L164.61 50.569C164.77 50.519 164.84 50.569 164.88 50.729C165.01 51.369 165.63 51.799 166.28 51.709C167.08 51.709 167.5 51.369 167.5 50.859C167.5 50.349 167.2 50.179 165.97 49.749C164.2 49.119 163.53 48.409 163.53 47.109C163.64 45.669 164.89 44.599 166.32 44.699C166.34 44.699 166.37 44.699 166.39 44.699C167.64 44.579 168.81 45.319 169.22 46.509M172.73 45.489V46.899H173.9C173.99 46.889 174.07 46.949 174.09 47.039C174.09 47.049 174.09 47.069 174.09 47.079V48.109C174.09 48.199 174.03 48.279 173.94 48.289C173.93 48.289 173.92 48.289 173.91 48.289H172.74V51.069C172.74 51.429 172.94 51.639 173.4 51.639H173.91C174.03 51.639 174.1 51.699 174.1 51.809V52.969C174.1 53.089 174.03 53.139 173.91 53.139H173.12C171.71 53.139 171.05 52.399 171.05 51.299V48.269H170.33C170.24 48.279 170.16 48.219 170.14 48.119C170.14 48.109 170.14 48.099 170.14 48.089V47.059C170.13 46.969 170.19 46.889 170.28 46.869C170.29 46.869 170.31 46.869 170.32 46.869H171.07V45.489C171.06 45.399 171.12 45.329 171.21 45.309C171.22 45.309 171.23 45.309 171.24 45.309H172.57C172.68 45.309 172.73 45.379 172.73 45.489ZM178.61 50.979V50.389C178.28 50.369 177.96 50.369 177.63 50.389C177 50.469 176.65 50.659 176.65 51.149C176.65 51.639 176.94 51.829 177.43 51.829C177.98 51.829 178.47 51.469 178.62 50.939M180.29 48.789V52.889C180.29 52.979 180.22 53.059 180.12 53.059H178.86C178.77 53.059 178.69 52.999 178.68 52.899V52.219C178.32 52.839 177.66 53.209 176.95 53.199C175.95 53.279 175.07 52.539 174.99 51.539C174.99 51.439 174.99 51.339 174.99 51.249C174.99 50.109 175.71 49.429 177.46 49.289C177.84 49.259 178.22 49.259 178.59 49.289V48.849C178.65 48.439 178.36 48.059 177.95 47.999C177.88 47.989 177.8 47.989 177.73 47.999C177.34 47.949 176.97 48.189 176.86 48.579C176.8 48.719 176.76 48.749 176.64 48.709L175.39 48.399C175.26 48.399 175.25 48.289 175.28 48.199C175.45 47.299 176.26 46.649 177.79 46.649C179.32 46.649 180.26 47.389 180.26 48.799M185.35 46.909V48.129C185.35 48.279 185.29 48.329 185.15 48.329H184.96C184.22 48.239 183.53 48.699 183.34 49.419V52.909C183.35 52.989 183.29 53.059 183.21 53.079C183.21 53.079 183.2 53.079 183.19 53.079H181.76C181.68 53.079 181.61 53.019 181.61 52.929C181.61 52.929 181.61 52.919 181.61 52.909V46.959C181.61 46.879 181.66 46.809 181.75 46.799C181.76 46.799 181.77 46.799 181.78 46.799H183.08C183.17 46.799 183.24 46.859 183.25 46.949C183.25 46.959 183.25 46.969 183.25 46.979V47.889C183.59 47.189 184.3 46.759 185.08 46.789C185.3 46.789 185.35 46.789 185.35 46.989M188.69 45.519V46.929H189.86C189.95 46.929 190.03 46.989 190.04 47.079C190.04 47.089 190.04 47.099 190.04 47.109V48.139C190.05 48.229 189.99 48.299 189.91 48.319C189.9 48.319 189.88 48.319 189.87 48.319H188.7V51.099C188.7 51.459 188.9 51.669 189.35 51.669H189.87C189.96 51.659 190.03 51.719 190.05 51.809C190.05 51.819 190.05 51.829 190.05 51.839V52.999C190.05 53.119 189.98 53.169 189.87 53.169H189.08C187.67 53.169 187.02 52.429 187.02 51.329V48.299H186.29C186.2 48.309 186.13 48.249 186.11 48.169C186.11 48.159 186.11 48.139 186.11 48.129V47.099C186.1 47.009 186.16 46.929 186.26 46.909C186.27 46.909 186.28 46.909 186.29 46.909H187.04V45.529C187.03 45.439 187.09 45.369 187.17 45.349C187.18 45.349 187.2 45.349 187.21 45.349H188.54C188.63 45.349 188.7 45.419 188.7 45.509C188.7 45.509 188.7 45.519 188.7 45.529M196.12 48.249C196.12 48.349 196.12 48.439 195.98 48.469L194.94 48.839C194.82 48.839 194.76 48.839 194.72 48.709C194.56 48.269 194.11 47.989 193.64 48.039C193.1 48.039 192.79 48.249 192.79 48.559C192.79 48.869 193.01 48.989 194.22 49.309C195.62 49.679 196.18 50.289 196.18 51.269C196.18 52.479 195.2 53.229 193.64 53.229C192.08 53.229 191.26 52.669 190.94 51.719C190.94 51.579 190.94 51.519 191.11 51.449L192.03 50.999C192.17 50.929 192.24 50.999 192.31 51.139C192.52 51.649 193.03 51.959 193.58 51.909C194.21 51.909 194.56 51.699 194.56 51.359C194.56 51.019 194.21 50.849 193.09 50.539C191.71 50.179 191.13 49.559 191.13 48.579C191.13 47.389 192.11 46.619 193.57 46.619C194.66 46.509 195.7 47.129 196.11 48.149M206.65 44.979V52.939C206.65 53.039 206.65 53.109 206.47 53.109H205.08C204.99 53.109 204.91 53.049 204.9 52.949V49.799H202.04V52.959C202.04 53.049 201.98 53.119 201.89 53.129C201.88 53.129 201.87 53.129 201.86 53.129H200.43C200.34 53.129 200.26 53.069 200.25 52.969V44.979C200.25 44.889 200.32 44.809 200.42 44.809C200.42 44.809 200.43 44.809 200.44 44.809H201.86C201.95 44.799 202.02 44.859 202.04 44.949C202.04 44.959 202.04 44.969 202.04 44.979V48.139H204.9V44.979C204.9 44.889 204.97 44.809 205.07 44.809H206.5C206.63 44.809 206.68 44.879 206.68 44.979M209.67 49.189V49.399H211.86V49.189C211.91 48.589 211.46 48.059 210.85 48.009C210.25 47.959 209.72 48.409 209.67 49.019C209.67 49.079 209.67 49.139 209.67 49.189ZM209.67 50.519V50.759C209.58 51.289 209.94 51.799 210.48 51.889C210.59 51.909 210.71 51.909 210.82 51.889C211.32 51.969 211.82 51.699 212.02 51.229C212.13 51.049 212.18 51.029 212.35 51.109L213.25 51.569C213.44 51.659 213.45 51.749 213.37 51.919C212.87 52.849 211.86 53.379 210.81 53.289C209.46 53.469 208.23 52.519 208.05 51.179C208.03 51.039 208.02 50.889 208.03 50.749V49.279C207.97 47.929 209.01 46.779 210.36 46.719C210.5 46.719 210.65 46.719 210.79 46.739C212.11 46.609 213.29 47.569 213.42 48.889C213.43 49.009 213.43 49.129 213.42 49.259V50.239C213.42 50.409 213.36 50.519 213.12 50.519H209.68H209.67ZM218.36 46.949V48.169C218.36 48.319 218.31 48.369 218.15 48.369H217.97C217.23 48.279 216.54 48.739 216.35 49.459V52.949C216.35 53.039 216.29 53.109 216.2 53.119H214.76C214.68 53.119 214.61 53.059 214.61 52.969C214.61 52.969 214.61 52.959 214.61 52.949V46.999C214.61 46.919 214.66 46.849 214.75 46.839C214.76 46.839 214.77 46.839 214.78 46.839H216.08C216.22 46.839 216.25 46.929 216.25 47.019V47.929C216.59 47.229 217.3 46.799 218.08 46.829C218.31 46.829 218.35 46.829 218.35 47.029M220.83 49.219V49.429H223.02V49.219C223.07 48.619 222.62 48.089 222.01 48.039C221.41 47.989 220.88 48.439 220.83 49.049C220.83 49.109 220.83 49.169 220.83 49.219ZM220.83 50.549V50.789C220.74 51.319 221.1 51.829 221.64 51.919C221.75 51.939 221.87 51.939 221.98 51.919C222.49 51.999 222.98 51.729 223.19 51.259C223.29 51.079 223.34 51.059 223.51 51.139L224.41 51.599C224.6 51.689 224.61 51.779 224.53 51.949C224.03 52.879 223.02 53.409 221.97 53.319C220.62 53.489 219.39 52.529 219.23 51.179C219.21 51.039 219.21 50.909 219.21 50.769V49.299C219.15 47.949 220.19 46.799 221.54 46.739C221.68 46.739 221.83 46.739 221.97 46.759C223.29 46.629 224.47 47.589 224.6 48.909C224.61 49.029 224.61 49.149 224.6 49.279V50.259C224.6 50.429 224.54 50.539 224.3 50.539H220.84L220.83 50.549Z" fill="black"/>
</g>
</g>
<defs>
<clipPath id="clip0_2318_19994">
<rect width="230" height="65" fill="white"/>
</clipPath>
</defs>
</svg>
