<svg width="65" height="65" viewBox="0 0 65 65" fill="none" xmlns="http://www.w3.org/2000/svg">
<path d="M10.8363 55.1717C7.90142 52.3635 5.48383 49.0591 3.76301 45.3008C1.91551 41.289 0.828125 36.76 0.828125 32.0515V31.8615C0.828125 14.2733 15.1014 0 32.6896 0C50.2778 0 64.6145 14.2733 64.6145 31.8615C64.6145 32.1149 64.6145 32.3682 64.5511 32.6216H57.6045C57.6045 27.1425 55.8203 22.1067 52.7588 18.095C49.8239 14.2733 45.8122 11.3384 41.1037 9.74426L40.7236 9.3642L40.9137 8.66743L40.2169 8.79411L39.7735 8.22403L39.4568 8.85745H38.6966L39.0134 9.49088L38.57 10.061L39.2034 10.251L39.3934 10.9478L39.9635 10.5677L40.5969 10.8844V10.1877C45.316 11.7184 49.391 14.6428 52.3154 18.475C55.2503 22.3601 57.0344 27.2691 57.0344 32.6216H54.9969C54.9969 26.6357 52.5793 21.2832 48.6204 17.4615C44.7987 13.7032 39.5095 11.3489 33.6503 11.1589L34.0304 10.7789L32.5629 10.2721L32.2462 8.74133L30.9688 9.62813L29.5647 8.86801L29.438 10.3988L27.9706 11.0322L29.1213 12.1196L28.6779 13.6504L30.2087 13.4604L31.1694 14.7378L31.9928 13.397L33.5236 13.4604L33.0169 11.9929C38.8761 11.9929 44.2286 14.2838 48.0503 18.0422C51.872 21.7372 54.2262 26.8363 54.2262 32.6322H49.8344C49.8344 29.3172 48.8737 26.2557 47.2902 23.7114C45.9494 21.6105 44.1653 19.8263 42.0644 18.4856L42.8245 17.7255L41.6104 17.2187L41.4204 15.9413L40.2697 16.5747L39.1823 15.878L38.9922 17.1554L37.7148 17.5988L38.6016 18.6228L38.1582 19.8369L39.499 19.7736L40.1958 20.8609L40.9559 19.7736L42.2333 19.9002L42.1699 19.5202C43.9541 20.7343 45.4216 22.3284 46.5617 24.1759C48.1559 26.5935 49.0427 29.465 49.0427 32.6533H43.1834C43.1834 30.3624 42.4233 28.3882 41.1459 26.7941C40.0585 25.39 38.6016 24.3131 36.8808 23.6058L37.3242 23.0991L36.5641 22.8457L36.4374 21.9589L35.7406 22.4023L35.0439 21.9589L34.9172 22.7823L34.0937 23.0357L34.6638 23.6691L34.4104 24.4926L35.2339 24.4293L35.6773 25.126L36.184 24.4293L37.0075 24.5559L36.9442 24.3026C38.4116 24.936 39.7524 25.9601 40.7025 27.1741C41.8532 28.6416 42.55 30.5524 42.6133 32.6533H9.99174C10.0551 35.0075 10.4985 37.309 11.2058 39.4099C12.0293 41.6374 13.1167 43.675 14.5208 45.5225L14.8375 45.1424L15.0908 45.5858H15.6609L15.4709 46.0926L15.7876 46.536L15.2809 46.6626L15.1542 47.2327L14.7108 46.916L14.204 47.106V46.5993L13.6973 46.3459L14.0774 45.9659L14.014 45.5225C12.6733 43.675 11.5964 41.7008 10.8258 39.5366C10.129 37.3723 9.67502 35.0814 9.54833 32.6533H4.19585C4.2592 33.3501 4.2592 34.0574 4.32254 34.7542C4.38588 35.4509 4.51257 36.1583 4.63926 36.7917L4.82929 36.5383L5.08266 37.0451H5.65275L5.39937 37.5518L5.77943 37.9952L5.20935 38.1219L5.146 38.6286L4.7026 38.3119L4.19585 38.5653L4.13251 37.9952L3.68911 37.8052L4.06917 37.4251L3.94248 36.9184L4.2592 36.9817C4.13252 36.2216 4.00583 35.5143 3.94248 34.8175C3.87914 34.1207 3.81579 33.4134 3.81579 32.6533H1.46155C1.5249 37.1084 2.54894 41.2574 4.26975 45.0791C6.05391 48.8374 8.47151 52.279 11.5331 55.0873H11.5964L12.1032 54.3905L12.5466 55.1506H13.37L13.0533 55.9107L13.5601 56.5441L12.7366 56.7975L12.6099 57.621L11.9131 57.1142L11.153 57.4943L11.0897 56.6708L10.3296 56.2908L10.963 55.7207L10.8363 55.2139V55.1717Z" fill="url(#paint0_radial_2318_20066)"/>
<path d="M18.2891 40.6438V40.5804C18.2891 39.947 18.7325 39.4297 19.3764 39.4297H19.6298C20.2632 39.4297 20.7172 39.9364 20.7172 40.5804V40.6438C20.7172 41.2138 20.2738 41.7311 19.6298 41.7311H19.3764C18.743 41.7311 18.2891 41.2244 18.2891 40.6438ZM18.2891 51.2854V44.1487C18.2891 43.5153 18.7325 42.998 19.3764 42.998H19.6298C20.2632 42.998 20.7172 43.5047 20.7172 44.1487V51.2854C20.7172 51.9188 20.2738 52.4361 19.6298 52.4361H19.3764C18.743 52.4361 18.2891 51.9294 18.2891 51.2854ZM26.2492 51.2854V41.6678H22.3641V40.5804C22.3641 39.947 22.8709 39.4297 23.5149 39.4297H32.689V40.5171C32.689 41.1505 32.1823 41.6678 31.5383 41.6678H28.8673V51.2854C28.8673 51.9188 28.3606 52.4361 27.7166 52.4361H27.3365C26.7031 52.4361 26.2492 51.9294 26.2492 51.2854ZM39.3084 49.5646L39.3717 49.6279C39.7518 49.6912 40.0685 49.9446 40.2585 50.3247C40.3852 50.7681 40.2585 51.1481 40.0051 51.4754C39.8151 51.6654 39.6251 51.7921 39.435 51.9188C38.7383 52.4255 37.9043 52.6789 36.8274 52.6789C35.2333 52.6789 34.0192 52.1088 33.1958 51.0214C32.6257 50.198 32.309 49.1106 32.309 47.7698C32.309 46.2391 32.689 45.025 33.523 44.1382C34.3571 43.2514 35.3705 42.7974 36.5846 42.7974C37.9887 42.7974 39.1289 43.2408 39.8996 44.2015C40.533 44.8983 40.9236 45.9223 41.0503 47.1998C41.0503 47.5798 40.9869 47.8332 40.7336 48.0866C40.5435 48.3399 40.2902 48.4033 39.9735 48.4033H34.8744C34.8744 49.1634 35.0644 49.744 35.4444 50.1874C35.8245 50.5675 36.3312 50.7575 36.9119 50.7575C37.2919 50.7575 37.6087 50.6942 37.8726 50.4408C37.9993 50.3775 38.126 50.2508 38.1893 50.0607C38.4427 49.6807 38.8861 49.4907 39.34 49.554L39.3084 49.5646ZM38.6116 46.9569C38.6116 46.1968 38.4216 45.6795 38.0415 45.2995C37.7248 44.9194 37.2814 44.7294 36.7641 44.7294C36.194 44.7294 35.74 44.9194 35.4233 45.2995C35.0433 45.6795 34.9166 46.2602 34.9166 46.9569H38.6116ZM49.8866 46.0701H49.7599C49.3165 46.1968 48.8731 45.9435 48.6092 45.5634C48.5459 45.3734 48.4192 45.2467 48.2925 45.1833C47.9758 44.93 47.5957 44.8033 47.1418 44.8033C46.5083 44.8033 46.0544 44.9933 45.6743 45.4367C45.2943 45.8801 45.1042 46.5874 45.1042 47.6009C45.1042 48.6883 45.2943 49.5118 45.6743 49.9552C46.0544 50.3986 46.5611 50.6519 47.1418 50.6519C47.6485 50.6519 48.0286 50.5253 48.3558 50.2085C48.4825 50.0819 48.6092 49.8918 48.7359 49.6385C48.9259 49.1951 49.4327 48.9417 49.95 49.005L50.14 49.0684C50.4567 49.1317 50.7734 49.3217 50.9001 49.6385C51.0901 49.9552 51.0901 50.3352 50.9001 50.6625C50.6467 51.1059 50.33 51.486 49.9394 51.8132C49.2426 52.3833 48.2819 52.7 47.0679 52.7C45.6638 52.7 44.5869 52.2566 43.7529 51.3593C42.9189 50.4619 42.5388 49.3217 42.5388 47.7276C42.5388 46.1335 42.9189 44.9828 43.7529 44.0959C44.5764 43.2725 45.6638 42.8185 47.0679 42.8185C48.2186 42.8185 49.1687 43.0719 49.8127 43.5786C50.1294 43.7687 50.3828 44.022 50.5728 44.2754C50.8262 44.5921 50.8262 44.9722 50.6995 45.3628C50.5728 45.7534 50.2561 45.9962 49.8761 46.0596L49.8866 46.0701ZM55.6192 40.591V44.286C56.4426 43.3253 57.4033 42.8185 58.5541 42.8185C59.1241 42.8185 59.6414 42.9452 60.0848 43.1352C60.5282 43.3253 60.9083 43.642 61.1089 43.9587C61.3623 44.2754 61.5523 44.6555 61.6156 45.0461C61.679 45.4367 61.7423 46.0701 61.7423 46.8936V51.2854C61.7423 51.9188 61.2356 52.4361 60.5916 52.4361H60.3382C59.7681 52.4361 59.2508 51.9294 59.2508 51.2854V47.4637C59.2508 46.4396 59.1875 45.8695 59.1241 45.6162C58.9975 45.2995 58.8708 45.1094 58.6174 44.9828C58.364 44.7927 58.0473 44.7294 57.7306 44.7294C57.2872 44.7294 56.9071 44.7927 56.5799 45.0461C56.2632 45.2361 56.0098 45.5528 55.8831 45.9329C55.6931 46.313 55.6297 46.9569 55.6297 47.7171V51.2854C55.6297 51.9188 55.123 52.4361 54.5423 52.4361H54.289C53.6555 52.4361 53.1382 51.9294 53.1382 51.2854V40.5804C53.1382 39.947 53.645 39.4297 54.289 39.4297H54.5423C55.1124 39.4297 55.6297 39.9364 55.6297 40.5804L55.6192 40.591ZM18.4685 64.7985V55.6877C18.4685 55.1176 18.9753 54.6003 19.4926 54.6003H19.5559C20.126 54.6003 20.58 55.1071 20.58 55.6877V63.0777H25.7424V63.7745C25.7424 64.3446 25.2357 64.7985 24.655 64.7985H18.4791H18.4685ZM28.6667 59.6361L28.2867 59.5727C27.9066 59.5094 27.5899 59.256 27.4632 58.8126C27.3999 58.4326 27.5266 57.9892 27.9066 57.7252C28.4134 57.4085 29.1207 57.2185 30.0708 57.2185C30.9576 57.2185 31.6016 57.3452 32.045 57.5352C32.4884 57.7252 32.7418 57.9786 32.9318 58.2953C33.1219 58.612 33.1852 59.1821 33.1852 60.0795V62.3704C33.1852 63.0038 33.1852 63.5211 33.2486 63.7745C33.3119 64.0912 33.4386 64.4713 33.6286 64.7985H32.4145C31.9711 64.7985 31.5911 64.5452 31.4538 64.1018L31.3905 64.0384C31.0738 64.3551 30.6937 64.6085 30.3031 64.7352C29.923 64.9252 29.543 64.9886 29.089 64.9886C28.3289 64.9886 27.7483 64.7985 27.3049 64.3551C26.8615 63.9751 26.6081 63.4683 26.6081 62.8243C26.6081 62.3809 26.7348 62.0009 26.9248 61.6736C27.1148 61.3463 27.4316 61.1035 27.7483 60.9135C28.1283 60.7235 28.6351 60.5968 29.3424 60.4701C30.2292 60.2801 30.8732 60.1534 31.2532 59.9634V59.7733C31.2532 59.3933 31.1266 59.1399 30.9999 58.9499C30.8098 58.8232 30.4298 58.7598 29.9125 58.7598C29.5324 58.7598 29.2791 58.8232 29.089 58.9499C28.899 59.0766 28.709 59.3299 28.6456 59.6466L28.6667 59.6361ZM31.2744 61.2302C31.021 61.3569 30.6409 61.4202 30.0603 61.5469C29.5535 61.6736 29.1735 61.8003 28.9729 61.8636C28.7195 62.0537 28.5928 62.307 28.5928 62.5604C28.5928 62.8771 28.7195 63.0672 28.9096 63.3205C29.0996 63.5106 29.353 63.5739 29.6697 63.5739C30.0497 63.5739 30.3664 63.4472 30.6937 63.2572C30.9471 63.0672 31.1371 62.8771 31.2005 62.6238C31.2005 62.4337 31.2638 62.117 31.2638 61.5997V61.2197L31.2744 61.2302ZM35.0327 64.7985V54.537H35.9934C36.5635 54.537 37.0175 54.9804 37.0175 55.561V58.232C37.6509 57.5352 38.3582 57.2079 39.1817 57.2079C40.0685 57.2079 40.8391 57.5247 41.4092 58.1686C42.0427 58.8654 42.296 59.7628 42.296 61.0402C42.296 62.3176 41.9793 63.2677 41.4092 63.9751C40.7758 64.6718 40.0685 64.9991 39.1817 64.9991C38.8016 64.9991 38.3582 64.8724 37.9676 64.6824C37.5242 64.429 37.2075 64.1757 36.8802 63.7217V63.785C36.8802 64.3551 36.4368 64.8091 35.8562 64.8091H35.0327V64.7985ZM37.0069 60.9135C37.0069 61.737 37.1336 62.3176 37.3236 62.6343C37.7037 63.2044 38.1471 63.4578 38.7277 63.4578C39.1711 63.4578 39.4878 63.2677 39.8151 62.8877C40.1424 62.5076 40.2585 61.927 40.2585 61.1035C40.2585 60.2801 40.1318 59.6361 39.8151 59.256C39.4984 58.876 39.1183 58.7493 38.6644 58.7493C38.1576 58.7493 37.7776 58.876 37.4503 59.256C37.123 59.6361 37.0069 60.2167 37.0069 60.9135ZM43.1828 62.6977L44.3969 62.5076C44.777 62.4443 45.157 62.6343 45.421 62.951C45.4843 63.0777 45.5476 63.2044 45.6743 63.2677C45.9277 63.4578 46.3077 63.5845 46.7617 63.5845C47.2685 63.5845 47.6485 63.4578 47.9124 63.2677C48.1025 63.1411 48.1658 63.0144 48.1658 62.761C48.1658 62.6343 48.1025 62.5076 48.0391 62.3809C47.9124 62.3176 47.7224 62.1909 47.4057 62.1276C45.8116 61.8109 44.7981 61.4941 44.3441 61.1669C43.774 60.7868 43.4573 60.2062 43.4573 59.5094C43.4573 58.876 43.7107 58.2953 44.2174 57.8519C44.7242 57.4085 45.5582 57.2185 46.5717 57.2185C47.5852 57.2185 48.3558 57.4085 48.8626 57.7252C49.3693 58.042 49.686 58.5487 49.8866 59.1927L48.7992 59.3827C48.4192 59.4461 48.0391 59.3194 47.7752 59.066L47.5852 58.876C47.3951 58.6859 47.0784 58.6226 46.6245 58.6226C46.1177 58.6226 45.7377 58.6859 45.4737 58.876C45.3471 58.9393 45.2837 59.066 45.2837 59.256C45.2837 59.3827 45.3471 59.5094 45.4737 59.5727C45.6638 59.7628 46.2339 59.8895 47.3212 60.1428C48.3453 60.3962 49.1054 60.6496 49.4855 61.0296C49.9289 61.3463 50.1189 61.8531 50.1189 62.4971C50.1189 63.1938 49.8655 63.7745 49.2954 64.2812C48.7253 64.7246 47.8913 64.978 46.7512 64.978C45.7271 64.978 44.967 64.788 44.3336 64.3446C43.7635 63.9645 43.3729 63.3839 43.1828 62.6871V62.6977Z" fill="white"/>
<defs>
<radialGradient id="paint0_radial_2318_20066" cx="0" cy="0" r="1" gradientUnits="userSpaceOnUse" gradientTransform="translate(34.1711 31.4533) scale(45.2081 40.6106)">
<stop stop-color="#DEDEDE"/>
<stop offset="0.85" stop-color="#909090"/>
<stop offset="1" stop-color="#747474"/>
</radialGradient>
</defs>
</svg>
