<svg width="67" height="65" viewBox="0 0 67 65" fill="none" xmlns="http://www.w3.org/2000/svg">
<mask id="mask0_2318_20034" style="mask-type:luminance" maskUnits="userSpaceOnUse" x="0" y="0" width="67" height="65">
<path d="M66.62 0H0V65H66.62V0Z" fill="white"/>
</mask>
<g mask="url(#mask0_2318_20034)">
<mask id="mask1_2318_20034" style="mask-type:luminance" maskUnits="userSpaceOnUse" x="2" y="1" width="64" height="63">
<path d="M65.2514 1.09961H2.44141V63.9096H65.2514V1.09961Z" fill="white"/>
</mask>
<g mask="url(#mask1_2318_20034)">
<path d="M64.3033 40.0996C60.1133 56.9196 43.0733 67.1596 26.2433 62.9696C9.42335 58.7696 -0.816652 41.7296 3.38335 24.9096C7.57335 8.07956 24.6133 -2.16044 41.4333 2.03956C58.2533 6.22956 68.4933 23.2796 64.3033 40.0996Z" fill="#F7931A"/>
<path d="M47.6827 28.0291C48.3127 23.8491 45.1227 21.6091 40.7727 20.1091L42.1827 14.4491L38.7327 13.5891L37.3627 19.0991C36.4527 18.8691 35.5227 18.6591 34.6027 18.4491L35.9827 12.8991L32.5427 12.0391L31.1327 17.6991C30.3827 17.5291 29.6427 17.3591 28.9327 17.1791V17.1591L24.1827 15.9691L23.2627 19.6491C23.2627 19.6491 25.8227 20.2391 25.7627 20.2691C27.1627 20.6191 27.4127 21.5391 27.3727 22.2691L25.7627 28.7191C25.8627 28.7391 25.9827 28.7791 26.1227 28.8291C26.0127 28.7991 25.8827 28.7691 25.7627 28.7391L23.5127 37.7691C23.3427 38.1891 22.9127 38.8291 21.9327 38.5891C21.9627 38.6391 19.4327 37.9591 19.4327 37.9591L17.7227 41.8991L22.2027 43.0191C23.0327 43.2291 23.8527 43.4491 24.6627 43.6491L23.2327 49.3791L26.6727 50.2391L28.0827 44.5791C29.0227 44.8391 29.9327 45.0691 30.8327 45.2891L29.4227 50.9291L32.8727 51.7891L34.3027 46.0791C40.1827 47.1891 44.5927 46.7391 46.4527 41.4291C47.9527 37.1491 46.3827 34.6791 43.2827 33.0691C45.5327 32.5491 47.2327 31.0691 47.6827 28.0091V28.0291ZM39.8127 39.0691C38.7527 43.3491 31.5427 41.0391 29.2127 40.4591L31.1027 32.8791C33.4427 33.4591 40.9327 34.6191 39.8127 39.0791V39.0691ZM40.8827 27.9691C39.9127 31.8591 33.9127 29.8791 31.9727 29.3991L33.6927 22.5191C35.6327 22.9991 41.9027 23.9091 40.8927 27.9691H40.8827Z" fill="white"/>
</g>
</g>
</svg>
