<svg width="61" height="65" viewBox="0 0 61 65" fill="none" xmlns="http://www.w3.org/2000/svg">
<mask id="mask0_2318_20048" style="mask-type:luminance" maskUnits="userSpaceOnUse" x="0" y="0" width="61" height="65">
<path d="M60.99 0H0V65H60.99V0Z" fill="white"/>
</mask>
<g mask="url(#mask0_2318_20048)">
<mask id="mask1_2318_20048" style="mask-type:luminance" maskUnits="userSpaceOnUse" x="1" y="3" width="59" height="59">
<path d="M59.3384 3.31055H1.64844V61.6905H59.3384V3.31055Z" fill="white"/>
</mask>
<g mask="url(#mask1_2318_20048)">
<path d="M30.4895 58.5307C44.6995 58.5307 56.2095 46.8807 56.2095 32.5007C56.2095 18.1207 44.6995 6.4707 30.4895 6.4707C16.2795 6.4707 4.76953 18.1307 4.76953 32.5007C4.76953 46.8707 16.2895 58.5307 30.4895 58.5307Z" fill="white"/>
<path d="M30.4888 3.31078C24.7888 3.31078 19.2088 5.02078 14.4688 8.23078C9.72885 11.4408 6.02884 16.0008 3.84884 21.3308C1.66884 26.6608 1.09884 32.5308 2.20884 38.1908C3.31884 43.8508 6.06885 49.0508 10.0988 53.1308C14.1288 57.2108 19.2688 59.9908 24.8688 61.1208C30.4688 62.2508 36.2588 61.6708 41.5388 59.4608C46.8088 57.2508 51.3188 53.5108 54.4788 48.7108C57.6488 43.9108 59.3388 38.2708 59.3388 32.4908C59.3488 28.6708 58.6188 24.8808 57.1788 21.3508C55.7388 17.8108 53.6388 14.6008 50.9688 11.8908C48.3088 9.18078 45.1388 7.03078 41.6588 5.55078C38.1688 4.08078 34.4388 3.31078 30.6588 3.30078H30.4888V3.31078ZM30.9788 33.4908L27.9788 43.7408H44.0388C44.1488 43.7408 44.2488 43.7508 44.3488 43.7908C44.4488 43.8308 44.5388 43.8908 44.6188 43.9608C44.6988 44.0308 44.7588 44.1208 44.7988 44.2208C44.8388 44.3208 44.8688 44.4208 44.8688 44.5308V44.8008L43.4688 49.6808C43.4088 49.9108 43.2688 50.1108 43.0788 50.2508C42.8888 50.3908 42.6588 50.4608 42.4188 50.4508H17.8488L21.9688 36.2408L17.3588 37.6508L18.4088 34.4008L23.0188 32.9908L28.8188 13.0608C28.8788 12.8308 29.0188 12.6308 29.2088 12.4908C29.3988 12.3508 29.6288 12.2808 29.8688 12.2808H36.0888C36.1988 12.2808 36.2988 12.2908 36.3988 12.3308C36.4988 12.3708 36.5888 12.4308 36.6688 12.5008C36.7488 12.5708 36.8088 12.6608 36.8488 12.7608C36.8888 12.8608 36.9188 12.9608 36.9188 13.0708V13.3408L32.0288 30.1608L36.6388 28.7508L35.6588 32.1408L30.9788 33.4808V33.4908Z" fill="#345D9D"/>
</g>
</g>
</svg>
