<svg width="115" height="65" viewBox="0 0 115 65" fill="none" xmlns="http://www.w3.org/2000/svg">
<g clip-path="url(#clip0_2318_20005)">
<mask id="mask0_2318_20005" style="mask-type:luminance" maskUnits="userSpaceOnUse" x="0" y="0" width="115" height="65">
<path d="M115 0H0V65H115V0Z" fill="white"/>
</mask>
<g mask="url(#mask0_2318_20005)">
<path d="M55.8905 56.7302C50.1805 61.4702 42.7705 64.3402 34.6805 64.3402C16.6205 64.3402 1.98047 50.0802 1.98047 32.5002C1.98047 14.9202 16.6205 0.660156 34.6805 0.660156C42.7705 0.660156 50.1805 3.52016 55.8905 8.27016C61.6005 3.53016 69.0105 0.660156 77.1005 0.660156C95.1605 0.660156 109.8 14.9102 109.8 32.5002C109.8 50.0902 95.1605 64.3402 77.1005 64.3402C69.0105 64.3402 61.6005 61.4802 55.8905 56.7302Z" fill="#ED0006"/>
<path d="M55.8906 56.7302C62.9206 50.8902 67.3806 42.2002 67.3806 32.5002C67.3806 22.8002 62.9206 14.1102 55.8906 8.27016C61.6006 3.53016 69.0106 0.660156 77.1006 0.660156C95.1606 0.660156 109.801 14.9102 109.801 32.5002C109.801 50.0902 95.1606 64.3402 77.1006 64.3402C69.0106 64.3402 61.6006 61.4802 55.8906 56.7302Z" fill="#F9A000"/>
<path d="M55.8923 56.7295C62.9223 50.8895 67.3823 42.1995 67.3823 32.4995C67.3823 22.7995 62.9223 14.1095 55.8923 8.26953C48.8623 14.1095 44.4023 22.7995 44.4023 32.4995C44.4023 42.1995 48.8623 50.8895 55.8923 56.7295Z" fill="#FF5E00"/>
</g>
</g>
<defs>
<clipPath id="clip0_2318_20005">
<rect width="115" height="65" fill="white"/>
</clipPath>
</defs>
</svg>
