<svg width="361" height="65" viewBox="0 0 361 65" fill="none" xmlns="http://www.w3.org/2000/svg">
<g clip-path="url(#clip0_2318_20159)">
<mask id="mask0_2318_20159" style="mask-type:luminance" maskUnits="userSpaceOnUse" x="0" y="0" width="361" height="65">
<path d="M360.29 0H0V65H360.29V0Z" fill="white"/>
</mask>
<g mask="url(#mask0_2318_20159)">
<path d="M351.2 5.79984C346.69 2.65984 339.82 1.08984 330.79 1.08984H307.24L298.41 49.5698H267.59L269.55 38.5798H288.2L290.36 26.2098H271.71L273.67 15.2198H292.91L295.46 1.08984H256.59L248.15 47.2198H233.82L242.46 1.08984H222.05L213.81 47.0198H199.87L208.3 1.08984H188.08L179.25 49.5698H148.24L150.2 38.5798H168.85L171.01 26.2098H152.36L154.32 15.2198H173.75L176.3 1.08984H55L48.13 39.5598L34.39 1.08984H13.38L2 63.9098H22.22L29.09 24.4598L42.44 63.9098H114.67L123.5 15.4298H134.88L125.85 63.9098H315.66L321.16 33.2898L329.99 63.9098H350.21L340.98 38.7798L343.14 38.3898C347.46 37.5998 351.19 35.2498 353.94 31.9098C356.49 28.1798 357.87 23.8598 357.67 19.1498C357.67 13.2598 355.71 8.93984 351.19 5.79984H351.2ZM97 49.5798H66.18L68.14 38.5898H87.57L89.73 26.2198H70.49L72.26 15.4198H103.08L96.99 49.5698L97 49.5798ZM334.71 28.5798C332.75 29.9498 329.8 30.7398 325.68 30.7398H321.75L324.89 13.8598H327.83C331.17 13.8598 333.52 14.4498 335.29 15.4298C336.27 16.0198 337.06 16.9998 337.45 17.9798C338.04 18.9598 338.24 20.1398 338.04 21.3198C338.04 22.6898 337.84 24.0698 337.25 25.2498C336.66 26.6198 335.88 27.6098 334.7 28.5898L334.71 28.5798Z" fill="#8A8A8A"/>
</g>
</g>
<defs>
<clipPath id="clip0_2318_20159">
<rect width="360.29" height="65" fill="white"/>
</clipPath>
</defs>
</svg>
