<svg width="196" height="65" viewBox="0 0 196 65" fill="none" xmlns="http://www.w3.org/2000/svg">
<mask id="mask0_2318_20120" style="mask-type:luminance" maskUnits="userSpaceOnUse" x="0" y="0" width="196" height="65">
<path d="M195.53 0H0V65H195.53V0Z" fill="white"/>
</mask>
<g mask="url(#mask0_2318_20120)">
<path d="M152.43 6.13L167.66 3.42V61.84H152.43V6.13ZM174.66 6.13V61.81H189.89V3.42L174.66 6.13ZM130.79 61.81H146.02V19.09H130.79V61.81ZM30.16 25.13C28.22 25 23.77 24.71 23.77 20.71C23.77 15.87 30.19 15.87 32.58 15.87C36.81 15.87 42.29 17.13 46.19 18.29C46.19 18.29 48.38 19.06 50.22 19.84L50.38 19.87V6.64L50.15 6.58C45.54 4.97 40.18 3.42 30.21 3.42C13.06 3.42 7 13.42 7 21.97C7 26.91 9.13 38.52 28.78 39.87C30.46 39.97 34.88 40.22 34.88 44.39C34.88 47.81 31.27 49.84 25.17 49.84C18.49 49.84 12.04 48.13 8.1 46.52V60.17C13.97 61.72 20.62 62.49 28.39 62.49C45.17 62.49 52.68 53.04 52.68 43.65C52.68 33 44.29 26.1 30.16 25.13ZM122.2 18.48C108.13 18.93 101 25.25 101 37.8V61.83H116.36V42.22C116.36 34.7 117.33 31.48 126.26 31.19V18.67C124.71 18.38 122.2 18.48 122.2 18.48ZM80.91 19.06C80.59 19.9 78.14 26.8 72.23 33.93V3.42L56.52 6.52V61.81H72.23V44.71C76.78 51.55 79.04 61.81 79.04 61.81H97.85C95.98 54.07 87.85 39.81 87.85 39.81C95.14 30.55 98.37 20.68 98.88 19.03H80.91V19.06ZM138.37 15C142.5 15 145.89 11.64 145.89 7.52C145.89 3.4 142.53 0 138.37 0C134.21 0 130.89 3.36 130.89 7.52C130.89 11.68 134.25 15 138.37 15Z" fill="url(#paint0_linear_2318_20120)"/>
</g>
<defs>
<linearGradient id="paint0_linear_2318_20120" x1="9.603" y1="31.558" x2="191.011" y2="31.558" gradientUnits="userSpaceOnUse">
<stop stop-color="#808080"/>
<stop offset="1" stop-color="#797979"/>
</linearGradient>
</defs>
</svg>
