<svg width="201" height="65" viewBox="0 0 201 65" fill="none" xmlns="http://www.w3.org/2000/svg">
<g clip-path="url(#clip0_2318_20015)">
<mask id="mask0_2318_20015" style="mask-type:luminance" maskUnits="userSpaceOnUse" x="0" y="0" width="201" height="65">
<path d="M200.75 0H0V65H200.75V0Z" fill="white"/>
</mask>
<g mask="url(#mask0_2318_20015)">
<path d="M124.08 0.839844C129.84 0.839844 134.5 2.20984 137.43 3.44984L135.41 16.6898L134.06 16.0398C131.37 14.7998 127.81 13.5598 122.97 13.6898C117.09 13.6898 114.46 16.3598 114.4 18.9698C114.4 21.8398 117.59 23.7298 122.79 26.5398C131.37 30.9098 135.34 36.2598 135.28 43.2298C135.16 55.9498 124.99 64.1598 109.37 64.1598C102.69 64.0898 96.2595 62.5898 92.7695 60.8998L94.8495 47.1398L96.8095 48.1198C101.65 50.3998 104.83 51.3798 110.78 51.3798C115.07 51.3798 119.66 49.4898 119.72 45.3798C119.72 42.7098 117.76 40.7498 112 37.7498C106.37 34.8098 98.8295 29.9198 98.9495 21.1198C99.0095 9.18984 109.36 0.839844 124.06 0.839844H124.08Z" fill="#00579F"/>
<path d="M68.5898 63.2492H83.4698L92.7898 1.94922H77.9099L68.5998 63.2492H68.5898Z" fill="#00579F"/>
<path fill-rule="evenodd" clip-rule="evenodd" d="M175.587 1.94922H164.077C160.528 1.94922 157.828 3.05922 156.298 7.03922L134.188 63.2492H149.807C149.807 63.2492 152.377 55.6792 152.927 54.0492H172.037C172.467 56.1992 173.818 63.2492 173.818 63.2492H187.598L175.587 1.94922ZM157.217 41.5292C158.447 38.0092 163.158 24.3792 163.158 24.3792C163.138 24.4292 163.327 23.8592 163.617 22.9992C164.047 21.7392 164.677 19.8692 165.117 18.5092L166.158 23.7892C166.158 23.7892 168.977 38.4592 169.587 41.5292H157.217Z" fill="#00579F"/>
<path d="M41.5802 43.7492L56.1602 1.94922H71.9002L48.5002 63.1792H32.7602L19.4102 9.57922C28.8402 14.8592 37.2902 25.4892 39.9902 35.2692L41.5802 43.7492Z" fill="#00579F"/>
<path d="M28.0494 1.94922H4.09938L3.85938 3.18922C22.5394 8.27922 34.9094 20.5392 39.9994 35.2792L34.7894 7.10922C33.9294 3.18922 31.2994 2.08922 28.0494 1.95922V1.94922Z" fill="#FAA61A"/>
</g>
</g>
<defs>
<clipPath id="clip0_2318_20015">
<rect width="200.75" height="65" fill="white"/>
</clipPath>
</defs>
</svg>
