<svg width="142" height="50" viewBox="0 0 142 50" fill="none" xmlns="http://www.w3.org/2000/svg">
<path d="M15.709 1.11096C15.7114 1.24115 15.713 1.37135 15.7144 1.50155C15.7153 1.57406 15.7163 1.64656 15.7174 1.72126C15.709 1.96705 15.709 1.96705 15.6672 2.25431C15.4125 4.06787 15.7213 6.21956 16.822 7.70284C16.8971 7.80464 16.8971 7.80464 16.9738 7.9085C17.7885 8.9139 18.9315 9.38199 20.18 9.5568C21.0373 9.63481 21.8957 9.60364 22.7531 9.54343C23.5296 9.49096 24.3051 9.48469 25.0831 9.48476C25.3201 9.48457 25.5571 9.483 25.7941 9.48139C26.5864 9.47886 27.3464 9.49419 28.1231 9.67184C28.2238 9.69413 28.3246 9.71642 28.4284 9.73939C29.0242 9.90561 29.595 10.1115 30.1671 10.346C30.2678 10.3865 30.2678 10.3865 30.3706 10.4278C30.7869 10.6039 31.1318 10.8154 31.4853 11.0972C31.6469 11.228 31.6469 11.228 31.8954 11.3733C32.174 11.5748 32.3729 11.7971 32.5914 12.0605C32.7489 12.2499 32.7489 12.2499 32.9593 12.4377C33.1998 12.6954 33.3435 12.9597 33.4846 13.2781C33.5102 13.3352 33.5358 13.3923 33.5621 13.4511C34.3492 15.25 34.0524 16.9098 33.3761 18.6892C33.1781 19.1885 32.933 19.6534 32.6606 20.1161C32.6318 20.1701 32.603 20.224 32.5733 20.2796C32.376 20.6483 32.1316 20.9668 31.872 21.2926C31.7312 21.4703 31.5961 21.6508 31.462 21.8336C31.0725 22.3551 30.6375 22.8239 30.1778 23.2836C29.9851 23.5024 29.7931 23.7217 29.6026 23.9424C29.4071 24.1399 29.2181 24.258 28.9792 24.3966C28.8763 24.5217 28.7736 24.6469 28.6729 24.7738C28.4403 25.0344 28.1489 25.2213 27.8662 25.4239C27.7001 25.5484 27.5343 25.6733 27.3686 25.7984C27.192 25.9304 27.0155 26.0624 26.8388 26.1943C26.7639 26.2509 26.689 26.3076 26.6118 26.3659C25.7677 26.9941 24.8721 27.561 23.9454 28.0597C23.7078 28.1902 23.476 28.3296 23.2431 28.4683C22.8938 28.6726 22.5478 28.8547 22.1752 29.0117C21.9489 29.1093 21.7266 29.2144 21.5041 29.3204C20.953 29.5824 20.3992 29.8186 19.8268 30.0313C19.5705 30.129 19.3206 30.2363 19.0694 30.3464C18.5482 30.5653 18.017 30.7221 17.4738 30.8751C17.2024 30.9517 16.9335 31.0339 16.6651 31.1205C15.8161 31.3922 14.9899 31.5852 14.1056 31.6984C13.8221 31.7352 13.5402 31.7765 13.2584 31.8246C12.2249 31.999 11.2182 32.0637 10.1708 32.0585C10.0542 32.0584 10.0542 32.0584 9.93514 32.0583C8.64623 32.0544 7.45257 31.9337 6.20583 31.5877C6.09263 31.5596 5.97937 31.5317 5.86605 31.5041C5.29099 31.3496 4.81013 31.1075 4.30493 30.7941C4.08647 30.659 3.86537 30.5393 3.63741 30.4213C3.33092 30.2529 3.15937 30.0752 2.95249 29.7899C2.87193 29.7269 2.79137 29.6639 2.70836 29.599C2.42627 29.3682 2.25143 29.0975 2.0803 28.7787C2.03642 28.6988 2.03642 28.6988 1.99165 28.6174C1.23169 27.2124 1.22946 25.5121 1.64922 23.9829C1.95721 23.0801 2.3845 22.2047 2.9963 21.4708C3.13566 21.3089 3.13566 21.3089 3.25749 21.0792C3.393 20.8671 3.55356 20.7373 3.75078 20.5836C3.92009 20.436 4.05601 20.2729 4.19925 20.1001C4.418 19.842 4.5824 19.6847 4.92162 19.6025C4.92162 19.546 4.92162 19.4895 4.92162 19.4312C5.23621 19.1882 5.37271 19.0888 5.77776 19.0888C5.8006 19.3383 5.81013 19.4719 5.66105 19.679C5.57844 19.7603 5.57844 19.7603 5.49416 19.8432C4.75706 20.6337 4.18558 21.5305 3.71767 22.5025C3.686 22.5675 3.65434 22.6325 3.62171 22.6996C3.276 23.4487 3.18029 24.182 3.18793 25.0012C3.18727 25.0725 3.18661 25.1439 3.18593 25.2174C3.18745 25.7066 3.25683 26.1499 3.38056 26.6224C3.40915 26.7365 3.4377 26.8507 3.46618 26.9648C3.52268 26.9648 3.57919 26.9648 3.63741 26.9648C3.71516 27.0795 3.78733 27.198 3.85679 27.318C4.14282 27.7608 4.4678 27.9935 4.92162 28.2489C5.00505 28.2986 5.00505 28.2986 5.09017 28.3492C5.54481 28.6136 5.99064 28.802 6.49478 28.9499C6.56847 28.9716 6.64216 28.9934 6.71808 29.0158C8.46728 29.5055 10.3283 29.438 12.1132 29.1906C12.174 29.1846 12.2348 29.1785 12.2974 29.1723C12.4751 29.1166 12.4751 29.1166 12.5533 28.9162C12.5786 28.8344 12.6039 28.7526 12.6299 28.6683C12.6585 28.5786 12.6872 28.4889 12.7167 28.3964C12.7453 28.3018 12.774 28.2073 12.8035 28.1098C12.8613 27.9249 12.9194 27.7401 12.9777 27.5554C13.0053 27.4675 13.0329 27.3795 13.0613 27.2889C13.1263 27.0934 13.1967 26.9074 13.2804 26.7194C13.3993 26.4468 13.4776 26.1822 13.5526 25.8947C13.6914 25.3931 13.8655 24.9219 14.0642 24.4423C14.2391 24.0163 14.3751 23.5862 14.5051 23.1449C14.6088 22.8149 14.729 22.4936 14.8529 22.1707C15.0102 21.7603 15.1557 21.3511 15.2809 20.9294C15.4241 20.4473 15.5965 19.9812 15.7766 19.512C15.911 19.1585 16.0301 18.8045 16.1371 18.4414C16.3244 17.8122 16.5692 17.2116 16.822 16.6062C16.864 16.5041 16.9061 16.402 16.9494 16.2968C17.3077 15.4941 17.8361 14.8327 18.4487 14.2091C18.5128 14.1429 18.5769 14.0767 18.643 14.0085C19.6975 12.9872 21.2835 12.2733 22.7551 12.213C22.8805 12.2076 22.8805 12.2076 23.0084 12.2021C23.0947 12.1988 23.1809 12.1954 23.2698 12.1919C23.3577 12.1883 23.4456 12.1846 23.5362 12.1807C23.7524 12.1717 23.9686 12.163 24.1848 12.1545C24.2131 12.2392 24.2413 12.324 24.2704 12.4113C24.1613 12.6065 24.0492 12.7844 23.9226 12.9678C23.8504 13.0767 23.7784 13.1857 23.7066 13.2948C23.6711 13.3486 23.6356 13.4024 23.599 13.4578C23.1244 14.1862 22.8216 14.953 22.5298 15.766C22.4545 15.9703 22.3701 16.1703 22.2852 16.3707C22.1691 16.6569 22.0873 16.9366 22.0177 17.2375C21.9031 17.7271 21.7427 18.1933 21.5736 18.6661C21.3926 19.1722 21.2242 19.6729 21.0917 20.194C20.9593 20.6636 20.7979 21.124 20.642 21.5863C20.4745 22.084 20.3153 22.5832 20.1636 23.086C20.0524 23.4428 19.9327 23.7964 19.8131 24.1504C19.65 24.6341 19.5006 25.1169 19.3724 25.6111C19.228 26.1258 19.0494 26.6303 18.8767 27.136C19.7162 26.9047 20.4434 26.5302 21.2016 26.1105C21.3288 26.0401 21.4566 25.9709 21.5846 25.9021C22.4189 25.4504 23.2177 24.9461 23.9761 24.3762C24.1848 24.2253 24.1848 24.2253 24.3945 24.1026C24.6542 23.9431 24.8776 23.7584 25.1105 23.5619C25.1556 23.5239 25.2007 23.4859 25.2472 23.4467C25.5542 23.1874 25.8591 22.9258 26.16 22.6593C26.2782 22.5547 26.3974 22.4511 26.5171 22.3483C26.9495 21.9734 27.3282 21.5818 27.695 21.1434C27.7581 21.0727 27.8212 21.0019 27.8863 20.9291C29.1844 19.443 30.3162 17.5886 30.2815 15.5484C30.1925 14.4334 29.8568 13.4498 29.0066 12.6972C28.8936 12.5825 28.8936 12.5825 28.8936 12.4113C28.8265 12.3937 28.7594 12.376 28.6903 12.3578C28.4208 12.2556 28.22 12.1464 27.9786 11.994C26.053 10.8285 23.3652 10.9462 21.2378 11.4313C20.6075 11.6034 20.009 11.865 19.4198 12.1448C19.2555 12.2229 19.0879 12.294 18.9195 12.3632C18.5719 12.5184 18.2434 12.6989 17.9109 12.8838C17.6595 13.0207 17.404 13.1445 17.1434 13.2627C16.9484 13.38 16.8108 13.5342 16.6508 13.6955C16.5098 13.7995 16.367 13.901 16.2227 14.0004C15.6675 14.3993 15.1731 14.8493 14.6816 15.322C14.6138 15.3871 14.6138 15.3871 14.5446 15.4534C14.0319 15.9474 13.5386 16.4403 13.1406 17.0342C13.0825 17.1203 13.0825 17.1203 13.0232 17.2081C12.9391 17.3339 12.8556 17.4601 12.7727 17.5866C12.6315 17.7978 12.4851 18.0049 12.3379 18.212C11.9841 18.7124 11.6854 19.2169 11.4283 19.7737C11.3627 19.9059 11.2968 20.0379 11.2303 20.1696C11.1826 20.265 11.135 20.3603 11.0858 20.4585C11.0293 20.4585 10.9728 20.4585 10.9146 20.4585C10.9035 20.5827 10.9035 20.5827 10.8922 20.7094C10.8339 21.1162 10.6699 21.4665 10.5026 21.839C10.2484 22.4181 10.0393 22.9798 9.8859 23.5943C9.80163 23.7973 9.80163 23.7973 9.64244 23.912C9.45917 23.9685 9.45917 23.9685 9.11671 23.9685C9.12892 23.7545 9.14146 23.5405 9.15417 23.3264C9.15754 23.2669 9.1609 23.2073 9.16437 23.1459C9.18191 22.8544 9.20636 22.5699 9.24681 22.2804C9.47931 20.5008 9.42543 18.5717 8.35956 17.0747C7.87364 16.5175 7.1872 16.1484 6.44921 16.0739C4.97476 15.9982 3.70829 16.2943 2.3532 16.863C2.19637 16.9275 2.03942 16.9917 1.88232 17.0556C1.81787 17.0825 1.75341 17.1095 1.68701 17.1372C1.48275 17.2106 1.28248 17.2534 1.06898 17.291C0.986228 17.0277 0.964138 16.9052 1.08035 16.65C1.27049 16.3942 1.42818 16.3104 1.71644 16.1781C1.80892 16.1344 1.90141 16.0907 1.99669 16.0457C2.08609 16.0046 2.17548 15.9636 2.26758 15.9213C3.26561 15.4498 4.26456 14.9096 5.12863 14.2191C5.32926 14.0775 5.54143 14.0114 5.77776 13.9523C5.77776 13.8958 5.77776 13.8393 5.77776 13.7811C5.95173 13.6478 6.12622 13.5238 6.3075 13.4012C6.74877 13.0947 7.17182 12.7756 7.58101 12.4274C7.62578 12.3894 7.67056 12.3515 7.71668 12.3124C7.99648 12.0718 8.25726 11.8167 8.51742 11.5552C8.6144 11.4719 8.71236 11.3896 8.81171 11.3091C9.07405 11.0878 9.29197 10.8482 9.51034 10.5841C9.68117 10.3824 9.87161 10.2011 10.0585 10.0143C10.1359 9.92033 10.2126 9.82579 10.2886 9.7307C10.3539 9.65477 10.4192 9.57885 10.4865 9.50062C10.543 9.50062 10.5996 9.50062 10.6578 9.50062C10.679 9.45472 10.7001 9.40881 10.722 9.36151C10.8552 9.10833 11.0032 8.87592 11.1715 8.64454C11.228 8.64454 11.2845 8.64454 11.3427 8.64454C11.3651 8.59741 11.3875 8.55029 11.4106 8.50174C11.6729 7.99498 11.9957 7.51167 12.3379 7.05542C12.5483 6.76814 12.6985 6.46008 12.849 6.13814C12.949 5.9444 13.0555 5.76759 13.1734 5.58469C13.4071 5.21497 13.5935 4.83257 13.772 4.43365C13.8213 4.32414 13.8213 4.32414 13.8717 4.21242C14.1463 3.58805 14.3685 2.95133 14.5707 2.30023C14.8536 1.39765 14.8536 1.39765 15.19 1.16982C15.3665 1.11096 15.3665 1.11096 15.709 1.11096Z" fill="#FB333D"/>
<path d="M17.1641 32.1014C17.3969 32.7998 16.855 33.8915 16.629 34.5641C15.8599 36.8613 15.0766 39.6805 16.0511 42.032C16.1153 42.3263 16.1153 42.3263 16.0511 42.6313C15.8006 42.8599 15.4963 42.9938 15.195 43.1449C14.989 43.2524 14.7835 43.3608 14.578 43.4692C14.4352 43.5443 14.2921 43.6188 14.1486 43.6926C13.8543 43.8449 13.5745 43.9968 13.2994 44.1823C13.0284 44.3607 12.7541 44.4749 12.4553 44.6003C12.2611 44.7062 12.0684 44.8151 11.8774 44.9267C11.771 44.9883 11.6645 45.0498 11.558 45.1113C11.5063 45.1412 11.4546 45.1711 11.4014 45.2019C10.8997 45.4906 10.3884 45.761 9.87484 46.0279C9.79517 46.0693 9.71549 46.1108 9.6334 46.1535C9.47362 46.2365 9.3137 46.3193 9.15362 46.4017C8.7531 46.6096 8.37823 46.8309 8.00337 47.0829C7.70455 47.2378 7.40217 47.3835 7.09907 47.5297C6.80301 47.6761 6.80301 47.6761 6.53723 47.8614C6.29109 48.0246 6.29109 48.0246 6.08508 48.1066C5.71333 48.256 5.38592 48.4885 5.05202 48.7083C4.63388 48.9706 4.63388 48.9706 4.32464 48.9466C4.26725 48.9249 4.20986 48.9031 4.15073 48.8807C4.03668 48.5065 4.03668 48.5065 4.16076 48.2718C4.21043 48.2096 4.26009 48.1475 4.31126 48.0835C5.21702 46.8675 5.87769 45.4351 6.55113 44.081C6.63207 43.9184 6.71379 43.7562 6.79574 43.594C7.30443 42.5854 7.79612 41.5725 8.22242 40.5258C8.31992 40.2954 8.4209 40.0682 8.52541 39.841C8.89736 39.0322 9.23573 38.2266 9.52135 37.3834C9.61102 37.1221 9.70684 36.8672 9.81197 36.6119C9.96574 36.237 10.0917 35.8557 10.2173 35.4706C10.3511 35.077 10.4987 34.6889 10.6483 34.3011C10.6692 34.2465 10.6901 34.1919 10.7116 34.1356C10.73 34.0879 10.7485 34.0402 10.7675 33.991C10.8557 33.7351 10.9269 33.4749 10.9999 33.2143C11.09 33.2001 11.1801 33.1859 11.273 33.1712C11.6128 33.1175 11.9525 33.0633 12.2921 33.009C12.4381 32.9857 12.5842 32.9625 12.7302 32.9395C13.5086 32.8167 14.2798 32.6879 15.0456 32.4993C15.2922 32.4411 15.5391 32.3955 15.7889 32.3529C16.0432 32.3089 16.2652 32.2583 16.5113 32.1763C16.7429 32.0991 16.9217 32.0871 17.1641 32.1014Z" fill="#FB333D"/>
<path fill-rule="evenodd" clip-rule="evenodd" d="M15.2259 1.1084C15.1459 1.16773 14.9112 1.70124 14.7043 2.29408C13.5443 5.61882 11.997 8.09754 9.43667 10.7323C7.35017 12.8797 4.24884 15.1027 1.91286 16.1256C1.24547 16.4178 1.02729 16.6288 1.02453 16.9851C1.02298 17.1764 1.01988 17.1772 2.18744 16.6937C3.67847 16.0762 4.5273 15.8831 5.76626 15.8795C6.76963 15.8766 6.88001 15.893 7.36164 16.1177C8.25359 16.5339 8.80335 17.1924 9.18478 18.3016C9.39312 18.9072 9.42167 19.1322 9.45176 20.4027C9.47867 21.5401 9.45185 22.0157 9.31827 22.774C9.22582 23.2983 9.18374 23.7582 9.22419 23.8022C9.2686 23.8505 9.37915 23.8444 9.50618 23.7866C9.66632 23.7136 9.76963 23.5243 9.94961 22.974C11.4628 18.346 14.2568 14.7387 17.9764 12.6107C22.7531 9.87796 28.5657 10.4153 30.1516 13.7363L30.4731 14.4096L30.4707 15.6168C30.4685 16.6629 30.4412 16.8989 30.2659 17.3846C29.7647 18.7731 28.6998 20.3988 27.4195 21.7301C26.0087 23.1972 23.7181 24.9105 21.5984 26.084C20.5596 26.6592 18.8792 27.421 18.8074 27.3494C18.7677 27.3096 19.9551 23.4905 20.9404 20.4889C21.1194 19.9435 21.4684 18.857 21.7158 18.0744C22.661 15.0855 23.2692 13.6398 23.9788 12.6954C24.1594 12.4551 24.3072 12.2241 24.3072 12.1821C24.3072 12.0631 22.6164 12.2112 21.8925 12.3936C21.0258 12.612 19.7512 13.2367 19.0756 13.7741C18.4862 14.2432 17.75 15.1243 17.3357 15.8566C16.9891 16.4692 16.6226 17.4881 13.824 25.6197C13.171 27.5168 12.5936 29.1171 12.5409 29.1759C12.3639 29.3735 11.0615 29.4781 9.31309 29.4351C7.86285 29.3995 7.50204 29.3623 6.79438 29.1753C4.9007 28.6748 3.69537 27.7391 3.17054 26.3617C2.93304 25.7386 2.91424 24.4943 3.12992 23.6795C3.44072 22.5052 4.25746 21.0462 5.26212 19.8705C5.67313 19.3896 5.78653 19.1092 5.57025 19.1092C5.40131 19.1092 4.1933 20.1254 3.67399 20.7045C3.0555 21.394 2.55015 22.1554 2.14035 23.015C1.62457 24.0968 1.50461 24.66 1.50272 26.0077C1.50125 27.0069 1.52919 27.2512 1.70003 27.7323C2.47469 29.9141 4.57059 31.3251 7.78567 31.8292C9.19693 32.0505 12.0865 31.9744 13.7933 31.671C15.4776 31.3716 15.6109 31.3396 17.2899 30.8312C24.4119 28.6746 30.7884 23.9949 33.1402 19.1987C34.5657 16.2917 34.4117 13.8911 32.6793 12.018C31.6523 10.9075 30.2566 10.1503 28.4034 9.69842C27.7288 9.53389 27.3791 9.50845 25.7301 9.50414C24.6866 9.5013 22.9791 9.51742 21.9357 9.53984C20.1235 9.57882 20.0095 9.57158 19.3917 9.37773C17.5829 8.81015 16.2683 7.40786 15.8228 5.57087C15.6876 5.01356 15.4977 3.22357 15.5541 3.038C15.5704 2.98454 15.6081 2.50431 15.6382 1.97071C15.6893 1.06244 15.6825 1.00061 15.5321 1.00061C15.4438 1.00061 15.306 1.04916 15.2259 1.1084ZM15.4896 2.16103C15.3741 3.43173 15.4998 4.96484 15.7985 5.92589C16.3372 7.65914 17.5929 8.94873 19.2223 9.44171C20.3731 9.78983 20.9031 9.81811 23.2693 9.6572C26.2533 9.45439 27.8972 9.58718 29.5676 10.166C31.5477 10.8521 33.1117 12.2505 33.6869 13.8491C33.9409 14.5551 34.0304 15.8201 33.8854 16.657C33.2457 20.3522 29.5616 24.5588 24.2572 27.6508C21.6969 29.1432 19.5348 30.0558 16.3303 30.9966C15.6333 31.2012 13.9202 31.5489 12.7946 31.7143C11.6517 31.8822 8.52153 31.8563 7.54145 31.6709C6.20202 31.4175 5.90769 31.3269 4.90665 30.8596C3.49608 30.201 2.60715 29.374 2.05489 28.2066C0.949249 25.8695 1.76953 22.775 4.11517 20.4343C4.67813 19.8725 5.50755 19.2107 5.50755 19.3232C5.50755 19.3519 5.31248 19.6162 5.07413 19.9106C4.83577 20.2049 4.60552 20.4899 4.5624 20.5439C4.41536 20.7279 3.73789 21.8248 3.63777 22.0411C2.86431 23.7103 2.66502 24.8907 2.96314 26.0353C3.14941 26.7502 3.39553 27.1834 3.94003 27.7541C5.03187 28.8988 6.59586 29.4746 8.95133 29.5991C10.119 29.6608 12.2832 29.501 12.5376 29.3344C12.6542 29.258 12.8465 28.8216 13.1153 28.0234C13.6585 26.4104 14.3892 24.2698 14.4509 24.1106C14.5299 23.9071 15.4738 21.1969 16.0277 19.5835C17.1848 16.2124 17.395 15.7624 18.3251 14.6661C19.3198 13.4937 20.8146 12.6816 22.4962 12.3999C23.3814 12.2516 23.9533 12.2128 24.0056 12.2973C24.0321 12.3402 23.9223 12.5614 23.7616 12.7889C23.4273 13.2618 22.8657 14.3985 22.5328 15.2764C22.2479 16.0271 22.013 16.7423 21.0757 19.7128C20.6642 21.0171 20.2959 22.1618 20.2573 22.2566C20.2187 22.3515 20.043 22.8948 19.8668 23.4639C19.6906 24.033 19.4181 24.8867 19.2611 25.361C18.8432 26.6237 18.6744 27.2782 18.7298 27.4222C18.7898 27.5787 19.0904 27.4736 20.3714 26.8478C24.6068 24.7791 28.1311 21.7608 29.7296 18.8334C30.9813 16.5411 30.9658 14.3251 29.6869 12.7645C29.3437 12.3458 28.1939 11.5458 27.6136 11.3219C26.4341 10.867 24.7237 10.6358 23.4227 10.7555C17.6813 11.2837 12.5693 15.6016 10.215 21.9117C10.0381 22.386 9.85725 22.8414 9.81327 22.9237C9.7692 23.0061 9.73195 23.1419 9.73039 23.2255C9.72703 23.4135 9.533 23.6795 9.39925 23.6795C9.293 23.6795 9.33138 23.238 9.49307 22.6016C9.61958 22.1031 9.6113 19.5073 9.48126 18.9367C9.1871 17.6458 8.69383 16.8065 7.91321 16.2686C7.29964 15.8459 6.68106 15.7196 5.46443 15.7689C4.28023 15.8168 3.34059 16.0477 2.04687 16.6087C1.60982 16.7983 1.23952 16.9534 1.224 16.9534C1.20839 16.9534 1.19571 16.8736 1.19571 16.776C1.19571 16.6395 1.33982 16.533 1.82093 16.3137C3.42787 15.5812 5.48591 14.2908 7.10293 13.0014C9.34871 11.2108 11.0724 9.3322 12.5361 7.07992C13.2539 5.97538 14.5624 3.36447 14.5624 3.03679C14.5624 2.97927 14.5933 2.89529 14.631 2.85027C14.6687 2.80517 14.7711 2.53553 14.8587 2.25097C15.1059 1.44763 15.1905 1.27491 15.3791 1.18851C15.4753 1.14436 15.5607 1.11323 15.5688 1.11935C15.5768 1.12547 15.5412 1.59423 15.4896 2.16103ZM16.2872 32.3986C15.508 32.6248 13.7677 32.9612 12.5359 33.1239C11.9667 33.199 11.4193 33.2771 11.3193 33.2974C11.1696 33.328 11.0496 33.5891 10.6379 34.7803C9.00419 39.5067 6.80162 44.3774 4.83672 47.6087C4.57714 48.0355 4.30196 48.4898 4.2253 48.6182C4.11371 48.8048 4.10741 48.8732 4.19348 48.9592C4.31335 49.0791 4.57249 48.9637 5.98185 48.1631C6.65536 47.7805 8.1376 46.9643 11.3717 45.1948C11.8222 44.9483 13.0765 44.2679 14.1587 43.6828C15.6581 42.8723 16.1159 42.5868 16.0816 42.4838C16.0567 42.4094 15.9588 42.132 15.8639 41.8673C15.5716 41.0522 15.4708 39.9347 15.5941 38.8726C15.7398 37.6163 15.9588 36.5849 16.3298 35.4069C16.6825 34.2865 17.1495 32.5434 17.1495 32.3467C17.1495 32.184 16.9945 32.1933 16.2872 32.3986ZM16.8489 33.2117C16.7257 33.6749 16.4502 34.639 16.2368 35.3543C15.7751 36.902 15.6304 37.5322 15.5127 38.509C15.3493 39.8665 15.4631 41.2694 15.8022 42.0788C15.9553 42.444 15.9808 42.6504 15.8727 42.6504C15.809 42.6504 13.5363 43.8516 12.4065 44.4823C11.1572 45.1799 8.69504 46.5242 7.66347 47.072C6.85302 47.5024 6.1689 47.8793 5.72314 48.1409C5.03385 48.5453 4.36793 48.8692 4.32137 48.8227C4.29524 48.7965 4.46012 48.4738 4.68779 48.1056C5.13544 47.382 5.25695 47.1704 5.64243 46.4445C5.78101 46.1837 5.91614 45.9509 5.94296 45.9271C6.07818 45.8072 8.52584 40.7058 8.52584 40.5439C8.52584 40.5237 8.65649 40.223 8.8162 39.8757C8.97591 39.5284 9.13622 39.1472 9.17244 39.0286C9.20858 38.9101 9.30697 38.6578 9.39097 38.4681C9.62933 37.93 10.0471 36.7989 10.6469 35.0675C10.9498 34.1932 11.2465 33.4468 11.3062 33.4089C11.366 33.371 11.5354 33.3394 11.6828 33.3387C12.4069 33.3351 14.9781 32.875 16.4165 32.4916C16.7485 32.4031 17.0321 32.3395 17.0466 32.3502C17.061 32.361 16.9721 32.7487 16.8489 33.2117Z" stroke="#FB333D" stroke-width="0.54001"/>
<path d="M35.75 25.5211C35.8612 24.8544 36.1875 24.5211 36.7292 24.5211L37.7084 24.4794C38.75 24.5072 39.132 25.0211 38.8542 26.021L33.7292 43.0831C34.6181 42.4304 35.5 41.4929 36.375 40.2707C36.6945 39.8124 37.0487 39.7152 37.4375 39.979L38.4792 40.6665C38.9237 40.9721 38.9931 41.3262 38.6875 41.729C37.5209 43.0901 36.4445 44.1525 35.4584 44.9164C34.4862 45.6664 33.3264 46.1942 31.9792 46.4997C31.5903 46.5553 31.3334 46.4025 31.2084 46.0414L30.4167 43.6873C29.6112 44.7428 28.9237 45.472 28.3542 45.8747C27.7848 46.2636 27.3473 46.458 27.0417 46.458H26.9584C26.7223 46.458 26.3681 46.2983 25.8959 45.9789C25.4375 45.6456 24.9792 45.215 24.5209 44.6873C24.0625 44.1595 23.7292 43.5831 23.5209 42.9581C23.3264 42.3331 23.3403 41.2012 23.5625 39.5624C23.7987 37.9096 24.4514 35.6041 25.5209 32.6459C26.5903 29.6876 27.6875 27.6252 28.8125 26.4585C29.9375 25.2919 31.3473 24.7225 33.0417 24.7502C33.9862 24.7502 34.8889 25.0072 35.75 25.5211ZM35.1042 27.896C33.5903 27.0488 32.3542 27.0349 31.3959 27.8543C30.4514 28.6599 29.5209 30.3126 28.6042 32.8125C27.7014 35.3125 27.1112 37.2777 26.8334 38.7082C26.5695 40.1249 26.4584 41.0901 26.5 41.604C26.5417 42.1179 26.7917 42.4929 27.25 42.729C27.7084 42.9651 28.4653 42.4998 29.5209 41.3332C30.5903 40.1665 31.5209 38.5693 32.3125 36.5416C33.1181 34.5139 34.0487 31.632 35.1042 27.896Z" fill="#25AC61"/>
<path d="M42.625 46.333H41.5209C41.1737 46.333 40.9098 46.2428 40.7292 46.0622C40.5625 45.8678 40.507 45.6317 40.5625 45.3539L45.2292 27.646H42.8334C42.2639 27.646 42.0764 27.3057 42.2709 26.6252L42.5834 25.4794C42.6945 24.9377 43.007 24.6669 43.5209 24.6669H46.0417L46.5417 22.6878C47.2778 19.9101 48.2084 17.8268 49.3334 16.4379C50.4584 15.0352 51.507 14.1949 52.4792 13.9172C53.3542 13.6533 54.1042 13.5908 54.7292 13.7297L57.3334 14.4172C58.25 14.6394 58.4792 15.1671 58.0209 16.0005L57.4584 17.0213C57.2639 17.424 56.7709 17.4935 55.9792 17.2296L53.25 16.2921C51.7917 17.4865 50.6528 19.6184 49.8334 22.6878L49.3125 24.6669H52.3959C52.9931 24.6669 53.2014 24.9794 53.0209 25.6044L52.7292 26.7085C52.5348 27.3335 52.1528 27.646 51.5834 27.646H48.5L43.8542 45.3956C43.6875 46.0206 43.2778 46.333 42.625 46.333Z" fill="#25AC61"/>
<path d="M72.8125 27.0419C73.2709 27.528 73.3264 27.9724 72.9792 28.3752L72.2709 29.1876C71.7848 29.7293 71.3542 29.7987 70.9792 29.396L70.5209 28.8751C69.4931 27.8335 68.6806 27.3821 68.0834 27.521C67.0556 27.7154 65.9723 28.8126 64.8334 30.8126C63.6945 32.7987 62.875 34.8542 62.375 36.9791C61.8889 39.0902 61.7709 40.854 62.0209 42.2706C62.0764 42.6179 62.3403 42.9373 62.8125 43.229C63.2848 43.5067 63.6459 43.6178 63.8959 43.5623C64.757 43.104 65.7084 42.2498 66.75 40.9998C67.0695 40.5693 67.5278 40.5415 68.125 40.9165L68.7709 41.3332C69.6737 41.8748 68.9028 43.1317 66.4584 45.1039C65.4306 45.9789 64.632 46.4928 64.0625 46.6455C63.4931 46.8122 62.632 46.6039 61.4792 46.0206C60.3403 45.4372 59.6389 44.8609 59.375 44.2914C58.5834 42.5554 58.5695 40.0901 59.3334 36.8958C60.0973 33.6875 61.0348 31.2362 62.1459 29.5418C63.257 27.8474 64.3473 26.5627 65.4167 25.6877C66.4862 24.7989 67.6389 24.4169 68.875 24.5419C70.1112 24.653 71.4237 25.4863 72.8125 27.0419Z" fill="#25AC61"/>
<path d="M83.875 25.5211C83.9862 24.8544 84.3125 24.5211 84.8542 24.5211L85.8334 24.4794C86.875 24.5072 87.257 25.0211 86.9792 26.021L81.8542 43.0831C82.7431 42.4304 83.625 41.4929 84.5 40.2707C84.8195 39.8124 85.1737 39.7152 85.5625 39.979L86.6042 40.6665C87.0487 40.9721 87.1181 41.3262 86.8125 41.729C85.6459 43.0901 84.5695 44.1525 83.5834 44.9164C82.6112 45.6664 81.4514 46.1942 80.1042 46.4997C79.7153 46.5553 79.4584 46.4025 79.3334 46.0414L78.5417 43.6873C77.7362 44.7428 77.0487 45.472 76.4792 45.8747C75.9098 46.2636 75.4723 46.458 75.1667 46.458H75.0834C74.8473 46.458 74.4931 46.2983 74.0209 45.9789C73.5625 45.6456 73.1042 45.215 72.6459 44.6873C72.1875 44.1595 71.8542 43.5831 71.6459 42.9581C71.4514 42.3331 71.4653 41.2012 71.6875 39.5624C71.9237 37.9096 72.5764 35.6041 73.6459 32.6459C74.7153 29.6876 75.8125 27.6252 76.9375 26.4585C78.0625 25.2919 79.4723 24.7225 81.1667 24.7502C82.1112 24.7502 83.0139 25.0072 83.875 25.5211ZM83.2292 27.896C81.7153 27.0488 80.4792 27.0349 79.5209 27.8543C78.5764 28.6599 77.6459 30.3126 76.7292 32.8125C75.8264 35.3125 75.2362 37.2777 74.9584 38.7082C74.6945 40.1249 74.5834 41.0901 74.625 41.604C74.6667 42.1179 74.9167 42.4929 75.375 42.729C75.8334 42.9651 76.5903 42.4998 77.6459 41.3332C78.7153 40.1665 79.6459 38.5693 80.4375 36.5416C81.2431 34.5139 82.1737 31.632 83.2292 27.896Z" fill="#25AC61"/>
<path d="M95.75 24.3961H96.3959C97.3681 24.3961 98.2639 24.7711 99.0834 25.5211C99.9028 26.2571 100.569 27.1668 101.083 28.2502C101.375 28.8474 101.278 29.2987 100.792 29.6043L99.5 30.3334C98.9028 30.764 98.4792 30.6945 98.2292 30.1251C98.2014 30.0696 98.0834 29.8057 97.875 29.3335C97.6806 28.8613 97.5209 28.5279 97.3959 28.3335C97.2709 28.1252 97.0487 27.896 96.7292 27.646C96.4237 27.396 96.0695 27.2363 95.6667 27.1668C94.9584 27.3196 94.2917 27.7918 93.6667 28.5835C93.0417 29.3751 92.7292 30.5001 92.7292 31.9584C92.7292 32.5834 92.875 33.0209 93.1667 33.2709C93.4723 33.507 94.007 33.7084 94.7709 33.875L95.9584 34.125C97.6945 34.5 98.5625 35.9375 98.5625 38.4374C98.5625 39.9235 98.007 41.6318 96.8959 43.5623C96.3681 44.465 95.6459 45.2359 94.7292 45.8747C93.8125 46.4997 92.8195 46.8122 91.75 46.8122H91.4375C90.3542 46.8122 89.3889 46.4372 88.5417 45.6872C87.6945 44.9234 87.0973 44.1525 86.75 43.3748C86.4028 42.5831 86.4028 41.9929 86.75 41.604L87.6875 40.8332C87.9792 40.5415 88.2917 40.4096 88.625 40.4374C88.9723 40.4651 89.2084 40.7151 89.3334 41.1873C89.4584 41.6596 89.8056 42.229 90.375 42.8956C90.9445 43.5623 91.4723 43.9095 91.9584 43.9373C92.8056 43.7984 93.5417 43.2984 94.1667 42.4373C94.7917 41.5623 95.1042 40.5624 95.1042 39.4374C95.1042 38.3124 95 37.5971 94.7917 37.2916C94.5834 36.9722 94.1042 36.7291 93.3542 36.5625L92.4167 36.3541C91.3195 36.0902 90.5417 35.6319 90.0834 34.9792C89.625 34.3264 89.3959 33.4445 89.3959 32.3334C89.3959 30.4862 90.0556 28.7015 91.375 26.9794C92.6945 25.2572 94.1528 24.3961 95.75 24.3961Z" fill="#25AC61"/>
<path d="M108.292 18.1671H108.688C109.16 18.1671 109.597 18.3823 110 18.8129C110.403 19.2434 110.604 19.7365 110.604 20.292C110.604 20.8476 110.396 21.3267 109.979 21.7295C109.563 22.1184 109.042 22.3128 108.417 22.3128H108.083C107.597 22.3128 107.16 22.1114 106.771 21.7086C106.396 21.292 106.208 20.8059 106.208 20.2503C106.208 19.6948 106.403 19.2087 106.792 18.7921C107.194 18.3754 107.694 18.1671 108.292 18.1671ZM109.063 25.5627L103.896 45.3956C103.729 46.0206 103.306 46.333 102.625 46.333H101.375C100.583 46.333 100.271 46.0067 100.438 45.3539L105.646 25.5211C105.785 24.9516 106.181 24.6669 106.833 24.6669H108.25C108.625 24.6669 108.875 24.7294 109 24.8544C109.125 24.9794 109.146 25.2155 109.063 25.5627Z" fill="#25AC61"/>
<path d="M114.292 36.6458L118.729 29.3126C119.674 27.771 120.639 26.6113 121.625 25.8335C122.625 25.0558 123.479 24.6669 124.188 24.6669H125.083C125.542 24.6669 125.896 24.7433 126.146 24.8961C126.41 25.0488 126.618 25.3961 126.771 25.9377C126.938 26.4794 126.861 27.278 126.542 28.3335L121.771 45.7289C121.688 46.1317 121.458 46.333 121.083 46.333H118.854C118.438 46.333 118.326 45.9928 118.521 45.3122L123 30.6668C123.222 29.9029 123.333 29.4029 123.333 29.1668C123.333 28.9168 123.236 28.7918 123.042 28.7918C122.847 28.7918 122.611 28.9237 122.333 29.1876C122.069 29.4376 121.708 29.9029 121.25 30.5834C120.708 31.3612 120.056 32.3681 119.292 33.6042C118.528 34.8403 117.563 36.368 116.396 38.1874C114.201 41.5346 112.646 44.0484 111.729 45.7289C111.507 46.1317 111.167 46.333 110.708 46.333H109.521C109.354 46.333 109.215 46.2219 109.104 45.9997C108.979 45.7636 108.958 45.5067 109.042 45.2289L114.208 25.771C114.347 25.035 114.632 24.6669 115.063 24.6669H116.813C117.493 24.6669 117.722 25.0766 117.5 25.896L114.292 36.6458Z" fill="#25AC61"/>
<path d="M127.333 40.1457C127.458 36.3402 128.41 32.7362 130.188 29.3335C131.965 25.9308 134.229 24.2572 136.979 24.3128C138.41 24.3961 139.521 25.1113 140.313 26.4585C140.91 27.3891 141.153 28.9654 141.042 31.1876C140.931 35.3958 139.778 39.2916 137.583 42.8748C136.069 45.4997 134.035 46.7636 131.479 46.6664C130.576 46.6386 129.736 46.2428 128.958 45.4789C127.792 44.3678 127.25 42.5901 127.333 40.1457ZM134.604 41.854C136.535 38.8124 137.556 35.4097 137.667 31.6459C137.694 29.9793 137.604 28.8613 137.396 28.2918C137.201 27.7224 136.785 27.4307 136.146 27.4168C135.507 27.403 134.924 27.7016 134.396 28.3127C133.868 28.9237 133.354 29.771 132.854 30.8543C131.59 33.382 130.903 36.3402 130.792 39.729C130.736 42.2845 131.181 43.6039 132.125 43.6873C132.944 43.7151 133.771 43.104 134.604 41.854Z" fill="#25AC61"/>
</svg>
