<svg width="142" height="50" viewBox="0 0 142 50" fill="none" xmlns="http://www.w3.org/2000/svg">
<path d="M15.709 1.10938C15.7114 1.23956 15.713 1.36976 15.7144 1.49997C15.7153 1.57247 15.7163 1.64497 15.7174 1.71967C15.709 1.96546 15.709 1.96546 15.6672 2.25272C15.4125 4.06628 15.7213 6.21797 16.822 7.70125C16.8971 7.80305 16.8971 7.80305 16.9738 7.90691C17.7885 8.91232 18.9315 9.3804 20.18 9.55522C21.0373 9.63323 21.8957 9.60205 22.7531 9.54184C23.5296 9.48938 24.3051 9.4831 25.0831 9.48317C25.3201 9.48298 25.5571 9.48142 25.7941 9.47981C26.5864 9.47727 27.3464 9.49261 28.1231 9.67025C28.2238 9.69255 28.3246 9.71484 28.4284 9.7378C29.0242 9.90403 29.595 10.1099 30.1671 10.3444C30.2678 10.3849 30.2678 10.3849 30.3706 10.4262C30.7869 10.6023 31.1318 10.8138 31.4853 11.0956C31.6469 11.2264 31.6469 11.2264 31.8954 11.3717C32.174 11.5732 32.3729 11.7955 32.5914 12.0589C32.7489 12.2483 32.7489 12.2483 32.9593 12.4362C33.1998 12.6938 33.3435 12.9581 33.4846 13.2765C33.5102 13.3336 33.5358 13.3907 33.5621 13.4495C34.3492 15.2484 34.0524 16.9082 33.3761 18.6876C33.1781 19.1869 32.933 19.6518 32.6606 20.1145C32.6318 20.1685 32.603 20.2225 32.5733 20.2781C32.376 20.6467 32.1316 20.9652 31.872 21.291C31.7312 21.4687 31.5961 21.6493 31.462 21.8321C31.0725 22.3535 30.6375 22.8224 30.1778 23.2821C29.9851 23.5008 29.7931 23.7201 29.6026 23.9408C29.4071 24.1383 29.2181 24.2564 28.9792 24.395C28.8763 24.5201 28.7736 24.6453 28.6729 24.7722C28.4403 25.0328 28.1489 25.2197 27.8662 25.4223C27.7001 25.5468 27.5343 25.6717 27.3686 25.7968C27.192 25.9288 27.0155 26.0608 26.8388 26.1927C26.7639 26.2494 26.689 26.306 26.6118 26.3643C25.7677 26.9925 24.8721 27.5594 23.9454 28.0581C23.7078 28.1887 23.476 28.3281 23.2431 28.4667C22.8938 28.671 22.5478 28.8532 22.1752 29.0101C21.9489 29.1078 21.7266 29.2128 21.5041 29.3188C20.953 29.5808 20.3992 29.817 19.8268 30.0298C19.5705 30.1274 19.3206 30.2347 19.0694 30.3448C18.5482 30.5637 18.017 30.7205 17.4738 30.8735C17.2024 30.9501 16.9335 31.0323 16.6651 31.1189C15.8161 31.3907 14.9899 31.5836 14.1056 31.6968C13.8221 31.7337 13.5402 31.7749 13.2584 31.823C12.2249 31.9974 11.2182 32.0621 10.1708 32.057C10.0542 32.0569 10.0542 32.0569 9.93514 32.0568C8.64623 32.0529 7.45257 31.9321 6.20583 31.5861C6.09263 31.558 5.97937 31.5301 5.86605 31.5025C5.29099 31.348 4.81013 31.1059 4.30493 30.7926C4.08647 30.6574 3.86537 30.5378 3.63741 30.4197C3.33092 30.2513 3.15937 30.0736 2.95249 29.7883C2.87193 29.7253 2.79137 29.6623 2.70836 29.5974C2.42627 29.3666 2.25143 29.0959 2.0803 28.7771C2.03642 28.6972 2.03642 28.6972 1.99165 28.6158C1.23169 27.2108 1.22946 25.5105 1.64922 23.9813C1.95721 23.0785 2.3845 22.2031 2.9963 21.4692C3.13566 21.3073 3.13566 21.3073 3.25749 21.0776C3.393 20.8655 3.55356 20.7357 3.75078 20.582C3.92009 20.4344 4.05601 20.2713 4.19925 20.0985C4.418 19.8404 4.5824 19.6831 4.92162 19.6009C4.92162 19.5444 4.92162 19.4879 4.92162 19.4297C5.23621 19.1866 5.37271 19.0872 5.77776 19.0872C5.8006 19.3367 5.81013 19.4703 5.66105 19.6775C5.57844 19.7587 5.57844 19.7587 5.49416 19.8416C4.75706 20.6321 4.18558 21.5289 3.71767 22.5009C3.686 22.5659 3.65434 22.631 3.62171 22.698C3.276 23.4472 3.18029 24.1804 3.18793 24.9996C3.18727 25.0709 3.18661 25.1423 3.18593 25.2158C3.18745 25.705 3.25683 26.1483 3.38056 26.6208C3.40915 26.7349 3.4377 26.8491 3.46618 26.9632C3.52268 26.9632 3.57919 26.9632 3.63741 26.9632C3.71516 27.0779 3.78733 27.1965 3.85679 27.3164C4.14282 27.7593 4.4678 27.9919 4.92162 28.2474C5.00505 28.297 5.00505 28.297 5.09017 28.3476C5.54481 28.612 5.99064 28.8004 6.49478 28.9483C6.56847 28.97 6.64216 28.9918 6.71808 29.0142C8.46728 29.5039 10.3283 29.4364 12.1132 29.1891C12.174 29.183 12.2348 29.1769 12.2974 29.1707C12.4751 29.115 12.4751 29.115 12.5533 28.9146C12.5786 28.8328 12.6039 28.751 12.6299 28.6667C12.6585 28.577 12.6872 28.4873 12.7167 28.3948C12.7453 28.3003 12.774 28.2057 12.8035 28.1082C12.8613 27.9234 12.9194 27.7385 12.9777 27.5538C13.0053 27.4659 13.0329 27.3779 13.0613 27.2874C13.1263 27.0918 13.1967 26.9058 13.2804 26.7178C13.3993 26.4452 13.4776 26.1807 13.5526 25.8931C13.6914 25.3915 13.8655 24.9203 14.0642 24.4408C14.2391 24.0147 14.3751 23.5846 14.5051 23.1433C14.6088 22.8133 14.729 22.492 14.8529 22.1691C15.0102 21.7587 15.1557 21.3495 15.2809 20.9278C15.4241 20.4457 15.5965 19.9796 15.7766 19.5104C15.911 19.1569 16.0301 18.8029 16.1371 18.4398C16.3244 17.8106 16.5692 17.21 16.822 16.6046C16.864 16.5025 16.9061 16.4004 16.9494 16.2952C17.3077 15.4925 17.8361 14.8311 18.4487 14.2075C18.5128 14.1413 18.5769 14.0751 18.643 14.0069C19.6975 12.9857 21.2835 12.2717 22.7551 12.2114C22.8805 12.2061 22.8805 12.2061 23.0084 12.2006C23.0947 12.1972 23.1809 12.1938 23.2698 12.1904C23.3577 12.1867 23.4456 12.183 23.5362 12.1792C23.7524 12.1701 23.9686 12.1614 24.1848 12.1529C24.2131 12.2377 24.2413 12.3224 24.2704 12.4097C24.1613 12.6049 24.0492 12.7828 23.9226 12.9662C23.8504 13.0751 23.7784 13.1841 23.7066 13.2932C23.6711 13.347 23.6356 13.4008 23.599 13.4562C23.1244 14.1846 22.8216 14.9514 22.5298 15.7644C22.4545 15.9687 22.3701 16.1687 22.2852 16.3691C22.1691 16.6553 22.0873 16.9351 22.0177 17.2359C21.9031 17.7255 21.7427 18.1918 21.5736 18.6645C21.3926 19.1706 21.2242 19.6713 21.0917 20.1924C20.9593 20.6621 20.7979 21.1224 20.642 21.5847C20.4745 22.0824 20.3153 22.5816 20.1636 23.0844C20.0524 23.4412 19.9327 23.7948 19.8131 24.1488C19.65 24.6325 19.5006 25.1153 19.3724 25.6095C19.228 26.1242 19.0494 26.6287 18.8767 27.1344C19.7162 26.9031 20.4434 26.5286 21.2016 26.1089C21.3288 26.0385 21.4566 25.9693 21.5846 25.9005C22.4189 25.4488 23.2177 24.9445 23.9761 24.3746C24.1848 24.2237 24.1848 24.2237 24.3945 24.101C24.6542 23.9415 24.8776 23.7568 25.1105 23.5603C25.1556 23.5223 25.2007 23.4843 25.2472 23.4451C25.5542 23.1858 25.8591 22.9242 26.16 22.6577C26.2782 22.5531 26.3974 22.4496 26.5171 22.3467C26.9495 21.9718 27.3282 21.5802 27.695 21.1418C27.7581 21.0711 27.8212 21.0004 27.8863 20.9275C29.1844 19.4414 30.3162 17.587 30.2815 15.5468C30.1925 14.4318 29.8568 13.4482 29.0066 12.6957C28.8936 12.581 28.8936 12.581 28.8936 12.4097C28.8265 12.3921 28.7594 12.3744 28.6903 12.3562C28.4208 12.254 28.22 12.1448 27.9786 11.9924C26.053 10.8269 23.3652 10.9446 21.2378 11.4297C20.6075 11.6018 20.009 11.8634 19.4198 12.1432C19.2555 12.2213 19.0879 12.2925 18.9195 12.3616C18.5719 12.5168 18.2434 12.6973 17.9109 12.8823C17.6595 13.0192 17.404 13.1429 17.1434 13.2611C16.9484 13.3784 16.8108 13.5326 16.6508 13.6939C16.5098 13.7979 16.367 13.8995 16.2227 13.9988C15.6675 14.3977 15.1731 14.8477 14.6816 15.3204C14.6138 15.3855 14.6138 15.3855 14.5446 15.4518C14.0319 15.9459 13.5386 16.4387 13.1406 17.0326C13.0825 17.1187 13.0825 17.1187 13.0232 17.2065C12.9391 17.3323 12.8556 17.4585 12.7727 17.5851C12.6315 17.7963 12.4851 18.0034 12.3379 18.2104C11.9841 18.7108 11.6854 19.2153 11.4283 19.7721C11.3627 19.9043 11.2968 20.0363 11.2303 20.168C11.1826 20.2634 11.135 20.3587 11.0858 20.457C11.0293 20.457 10.9728 20.457 10.9146 20.457C10.9035 20.5811 10.9035 20.5811 10.8922 20.7078C10.8339 21.1146 10.6699 21.4649 10.5026 21.8374C10.2484 22.4165 10.0393 22.9782 9.8859 23.5927C9.80163 23.7957 9.80163 23.7957 9.64244 23.9104C9.45917 23.9669 9.45917 23.9669 9.11671 23.9669C9.12892 23.7529 9.14146 23.5389 9.15417 23.3249C9.15754 23.2653 9.1609 23.2057 9.16437 23.1443C9.18191 22.8528 9.20636 22.5684 9.24681 22.2788C9.47931 20.4992 9.42543 18.5702 8.35956 17.0731C7.87364 16.5159 7.1872 16.1468 6.44921 16.0723C4.97476 15.9966 3.70829 16.2928 2.3532 16.8614C2.19637 16.9259 2.03942 16.9902 1.88232 17.054C1.81787 17.0809 1.75341 17.1079 1.68701 17.1356C1.48275 17.209 1.28248 17.2519 1.06898 17.2894C0.986228 17.0261 0.964138 16.9036 1.08035 16.6484C1.27049 16.3926 1.42818 16.3088 1.71644 16.1765C1.80892 16.1328 1.90141 16.0891 1.99669 16.0441C2.08609 16.003 2.17548 15.962 2.26758 15.9197C3.26561 15.4482 4.26456 14.908 5.12863 14.2176C5.32926 14.0759 5.54143 14.0098 5.77776 13.9507C5.77776 13.8942 5.77776 13.8377 5.77776 13.7795C5.95173 13.6462 6.12622 13.5222 6.3075 13.3996C6.74877 13.0931 7.17182 12.774 7.58101 12.4258C7.62578 12.3878 7.67056 12.3499 7.71668 12.3108C7.99648 12.0702 8.25726 11.8151 8.51742 11.5536C8.6144 11.4703 8.71236 11.388 8.81171 11.3075C9.07405 11.0862 9.29197 10.8466 9.51034 10.5825C9.68117 10.3808 9.87161 10.1995 10.0585 10.0127C10.1359 9.91874 10.2126 9.8242 10.2886 9.72911C10.3539 9.65319 10.4192 9.57726 10.4865 9.49904C10.543 9.49904 10.5996 9.49904 10.6578 9.49904C10.679 9.45313 10.7001 9.40722 10.722 9.35992C10.8552 9.10674 11.0032 8.87433 11.1715 8.64295C11.228 8.64295 11.2845 8.64295 11.3427 8.64295C11.3651 8.59583 11.3875 8.54871 11.4106 8.50016C11.6729 7.99339 11.9957 7.51008 12.3379 7.05384C12.5483 6.76655 12.6985 6.45849 12.849 6.13655C12.949 5.94281 13.0555 5.76601 13.1734 5.5831C13.4071 5.21338 13.5935 4.83099 13.772 4.43207C13.8213 4.32256 13.8213 4.32256 13.8717 4.21083C14.1463 3.58646 14.3685 2.94974 14.5707 2.29864C14.8536 1.39606 14.8536 1.39606 15.19 1.16823C15.3665 1.10938 15.3665 1.10938 15.709 1.10938Z" fill="#FB333D"/>
<path d="M17.1641 32.099C17.3969 32.7973 16.855 33.8891 16.629 34.5616C15.8599 36.8588 15.0766 39.6781 16.0511 42.0296C16.1153 42.3239 16.1153 42.3239 16.0511 42.6288C15.8006 42.8574 15.4963 42.9913 15.195 43.1425C14.989 43.25 14.7835 43.3583 14.578 43.4668C14.4352 43.5418 14.2921 43.6163 14.1486 43.6902C13.8543 43.8424 13.5745 43.9944 13.2994 44.1798C13.0284 44.3582 12.7541 44.4724 12.4553 44.5978C12.2611 44.7038 12.0684 44.8126 11.8774 44.9242C11.771 44.9858 11.6645 45.0473 11.558 45.1088C11.5063 45.1387 11.4546 45.1686 11.4014 45.1994C10.8997 45.4882 10.3884 45.7586 9.87484 46.0254C9.79517 46.0669 9.71549 46.1083 9.6334 46.1511C9.47362 46.2341 9.3137 46.3168 9.15362 46.3992C8.7531 46.6072 8.37823 46.8285 8.00337 47.0805C7.70455 47.2353 7.40217 47.381 7.09907 47.5273C6.80301 47.6737 6.80301 47.6737 6.53723 47.859C6.29109 48.0222 6.29109 48.0222 6.08508 48.1041C5.71333 48.2536 5.38592 48.4861 5.05202 48.7059C4.63388 48.9682 4.63388 48.9682 4.32464 48.9442C4.26725 48.9224 4.20986 48.9007 4.15073 48.8783C4.03668 48.504 4.03668 48.504 4.16076 48.2693C4.21043 48.2072 4.26009 48.1451 4.31126 48.081C5.21702 46.8651 5.87769 45.4327 6.55113 44.0785C6.63207 43.9159 6.71379 43.7537 6.79574 43.5916C7.30443 42.5829 7.79612 41.5701 8.22242 40.5234C8.31992 40.293 8.4209 40.0657 8.52541 39.8385C8.89736 39.0298 9.23573 38.2242 9.52135 37.3809C9.61102 37.1197 9.70684 36.8648 9.81197 36.6095C9.96574 36.2345 10.0917 35.8533 10.2173 35.4681C10.3511 35.0745 10.4987 34.6865 10.6483 34.2987C10.6692 34.244 10.6901 34.1894 10.7116 34.1332C10.73 34.0855 10.7485 34.0377 10.7675 33.9886C10.8557 33.7327 10.9269 33.4724 10.9999 33.2119C11.09 33.1977 11.1801 33.1834 11.273 33.1688C11.6128 33.1151 11.9525 33.0609 12.2921 33.0065C12.4381 32.9832 12.5842 32.9601 12.7302 32.937C13.5086 32.8143 14.2798 32.6855 15.0456 32.4969C15.2922 32.4386 15.5391 32.393 15.7889 32.3504C16.0432 32.3065 16.2652 32.2559 16.5113 32.1739C16.7429 32.0966 16.9217 32.0847 17.1641 32.099Z" fill="#FB333D"/>
<path fill-rule="evenodd" clip-rule="evenodd" d="M15.2259 1.10779C15.1459 1.16712 14.9112 1.70063 14.7043 2.29347C13.5443 5.61821 11.997 8.09693 9.43667 10.7317C7.35017 12.8791 4.24884 15.1021 1.91286 16.125C1.24547 16.4172 1.02729 16.6282 1.02453 16.9844C1.02298 17.1758 1.01988 17.1766 2.18744 16.6931C3.67847 16.0756 4.5273 15.8825 5.76626 15.8789C6.76963 15.8759 6.88001 15.8924 7.36164 16.1171C8.25359 16.5333 8.80335 17.1917 9.18478 18.3009C9.39312 18.9065 9.42167 19.1316 9.45176 20.4021C9.47867 21.5395 9.45185 22.0151 9.31827 22.7734C9.22582 23.2977 9.18374 23.7576 9.22419 23.8016C9.2686 23.8499 9.37915 23.8438 9.50618 23.7859C9.66632 23.713 9.76963 23.5237 9.94961 22.9734C11.4628 18.3454 14.2568 14.7381 17.9764 12.6101C22.7531 9.87735 28.5657 10.4147 30.1516 13.7357L30.4731 14.409L30.4707 15.6162C30.4685 16.6623 30.4412 16.8983 30.2659 17.384C29.7647 18.7725 28.6998 20.3982 27.4195 21.7295C26.0087 23.1966 23.7181 24.9099 21.5984 26.0834C20.5596 26.6586 18.8792 27.4204 18.8074 27.3488C18.7677 27.309 19.9551 23.4899 20.9404 20.4883C21.1194 19.9429 21.4684 18.8564 21.7158 18.0738C22.661 15.0849 23.2692 13.6392 23.9788 12.6948C24.1594 12.4545 24.3072 12.2235 24.3072 12.1815C24.3072 12.0625 22.6164 12.2106 21.8925 12.393C21.0258 12.6114 19.7512 13.2361 19.0756 13.7735C18.4862 14.2425 17.75 15.1237 17.3357 15.856C16.9891 16.4686 16.6226 17.4875 13.824 25.6191C13.171 27.5161 12.5936 29.1165 12.5409 29.1753C12.3639 29.3729 11.0615 29.4775 9.31309 29.4345C7.86285 29.3989 7.50204 29.3617 6.79438 29.1747C4.9007 28.6742 3.69537 27.7384 3.17054 26.3611C2.93304 25.738 2.91424 24.4936 3.12992 23.6788C3.44072 22.5046 4.25746 21.0456 5.26212 19.8699C5.67313 19.389 5.78653 19.1086 5.57025 19.1086C5.40131 19.1086 4.1933 20.1248 3.67399 20.7039C3.0555 21.3934 2.55015 22.1548 2.14035 23.0143C1.62457 24.0962 1.50461 24.6594 1.50272 26.0071C1.50125 27.0063 1.52919 27.2506 1.70003 27.7317C2.47469 29.9135 4.57059 31.3245 7.78567 31.8286C9.19693 32.0498 12.0865 31.9738 13.7933 31.6704C15.4776 31.371 15.6109 31.339 17.2899 30.8306C24.4119 28.674 30.7884 23.9943 33.1402 19.1981C34.5657 16.2911 34.4117 13.8905 32.6793 12.0173C31.6523 10.9069 30.2566 10.1497 28.4034 9.69781C27.7288 9.53328 27.3791 9.50784 25.7301 9.50353C24.6866 9.50069 22.9791 9.51681 21.9357 9.53923C20.1235 9.57821 20.0095 9.57097 19.3917 9.37712C17.5829 8.80954 16.2683 7.40725 15.8228 5.57026C15.6876 5.01295 15.4977 3.22296 15.5541 3.03739C15.5704 2.98392 15.6081 2.5037 15.6382 1.9701C15.6893 1.06183 15.6825 1 15.5321 1C15.4438 1 15.306 1.04855 15.2259 1.10779ZM15.4896 2.16042C15.3741 3.43112 15.4998 4.96423 15.7985 5.92528C16.3372 7.65853 17.5929 8.94812 19.2223 9.4411C20.3731 9.78922 20.9031 9.8175 23.2693 9.65659C26.2533 9.45378 27.8972 9.58657 29.5676 10.1654C31.5477 10.8515 33.1117 12.2499 33.6869 13.8485C33.9409 14.5544 34.0304 15.8195 33.8854 16.6564C33.2457 20.3516 29.5616 24.5581 24.2572 27.6502C21.6969 29.1426 19.5348 30.0552 16.3303 30.996C15.6333 31.2006 13.9202 31.5483 12.7946 31.7137C11.6517 31.8816 8.52153 31.8557 7.54145 31.6703C6.20202 31.4169 5.90769 31.3263 4.90665 30.859C3.49608 30.2004 2.60715 29.3734 2.05489 28.206C0.949249 25.8689 1.76953 22.7744 4.11517 20.4337C4.67813 19.8719 5.50755 19.2101 5.50755 19.3226C5.50755 19.3513 5.31248 19.6156 5.07413 19.91C4.83577 20.2043 4.60552 20.4893 4.5624 20.5433C4.41536 20.7273 3.73789 21.8242 3.63777 22.0405C2.86431 23.7097 2.66502 24.8901 2.96314 26.0347C3.14941 26.7496 3.39553 27.1828 3.94003 27.7535C5.03187 28.8982 6.59586 29.4739 8.95133 29.5985C10.119 29.6602 12.2832 29.5004 12.5376 29.3338C12.6542 29.2574 12.8465 28.821 13.1153 28.0228C13.6585 26.4098 14.3892 24.2692 14.4509 24.11C14.5299 23.9065 15.4738 21.1963 16.0277 19.5829C17.1848 16.2118 17.395 15.7618 18.3251 14.6655C19.3198 13.4931 20.8146 12.681 22.4962 12.3993C23.3814 12.251 23.9533 12.2121 24.0056 12.2967C24.0321 12.3396 23.9223 12.5608 23.7616 12.7883C23.4273 13.2612 22.8657 14.3979 22.5328 15.2758C22.2479 16.0265 22.013 16.7417 21.0757 19.7122C20.6642 21.0165 20.2959 22.1612 20.2573 22.256C20.2187 22.3509 20.043 22.8941 19.8668 23.4633C19.6906 24.0324 19.4181 24.8861 19.2611 25.3604C18.8432 26.6231 18.6744 27.2775 18.7298 27.4215C18.7898 27.5781 19.0904 27.4729 20.3714 26.8472C24.6068 24.7785 28.1311 21.7602 29.7296 18.8328C30.9813 16.5404 30.9658 14.3245 29.6869 12.7639C29.3437 12.3452 28.1939 11.5451 27.6136 11.3213C26.4341 10.8664 24.7237 10.6352 23.4227 10.7549C17.6813 11.2831 12.5693 15.601 10.215 21.9111C10.0381 22.3854 9.85725 22.8408 9.81327 22.9231C9.7692 23.0055 9.73195 23.1413 9.73039 23.2249C9.72703 23.4129 9.533 23.6788 9.39925 23.6788C9.293 23.6788 9.33138 23.2373 9.49307 22.601C9.61958 22.1025 9.6113 19.5067 9.48126 18.9361C9.1871 17.6452 8.69383 16.8059 7.91321 16.268C7.29964 15.8452 6.68106 15.719 5.46443 15.7682C4.28023 15.8162 3.34059 16.0471 2.04687 16.6081C1.60982 16.7977 1.23952 16.9528 1.224 16.9528C1.20839 16.9528 1.19571 16.8729 1.19571 16.7754C1.19571 16.6389 1.33982 16.5324 1.82093 16.313C3.42787 15.5806 5.48591 14.2901 7.10293 13.0008C9.34871 11.2102 11.0724 9.33159 12.5361 7.07931C13.2539 5.97477 14.5624 3.36386 14.5624 3.03618C14.5624 2.97866 14.5933 2.89468 14.631 2.84966C14.6687 2.80456 14.7711 2.53492 14.8587 2.25035C15.1059 1.44702 15.1905 1.2743 15.3791 1.1879C15.4753 1.14375 15.5607 1.11262 15.5688 1.11874C15.5768 1.12486 15.5412 1.59362 15.4896 2.16042ZM16.2872 32.398C15.508 32.6241 13.7677 32.9606 12.5359 33.1232C11.9667 33.1984 11.4193 33.2765 11.3193 33.2968C11.1696 33.3274 11.0496 33.5885 10.6379 34.7797C9.00419 39.5061 6.80162 44.3768 4.83672 47.608C4.57714 48.0349 4.30196 48.4892 4.2253 48.6176C4.11371 48.8042 4.10741 48.8725 4.19348 48.9586C4.31335 49.0785 4.57249 48.9631 5.98185 48.1625C6.65536 47.7799 8.1376 46.9636 11.3717 45.1942C11.8222 44.9476 13.0765 44.2673 14.1587 43.6822C15.6581 42.8717 16.1159 42.5862 16.0816 42.4831C16.0567 42.4088 15.9588 42.1314 15.8639 41.8667C15.5716 41.0516 15.4708 39.9341 15.5941 38.872C15.7398 37.6157 15.9588 36.5843 16.3298 35.4063C16.6825 34.2859 17.1495 32.5428 17.1495 32.3461C17.1495 32.1834 16.9945 32.1927 16.2872 32.398ZM16.8489 33.2111C16.7257 33.6743 16.4502 34.6384 16.2368 35.3537C15.7751 36.9014 15.6304 37.5316 15.5127 38.5084C15.3493 39.8659 15.4631 41.2688 15.8022 42.0782C15.9553 42.4434 15.9808 42.6497 15.8727 42.6497C15.809 42.6497 13.5363 43.8509 12.4065 44.4817C11.1572 45.1793 8.69504 46.5236 7.66347 47.0714C6.85302 47.5018 6.1689 47.8787 5.72314 48.1403C5.03385 48.5447 4.36793 48.8686 4.32137 48.8221C4.29524 48.7959 4.46012 48.4732 4.68779 48.105C5.13544 47.3813 5.25695 47.1698 5.64243 46.4439C5.78101 46.1831 5.91614 45.9503 5.94296 45.9265C6.07818 45.8066 8.52584 40.7052 8.52584 40.5433C8.52584 40.5231 8.65649 40.2224 8.8162 39.8751C8.97591 39.5277 9.13622 39.1466 9.17244 39.028C9.20858 38.9095 9.30697 38.6572 9.39097 38.4675C9.62933 37.9294 10.0471 36.7983 10.6469 35.0669C10.9498 34.1926 11.2465 33.4462 11.3062 33.4083C11.366 33.3704 11.5354 33.3388 11.6828 33.3381C12.4069 33.3345 14.9781 32.8744 16.4165 32.491C16.7485 32.4025 17.0321 32.3389 17.0466 32.3496C17.061 32.3604 16.9721 32.7481 16.8489 33.2111Z" stroke="#FB333D" stroke-width="0.54001"/>
<path d="M35.75 25.5214C35.8612 24.8548 36.1875 24.5214 36.7292 24.5214L37.7084 24.4798C38.75 24.5076 39.132 25.0214 38.8542 26.0214L33.7292 43.0835C34.6181 42.4307 35.5 41.4933 36.375 40.2711C36.6945 39.8127 37.0487 39.7155 37.4375 39.9794L38.4792 40.6669C38.9237 40.9724 38.9931 41.3266 38.6875 41.7294C37.5209 43.0904 36.4445 44.1529 35.4584 44.9168C34.4862 45.6668 33.3264 46.1945 31.9792 46.5001C31.5903 46.5556 31.3334 46.4029 31.2084 46.0418L30.4167 43.6876C29.6112 44.7432 28.9237 45.4723 28.3542 45.8751C27.7848 46.264 27.3473 46.4584 27.0417 46.4584H26.9584C26.7223 46.4584 26.3681 46.2987 25.8959 45.9793C25.4375 45.6459 24.9792 45.2154 24.5209 44.6876C24.0625 44.1599 23.7292 43.5835 23.5209 42.9585C23.3264 42.3335 23.3403 41.2016 23.5625 39.5627C23.7987 37.91 24.4514 35.6045 25.5209 32.6462C26.5903 29.688 27.6875 27.6255 28.8125 26.4589C29.9375 25.2923 31.3473 24.7228 33.0417 24.7506C33.9862 24.7506 34.8889 25.0075 35.75 25.5214ZM35.1042 27.8964C33.5903 27.0492 32.3542 27.0353 31.3959 27.8547C30.4514 28.6602 29.5209 30.313 28.6042 32.8129C27.7014 35.3129 27.1112 37.2781 26.8334 38.7086C26.5695 40.1252 26.4584 41.0905 26.5 41.6044C26.5417 42.1182 26.7917 42.4932 27.25 42.7293C27.7084 42.9654 28.4653 42.5002 29.5209 41.3335C30.5903 40.1669 31.5209 38.5697 32.3125 36.542C33.1181 34.5143 34.0487 31.6324 35.1042 27.8964Z" fill="white"/>
<path d="M42.625 46.3334H41.5209C41.1737 46.3334 40.9098 46.2431 40.7292 46.0626C40.5625 45.8681 40.507 45.632 40.5625 45.3543L45.2292 27.6464H42.8334C42.2639 27.6464 42.0764 27.3061 42.2709 26.6256L42.5834 25.4798C42.6945 24.9381 43.007 24.6673 43.5209 24.6673H46.0417L46.5417 22.6882C47.2778 19.9104 48.2084 17.8272 49.3334 16.4383C50.4584 15.0356 51.507 14.1953 52.4792 13.9175C53.3542 13.6537 54.1042 13.5912 54.7292 13.73L57.3334 14.4175C58.25 14.6397 58.4792 15.1675 58.0209 16.0008L57.4584 17.0216C57.2639 17.4244 56.7709 17.4938 55.9792 17.23L53.25 16.2925C51.7917 17.4869 50.6528 19.6188 49.8334 22.6882L49.3125 24.6673H52.3959C52.9931 24.6673 53.2014 24.9798 53.0209 25.6048L52.7292 26.7089C52.5348 27.3339 52.1528 27.6464 51.5834 27.6464H48.5L43.8542 45.3959C43.6875 46.0209 43.2778 46.3334 42.625 46.3334Z" fill="white"/>
<path d="M72.8125 27.0422C73.2709 27.5283 73.3264 27.9728 72.9792 28.3755L72.2709 29.188C71.7848 29.7297 71.3542 29.7991 70.9792 29.3963L70.5209 28.8755C69.4931 27.8339 68.6806 27.3825 68.0834 27.5214C67.0556 27.7158 65.9723 28.813 64.8334 30.813C63.6945 32.799 62.875 34.8545 62.375 36.9795C61.8889 39.0905 61.7709 40.8544 62.0209 42.271C62.0764 42.6182 62.3403 42.9377 62.8125 43.2293C63.2848 43.5071 63.6459 43.6182 63.8959 43.5626C64.757 43.1043 65.7084 42.2502 66.75 41.0002C67.0695 40.5697 67.5278 40.5419 68.125 40.9169L68.7709 41.3335C69.6737 41.8752 68.9028 43.1321 66.4584 45.1043C65.4306 45.9793 64.632 46.4931 64.0625 46.6459C63.4931 46.8126 62.632 46.6042 61.4792 46.0209C60.3403 45.4376 59.6389 44.8612 59.375 44.2918C58.5834 42.5557 58.5695 40.0905 59.3334 36.8961C60.0973 33.6879 61.0348 31.2366 62.1459 29.5422C63.257 27.8478 64.3473 26.5631 65.4167 25.6881C66.4862 24.7992 67.6389 24.4173 68.875 24.5423C70.1112 24.6534 71.4237 25.4867 72.8125 27.0422Z" fill="white"/>
<path d="M83.875 25.5214C83.9862 24.8548 84.3125 24.5214 84.8542 24.5214L85.8334 24.4798C86.875 24.5076 87.257 25.0214 86.9792 26.0214L81.8542 43.0835C82.7431 42.4307 83.625 41.4933 84.5 40.2711C84.8195 39.8127 85.1737 39.7155 85.5625 39.9794L86.6042 40.6669C87.0487 40.9724 87.1181 41.3266 86.8125 41.7294C85.6459 43.0904 84.5695 44.1529 83.5834 44.9168C82.6112 45.6668 81.4514 46.1945 80.1042 46.5001C79.7153 46.5556 79.4584 46.4029 79.3334 46.0418L78.5417 43.6876C77.7362 44.7432 77.0487 45.4723 76.4792 45.8751C75.9098 46.264 75.4723 46.4584 75.1667 46.4584H75.0834C74.8473 46.4584 74.4931 46.2987 74.0209 45.9793C73.5625 45.6459 73.1042 45.2154 72.6459 44.6876C72.1875 44.1599 71.8542 43.5835 71.6459 42.9585C71.4514 42.3335 71.4653 41.2016 71.6875 39.5627C71.9237 37.91 72.5764 35.6045 73.6459 32.6462C74.7153 29.688 75.8125 27.6255 76.9375 26.4589C78.0625 25.2923 79.4723 24.7228 81.1667 24.7506C82.1112 24.7506 83.0139 25.0075 83.875 25.5214ZM83.2292 27.8964C81.7153 27.0492 80.4792 27.0353 79.5209 27.8547C78.5764 28.6602 77.6459 30.313 76.7292 32.8129C75.8264 35.3129 75.2362 37.2781 74.9584 38.7086C74.6945 40.1252 74.5834 41.0905 74.625 41.6044C74.6667 42.1182 74.9167 42.4932 75.375 42.7293C75.8334 42.9654 76.5903 42.5002 77.6459 41.3335C78.7153 40.1669 79.6459 38.5697 80.4375 36.542C81.2431 34.5143 82.1737 31.6324 83.2292 27.8964Z" fill="white"/>
<path d="M95.75 24.3964H96.3959C97.3681 24.3964 98.2639 24.7714 99.0834 25.5214C99.9028 26.2575 100.569 27.1672 101.083 28.2505C101.375 28.8477 101.278 29.2991 100.792 29.6047L99.5 30.3338C98.9028 30.7643 98.4792 30.6949 98.2292 30.1255C98.2014 30.0699 98.0834 29.806 97.875 29.3338C97.6806 28.8616 97.5209 28.5283 97.3959 28.3339C97.2709 28.1255 97.0487 27.8964 96.7292 27.6464C96.4237 27.3964 96.0695 27.2367 95.6667 27.1672C94.9584 27.32 94.2917 27.7922 93.6667 28.5838C93.0417 29.3755 92.7292 30.5005 92.7292 31.9588C92.7292 32.5837 92.875 33.0212 93.1667 33.2712C93.4723 33.5073 94.007 33.7087 94.7709 33.8754L95.9584 34.1254C97.6945 34.5004 98.5625 35.9378 98.5625 38.4378C98.5625 39.9238 98.007 41.6321 96.8959 43.5626C96.3681 44.4654 95.6459 45.2362 94.7292 45.8751C93.8125 46.5001 92.8195 46.8126 91.75 46.8126H91.4375C90.3542 46.8126 89.3889 46.4376 88.5417 45.6876C87.6945 44.9237 87.0973 44.1529 86.75 43.3752C86.4028 42.5835 86.4028 41.9932 86.75 41.6044L87.6875 40.8335C87.9792 40.5419 88.2917 40.4099 88.625 40.4377C88.9723 40.4655 89.2084 40.7155 89.3334 41.1877C89.4584 41.6599 89.8056 42.2293 90.375 42.896C90.9445 43.5626 91.4723 43.9099 91.9584 43.9376C92.8056 43.7988 93.5417 43.2988 94.1667 42.4377C94.7917 41.5627 95.1042 40.5627 95.1042 39.4377C95.1042 38.3128 95 37.5975 94.7917 37.292C94.5834 36.9725 94.1042 36.7295 93.3542 36.5628L92.4167 36.3545C91.3195 36.0906 90.5417 35.6323 90.0834 34.9795C89.625 34.3268 89.3959 33.4448 89.3959 32.3338C89.3959 30.4866 90.0556 28.7019 91.375 26.9797C92.6945 25.2575 94.1528 24.3964 95.75 24.3964Z" fill="white"/>
<path d="M108.292 18.1674H108.688C109.16 18.1674 109.597 18.3827 110 18.8133C110.403 19.2438 110.604 19.7368 110.604 20.2924C110.604 20.8479 110.396 21.3271 109.979 21.7298C109.563 22.1187 109.042 22.3132 108.417 22.3132H108.083C107.597 22.3132 107.16 22.1118 106.771 21.709C106.396 21.2924 106.208 20.8063 106.208 20.2507C106.208 19.6952 106.403 19.2091 106.792 18.7924C107.194 18.3758 107.694 18.1674 108.292 18.1674ZM109.063 25.5631L103.896 45.3959C103.729 46.0209 103.306 46.3334 102.625 46.3334H101.375C100.583 46.3334 100.271 46.007 100.438 45.3543L105.646 25.5214C105.785 24.952 106.181 24.6673 106.833 24.6673H108.25C108.625 24.6673 108.875 24.7298 109 24.8548C109.125 24.9798 109.146 25.2159 109.063 25.5631Z" fill="white"/>
<path d="M114.292 36.6462L118.729 29.313C119.674 27.7714 120.639 26.6117 121.625 25.8339C122.625 25.0562 123.479 24.6673 124.188 24.6673H125.083C125.542 24.6673 125.896 24.7437 126.146 24.8964C126.41 25.0492 126.618 25.3964 126.771 25.9381C126.938 26.4797 126.861 27.2783 126.542 28.3339L121.771 45.7293C121.688 46.132 121.458 46.3334 121.083 46.3334H118.854C118.438 46.3334 118.326 45.9931 118.521 45.3126L123 30.6671C123.222 29.9033 123.333 29.4033 123.333 29.1672C123.333 28.9172 123.236 28.7922 123.042 28.7922C122.847 28.7922 122.611 28.9241 122.333 29.188C122.069 29.438 121.708 29.9033 121.25 30.5838C120.708 31.3616 120.056 32.3685 119.292 33.6046C118.528 34.8406 117.563 36.3684 116.396 38.1878C114.201 41.5349 112.646 44.0487 111.729 45.7293C111.507 46.132 111.167 46.3334 110.708 46.3334H109.521C109.354 46.3334 109.215 46.2223 109.104 46.0001C108.979 45.764 108.958 45.507 109.042 45.2293L114.208 25.7714C114.347 25.0353 114.632 24.6673 115.063 24.6673H116.813C117.493 24.6673 117.722 25.077 117.5 25.8964L114.292 36.6462Z" fill="white"/>
<path d="M127.333 40.1461C127.458 36.3406 128.41 32.7365 130.188 29.3338C131.965 25.9311 134.229 24.2576 136.979 24.3131C138.41 24.3964 139.521 25.1117 140.313 26.4589C140.91 27.3894 141.153 28.9658 141.042 31.188C140.931 35.3962 139.778 39.2919 137.583 42.8752C136.069 45.5001 134.035 46.764 131.479 46.6667C130.576 46.639 129.736 46.2431 128.958 45.4793C127.792 44.3682 127.25 42.5905 127.333 40.1461ZM134.604 41.8544C136.535 38.8128 137.556 35.4101 137.667 31.6463C137.694 29.9796 137.604 28.8616 137.396 28.2922C137.201 27.7228 136.785 27.4311 136.146 27.4172C135.507 27.4033 134.924 27.7019 134.396 28.313C133.868 28.9241 133.354 29.7713 132.854 30.8546C131.59 33.3823 130.903 36.3406 130.792 39.7294C130.736 42.2849 131.181 43.6043 132.125 43.6876C132.944 43.7154 133.771 43.1043 134.604 41.8544Z" fill="white"/>
</svg>
