<svg width="206" height="42" viewBox="0 0 206 42" fill="none" xmlns="http://www.w3.org/2000/svg">
<path d="M26.4857 23.0323L22.6741 33.3975C25.9023 32.6456 28.8777 30.8759 31.6003 28.0885C33.7913 25.8068 34.8868 23.4407 34.8868 20.9904C34.8868 18.5142 34.4136 17.1075 33.4672 16.7704C32.7584 16.5198 32.1361 16.3527 31.6003 16.2691C31.3323 16.2274 31.086 16.2065 30.8613 16.2065H30.7835C28.9944 16.2843 27.5812 16.4723 26.5441 16.7704L28.7221 17.8789C28.5276 18.216 28.0415 19.2337 27.2636 20.9321C27.121 21.3469 26.8617 22.047 26.4857 23.0323ZM22.4019 39.3483L20.9434 39.7956C18.6357 40.1067 16.4576 40.3141 14.4092 40.4179C14.7073 39.5359 15.5054 37.1958 16.8034 33.3975C16.86 33.2318 16.9176 33.0632 16.9762 32.8919C17.372 31.7193 17.8905 30.2154 18.5316 28.3802C19.0033 27.0298 19.5415 25.5 20.146 23.7908C20.7554 22.1443 23.0242 16.5565 24.2688 13.9117C23.8409 14.184 23.2575 14.5081 22.5186 14.8841L19.9516 11.7337C23.2835 11.2281 26.1616 10.9753 28.586 10.9753C29.1435 10.9753 29.7722 11.0077 30.4723 11.0725C32.3911 11.2151 33.4931 11.3123 33.7783 11.3642C34.7895 11.5198 35.9175 11.8698 37.1621 12.4143C39.8846 13.5423 41.2459 15.4805 41.2459 18.229C41.2459 18.7475 41.1876 19.2467 41.0709 19.7264C39.9689 29.1905 33.7459 35.7312 22.4019 39.3483Z" fill="url(#paint0_linear_5558_17274)"/>
<path d="M64.4072 19.7264C63.5904 24.0565 60.816 26.7661 56.0839 27.8552C59.1176 31.1611 61.6392 34.4866 63.6487 37.8314L56.9396 40.2623C55.0078 36.334 52.4279 32.49 49.1997 28.7303L48.2079 27.9135L47.5467 29.936C47.093 31.388 46.2827 34.4217 45.1159 39.0371L44.9019 39.076C42.8276 39.4779 40.4421 40.0419 37.7455 40.7679C38.653 37.2675 39.7355 33.6568 40.9931 29.936C41.771 27.5894 42.9961 24.5881 44.6686 20.9321C45.0056 20.2061 45.4918 19.2207 46.1271 17.9761C45.5826 18.1447 45.1094 18.2808 44.7075 18.3845L43.2878 11.7337C46.6197 11.2281 49.4979 10.9753 51.9223 10.9753C52.4797 10.9753 53.1085 11.0077 53.8086 11.0725C55.7274 11.2151 56.8294 11.3123 57.1146 11.3642C58.1258 11.5198 59.2537 11.8698 60.4983 12.4143C63.2209 13.5423 64.5822 15.4805 64.5822 18.229C64.5822 18.6179 64.5238 19.117 64.4072 19.7264ZM58.4759 19.0846C58.4759 18.0475 57.7823 17.2761 56.3951 16.7704C55.9931 16.6149 55.3384 16.5371 54.4309 16.5371H53.9253C53.1215 16.576 52.0325 16.7834 50.6582 17.1594L52.0584 17.8789C51.5917 18.6957 51.1055 19.7134 50.5999 20.9321C50.561 21.0228 50.3017 21.7229 49.822 23.0323L51.4944 22.974C53.2317 22.9351 54.6967 22.6823 55.8894 22.2156C57.6137 21.5414 58.4759 20.4978 58.4759 19.0846Z" fill="url(#paint1_linear_5558_17274)"/>
<path d="M80.3342 17.2177C79.66 18.1512 78.2663 20.407 76.1531 23.9852L74.4029 26.9412L78.3506 26.8634L79.2451 27.5635C79.9971 25.9299 80.3731 22.9286 80.3731 18.5596C80.3731 17.8984 80.3601 17.4511 80.3342 17.2177ZM78.3311 31.2389L72.4193 31.5306C71.2136 33.4624 70.1051 35.9775 69.0939 39.076L61.7235 40.8846C61.9309 40.0808 62.8903 37.9546 64.6016 34.506L66.3713 30.9083C68.0437 27.5116 70.6691 23.3305 74.2473 18.3651C76.205 15.6166 78.1432 13.1857 80.0619 11.0725C81.1898 11.0336 82.8623 10.9558 85.0792 10.8391L85.2542 13.3283C85.3709 15.2082 85.4293 17.0168 85.4293 18.754C85.4293 22.1637 85.1764 25.34 84.6708 28.283C84.5023 28.7886 84.1133 30.9018 83.504 34.6227C83.2577 36.1655 83.0114 37.423 82.765 38.3954L75.3947 40.1845C75.9132 38.5121 76.8921 35.5302 78.3311 31.2389Z" fill="url(#paint2_linear_5558_17274)"/>
<path d="M103.962 32.5808L103.943 32.6002L104.273 31.7445C104.183 32.0427 104.098 32.3344 104.02 32.6197L103.962 32.5808ZM103.962 40.1651C102.601 40.5799 101.142 40.7874 99.5866 40.7874C96.1639 40.7874 93.4932 39.5428 91.5745 37.0536C89.8113 34.7459 88.9297 31.751 88.9297 28.0691C88.9297 27.2782 88.9751 26.4355 89.0658 25.541C89.5066 21.5998 91.1402 18.203 93.9664 15.3508C96.8576 12.4467 100.164 10.9947 103.884 10.9947C109.511 10.9947 113.491 13.0107 115.825 17.0427L108.474 20.7765C107.476 18.6244 105.79 17.5483 103.418 17.5483C100.993 17.5483 98.9708 18.3716 97.3502 20.0181C95.8204 21.5868 94.874 23.6676 94.511 26.2605C94.4202 26.8569 94.3748 27.3625 94.3748 27.7774C94.3748 29.7221 94.9193 31.388 96.0084 32.7752C97.1493 34.2402 98.6207 34.9727 100.423 34.9727C102.368 34.9727 104.072 34.1949 105.537 32.6391L107.307 27.0773L114.152 26.28C113.323 28.6655 112.733 30.7722 112.383 32.6002C111.838 34.4801 111.423 36.0099 111.138 37.1897L110.438 39.9706C108.817 40.2169 106.646 40.4892 103.923 40.7874C103.923 40.6059 103.936 40.3984 103.962 40.1651Z" fill="url(#paint3_linear_5558_17274)"/>
<path d="M144.684 17.0232L143.012 18.1317C143.556 19.7004 143.828 21.0423 143.828 22.1572C143.828 22.961 143.705 24.0825 143.459 25.5215C142.681 30.0592 140.996 33.6698 138.403 36.3535C135.563 39.2964 131.94 40.7679 127.532 40.7679C123.928 40.7679 121.114 39.5233 119.092 37.0341C117.225 34.7264 116.291 31.7316 116.291 28.0496C116.291 27.2588 116.337 26.4161 116.428 25.5215C116.894 21.5803 118.619 18.1836 121.6 15.3314C124.66 12.4273 128.154 10.9753 132.082 10.9753C138.02 10.9753 142.221 12.9913 144.684 17.0232ZM136.925 26.2411C137.028 25.6836 137.08 25.2363 137.08 24.8992C137.08 23.3953 136.626 22.2415 135.719 21.4377L136.925 20.7571C135.874 18.6049 134.092 17.5289 131.577 17.5289C129.023 17.5289 126.89 18.3521 125.179 19.9986C123.571 21.5673 122.573 23.6482 122.184 26.2411C122.093 26.8374 122.048 27.3431 122.048 27.7579C122.048 29.7026 122.618 31.3686 123.759 32.7558C124.965 34.2208 126.521 34.9533 128.426 34.9533C130.721 34.9533 132.646 34.0522 134.202 32.2502C135.589 30.6426 136.497 28.6395 136.925 26.2411Z" fill="url(#paint4_linear_5558_17274)"/>
<path d="M148.904 11.6365L156.041 10.0224C157.454 15.649 158.465 20.9191 159.075 25.8327C159.165 25.8327 159.464 25.2298 159.969 24.0241L160.747 22.1378C161.577 20.1542 163.431 16.5695 166.309 11.3836L167.106 11.3059C168.571 11.1373 170.257 10.9947 172.162 10.878C170.425 14.0284 168.597 17.7817 166.678 22.1378C165.991 23.7065 164.974 26.7078 163.625 31.1417C163.262 32.3344 162.556 34.7199 161.506 38.2982L154.135 40.0873C154.187 39.815 154.213 39.3937 154.213 38.8232C154.213 36.0358 153.869 32.3409 153.182 27.7385C152.923 25.9234 152.696 25.0159 152.502 25.0159L149.935 31.1417C148.768 33.9161 148.068 36.5285 147.834 38.9788L140.464 40.7874C141.32 37.624 142.285 34.4088 143.362 31.1417C144.191 28.6655 145.416 25.6642 147.037 22.1378C147.737 20.582 148.722 18.6309 149.993 16.2843C150.071 16.0509 150.11 15.8629 150.11 15.7203C150.11 15.2925 149.941 14.6183 149.604 13.6978C149.189 12.5051 148.956 11.818 148.904 11.6365Z" fill="url(#paint5_linear_5558_17274)"/>
<path d="M169.595 35.3033L170.257 33.0864C170.412 32.5808 170.743 31.5501 171.248 29.9943C172.026 27.6607 173.251 24.6594 174.924 20.9904C175.339 20.031 175.993 18.6762 176.888 16.926C175.475 17.1594 173.329 17.477 170.451 17.8789L172.162 12.0448C174.198 11.8633 176.758 11.6494 179.844 11.4031C183.072 11.1568 185.905 11.0142 188.342 10.9753L186.553 16.6343C184.064 16.6343 182.093 16.6602 180.641 16.7121L182.333 17.6261C181.944 18.378 181.452 19.4995 180.855 20.9904C180.116 22.8184 179.092 25.8197 177.783 29.9943C177.316 31.5371 176.869 33.1382 176.441 34.7977C176.856 34.7718 177.575 34.7329 178.599 34.681L181.614 34.5643L179.824 40.2428C176.791 40.2428 174.814 40.2688 173.893 40.3206C172.402 40.4243 169.012 40.8198 163.722 41.5069L165.434 35.6534L167.378 35.4589C167.936 35.42 168.675 35.3682 169.595 35.3033Z" fill="url(#paint6_linear_5558_17274)"/>
<path d="M200.905 17.2177C200.231 18.1512 198.837 20.407 196.724 23.9852L194.974 26.9412L198.921 26.8634L199.816 27.5635C200.568 25.9299 200.944 22.9286 200.944 18.5596C200.944 17.8984 200.931 17.4511 200.905 17.2177ZM198.902 31.2389L192.99 31.5306C191.784 33.4624 190.676 35.9775 189.665 39.076L182.294 40.8846C182.502 40.0808 183.461 37.9546 185.172 34.506L186.942 30.9083C188.614 27.5116 191.24 23.3305 194.818 18.3651C196.776 15.6166 198.714 13.1857 200.633 11.0725C201.761 11.0336 203.433 10.9558 205.65 10.8391L205.825 13.3283C205.942 15.2082 206 17.0168 206 18.754C206 22.1637 205.747 25.34 205.242 28.283C205.073 28.7886 204.684 30.9018 204.075 34.6227C203.828 36.1655 203.582 37.423 203.336 38.3954L195.965 40.1845C196.484 38.5121 197.463 35.5302 198.902 31.2389Z" fill="url(#paint7_linear_5558_17274)"/>
<path d="M32.0397 0.492188C31.0218 1.76713 30.0631 3.09493 28.9576 4.23869C27.8141 5.51023 26.6056 6.7197 25.3372 7.86203C24.9694 8.16898 24.5438 8.39602 24.0869 8.52903C23.6301 8.66203 23.1517 8.69817 22.6816 8.63518L24.7023 3.23642C24.524 3.35326 24.3701 3.50487 24.2495 3.68244C23.2727 4.79378 22.3137 5.92975 21.3013 6.99183C21.0518 7.26973 20.7196 7.45664 20.3562 7.52357C19.9927 7.5905 19.6184 7.53372 19.2911 7.36203C18.0533 6.77876 16.8105 6.21116 15.5784 5.59041C15.4448 5.49515 15.2822 5.45126 15.1192 5.46654C14.9563 5.48182 14.8037 5.55528 14.6884 5.67388C13.3975 6.79684 12.0494 7.84967 10.6497 8.82795C7.43081 10.9481 4.04576 12.6046 0.026538 11.6958L0 11.8698C0.722524 14.791 1.43412 17.7132 2.21129 20.629C2.46972 21.5255 2.99879 22.3153 3.72385 22.8871C3.67589 21.7179 3.69008 20.5467 3.76638 19.3785C3.91678 17.9685 4.26549 17.7641 5.66139 17.84C5.72071 17.8357 5.78022 17.8433 5.83651 17.8625C5.89281 17.8816 5.94479 17.9118 5.98948 17.9515C6.03417 17.9911 6.0707 18.0394 6.09697 18.0935C6.12324 18.1476 6.13875 18.2065 6.1426 18.2668C6.26088 18.7972 6.42023 19.3228 6.56176 19.8595C6.92796 19.2934 7.24899 18.7588 7.60235 18.2592C7.7137 18.1117 7.87115 18.0071 8.04851 17.9629C8.67075 17.8002 9.30059 17.6935 9.95761 17.5499L10.2778 18.5741C10.823 17.6983 11.3404 16.8292 11.9109 15.982C12.0577 15.7818 12.2714 15.6431 12.5114 15.5923C12.7514 15.5415 13.0009 15.5821 13.2124 15.7064L13.1136 16.3544C12.5327 18.7426 12.6104 21.2441 13.338 23.5832C13.5653 24.5359 13.6701 25.5151 13.65 26.4965C13.6891 26.9463 13.432 27.1674 13.0296 27.1061L11.9597 27.0635C12.1895 27.2968 12.3938 27.5548 12.5689 27.8331C12.7278 28.1148 12.9295 28.6278 12.817 28.7476C12.4939 29.033 12.1021 29.2258 11.6823 29.3061C11.3995 29.3488 11.1111 29.3048 10.8538 29.1798C10.1662 28.8583 9.49248 28.5069 8.83461 28.1267C8.48672 27.9022 8.15207 27.6572 7.83236 27.393L7.58358 27.6126L9.21678 29.5384C9.5861 30.0179 10.0543 30.409 10.5886 30.6845C11.123 30.96 11.7106 31.1132 12.3106 31.1334C12.6515 31.1851 12.9995 31.1678 13.3346 31.0827C13.6697 30.9976 13.9854 30.8462 14.2636 30.6373C14.5419 30.4284 14.7772 30.1659 14.9563 29.865C15.1353 29.5641 15.2545 29.2306 15.3071 28.8835C15.5504 28.0822 15.5717 27.2362 15.8019 26.4329C15.9782 25.4312 16.3577 24.4769 16.9163 23.6308C17.4748 22.7848 18.2001 22.0656 19.0458 21.5193C17.7672 21.6725 16.5555 22.1906 15.5509 23.0138C15.5463 21.985 15.6319 20.9574 15.8065 19.9431C15.8927 18.8483 16.3984 17.8297 17.2145 17.1068C18.0306 16.384 19.0916 16.015 20.1686 16.0795C21.6501 15.9889 23.1342 15.9584 24.6175 15.988C26.7673 16.0966 28.9233 15.9705 31.0496 15.6153C32.4722 15.3509 33.8358 14.8213 35.0715 14.0532C32.5016 14.2192 29.9237 14.1743 27.3631 13.9189C32.1544 11.4675 35.9946 7.43876 38.2553 2.49203C34.8738 6.03124 31.2936 9.28535 26.5663 10.8495C28.7107 7.57991 30.5432 4.11345 32.0397 0.492188ZM15.1531 8.55573C15.0118 8.95336 14.8866 9.35071 14.7206 9.73362C14.4076 10.4804 14.0563 11.2132 13.7429 11.9626C13.7104 12.0921 13.6314 12.2047 13.5215 12.2782C13.4117 12.3518 13.2789 12.3809 13.1495 12.3598C12.1212 12.3263 11.0981 12.3292 9.97412 12.3058L15.1531 8.55573Z" fill="url(#paint8_linear_5558_17274)"/>
<defs>
<linearGradient id="paint0_linear_5558_17274" x1="103" y1="0.492188" x2="103" y2="41.5069" gradientUnits="userSpaceOnUse">
<stop stop-color="#FEBEC1"/>
<stop offset="1" stop-color="#FB6042"/>
</linearGradient>
<linearGradient id="paint1_linear_5558_17274" x1="103" y1="0.492188" x2="103" y2="41.5069" gradientUnits="userSpaceOnUse">
<stop stop-color="#FEBEC1"/>
<stop offset="1" stop-color="#FB6042"/>
</linearGradient>
<linearGradient id="paint2_linear_5558_17274" x1="103" y1="0.492188" x2="103" y2="41.5069" gradientUnits="userSpaceOnUse">
<stop stop-color="#FEBEC1"/>
<stop offset="1" stop-color="#FB6042"/>
</linearGradient>
<linearGradient id="paint3_linear_5558_17274" x1="103" y1="0.492188" x2="103" y2="41.5069" gradientUnits="userSpaceOnUse">
<stop stop-color="#FEBEC1"/>
<stop offset="1" stop-color="#FB6042"/>
</linearGradient>
<linearGradient id="paint4_linear_5558_17274" x1="103" y1="0.492188" x2="103" y2="41.5069" gradientUnits="userSpaceOnUse">
<stop stop-color="#FEBEC1"/>
<stop offset="1" stop-color="#FB6042"/>
</linearGradient>
<linearGradient id="paint5_linear_5558_17274" x1="103" y1="0.492188" x2="103" y2="41.5069" gradientUnits="userSpaceOnUse">
<stop stop-color="#FEBEC1"/>
<stop offset="1" stop-color="#FB6042"/>
</linearGradient>
<linearGradient id="paint6_linear_5558_17274" x1="103" y1="0.492188" x2="103" y2="41.5069" gradientUnits="userSpaceOnUse">
<stop stop-color="#FEBEC1"/>
<stop offset="1" stop-color="#FB6042"/>
</linearGradient>
<linearGradient id="paint7_linear_5558_17274" x1="103" y1="0.492188" x2="103" y2="41.5069" gradientUnits="userSpaceOnUse">
<stop stop-color="#FEBEC1"/>
<stop offset="1" stop-color="#FB6042"/>
</linearGradient>
<linearGradient id="paint8_linear_5558_17274" x1="103" y1="0.492188" x2="103" y2="41.5069" gradientUnits="userSpaceOnUse">
<stop stop-color="#FEBEC1"/>
<stop offset="1" stop-color="#FB6042"/>
</linearGradient>
</defs>
</svg>
